<?xml version="1.0" encoding="UTF-8"?>
<svg version="1.1" xmlns="http://www.w3.org/2000/svg" width="800" height="400">
<path d="M0,0 L800,0 L800,400 L0,400 Z " fill="#FEFEFE" transform="translate(0,0)"/>
<path d="M0,0 L112,0 L112,1 L113,1 L113,183 L112,183 L112,184 L111,184 L111,185 L1,185 L1,184 L-1,184 L-1,182 L-2,182 L-2,2 L-1,2 L-1,1 L0,1 Z " fill="#0463ED" transform="translate(69,111)"/>
<path d="M0,0 L78,0 L78,1 L79,1 L79,2 L80,2 L80,16 L79,16 L79,17 L78,17 L78,18 L77,18 L77,19 L73,19 L73,20 L72,20 L72,21 L71,21 L71,87 L72,87 L72,88 L73,88 L73,89 L77,89 L77,90 L78,90 L78,91 L79,91 L79,92 L80,92 L80,106 L79,106 L79,107 L78,107 L78,108 L77,108 L77,109 L1,109 L1,108 L0,108 L0,107 L-1,107 L-1,106 L-2,106 L-2,92 L-1,92 L-1,91 L0,91 L0,90 L1,90 L1,89 L5,89 L5,88 L6,88 L6,87 L7,87 L7,21 L6,21 L6,20 L5,20 L5,19 L0,19 L0,18 L-1,18 L-1,17 L-2,17 L-2,2 L-1,2 L-1,1 L0,1 Z " fill="#FCFCFD" transform="translate(86,171)"/>
<path d="M0,0 L11,0 L11,1 L15,1 L15,2 L18,2 L18,3 L21,3 L21,4 L23,4 L23,5 L25,5 L25,6 L27,6 L27,7 L28,7 L28,8 L29,8 L29,9 L30,9 L30,10 L31,10 L31,11 L32,11 L32,12 L33,12 L33,13 L34,13 L34,14 L35,14 L35,16 L36,16 L36,17 L37,17 L37,19 L38,19 L38,20 L39,20 L39,23 L40,23 L40,25 L41,25 L41,30 L42,30 L42,44 L41,44 L41,47 L40,47 L40,50 L39,50 L39,53 L38,53 L38,54 L37,54 L37,56 L36,56 L36,58 L35,58 L35,59 L34,59 L34,60 L33,60 L33,61 L32,61 L32,62 L31,62 L31,63 L30,63 L30,64 L29,64 L29,65 L28,65 L28,66 L26,66 L26,67 L25,67 L25,68 L23,68 L23,69 L21,69 L21,70 L18,70 L18,71 L16,71 L16,72 L10,72 L10,73 L-2,73 L-2,72 L-5,72 L-5,71 L-8,71 L-8,70 L-12,70 L-12,69 L-14,69 L-14,68 L-15,68 L-15,67 L-17,67 L-17,66 L-18,66 L-18,65 L-20,65 L-20,64 L-21,64 L-21,63 L-22,63 L-22,62 L-23,62 L-23,61 L-24,61 L-24,60 L-25,60 L-25,58 L-26,58 L-26,57 L-27,57 L-27,55 L-28,55 L-28,54 L-29,54 L-29,51 L-30,51 L-30,48 L-31,48 L-31,46 L-32,46 L-32,28 L-31,28 L-31,24 L-30,24 L-30,22 L-29,22 L-29,19 L-28,19 L-28,18 L-27,18 L-27,16 L-26,16 L-26,15 L-25,15 L-25,14 L-24,14 L-24,12 L-23,12 L-23,11 L-22,11 L-22,10 L-21,10 L-21,9 L-19,9 L-19,8 L-18,8 L-18,7 L-17,7 L-17,6 L-15,6 L-15,5 L-13,5 L-13,4 L-12,4 L-12,3 L-9,3 L-9,2 L-6,2 L-6,1 L0,1 Z " fill="#0262ED" transform="translate(582,153)"/>
<path d="M0,0 L25,0 L25,33 L24,33 L24,34 L23,34 L23,35 L19,35 L19,36 L18,36 L18,37 L17,37 L17,38 L16,38 L16,52 L17,52 L17,53 L18,53 L18,54 L19,54 L19,55 L95,55 L95,54 L96,54 L96,53 L97,53 L97,52 L98,52 L98,38 L97,38 L97,37 L96,37 L96,36 L95,36 L95,35 L91,35 L91,34 L90,34 L90,33 L89,33 L89,0 L114,0 L114,69 L113,69 L113,70 L112,70 L112,71 L2,71 L2,70 L0,70 Z " fill="#000000" transform="translate(68,225)"/>
<path d="M0,0 L36,0 L36,1 L41,1 L41,2 L43,2 L43,3 L45,3 L45,4 L47,4 L47,5 L48,5 L48,6 L49,6 L49,7 L50,7 L50,8 L51,8 L51,9 L52,9 L52,10 L53,10 L53,12 L54,12 L54,14 L55,14 L55,18 L56,18 L56,31 L55,31 L55,33 L54,33 L54,35 L53,35 L53,37 L52,37 L52,38 L51,38 L51,40 L50,40 L50,41 L48,41 L48,42 L47,42 L47,43 L45,43 L45,44 L43,44 L43,45 L41,45 L41,47 L42,47 L42,49 L43,49 L43,52 L44,52 L44,53 L45,53 L45,54 L46,54 L46,55 L47,55 L47,56 L48,56 L48,57 L55,57 L55,56 L57,56 L57,55 L58,55 L58,54 L59,54 L59,55 L60,55 L60,57 L61,57 L61,59 L62,59 L62,61 L63,61 L63,63 L64,63 L64,65 L65,65 L65,67 L63,67 L63,68 L61,68 L61,69 L59,69 L59,70 L56,70 L56,71 L53,71 L53,72 L43,72 L43,71 L40,71 L40,70 L38,70 L38,69 L36,69 L36,68 L35,68 L35,67 L34,67 L34,66 L33,66 L33,65 L32,65 L32,64 L31,64 L31,62 L30,62 L30,61 L29,61 L29,59 L28,59 L28,57 L27,57 L27,54 L26,54 L26,50 L25,50 L25,46 L18,46 L18,71 L0,71 Z " fill="#0262EE" transform="translate(297,154)"/>
<path d="M0,0 L15,0 L15,2 L16,2 L16,3 L17,3 L17,4 L18,4 L18,6 L19,6 L19,7 L20,7 L20,9 L21,9 L21,10 L22,10 L22,11 L23,11 L23,13 L24,13 L24,14 L25,14 L25,15 L26,15 L26,17 L27,17 L27,18 L28,18 L28,20 L29,20 L29,21 L30,21 L30,22 L31,22 L31,24 L32,24 L32,25 L33,25 L33,27 L34,27 L34,28 L35,28 L35,29 L36,29 L36,31 L37,31 L37,32 L38,32 L38,33 L39,33 L39,35 L40,35 L40,36 L42,36 L42,0 L60,0 L60,71 L46,71 L46,70 L45,70 L45,68 L44,68 L44,67 L43,67 L43,66 L42,66 L42,64 L41,64 L41,63 L40,63 L40,61 L39,61 L39,60 L38,60 L38,59 L37,59 L37,57 L36,57 L36,56 L35,56 L35,54 L34,54 L34,53 L33,53 L33,51 L32,51 L32,50 L31,50 L31,49 L30,49 L30,47 L29,47 L29,46 L28,46 L28,44 L27,44 L27,43 L26,43 L26,42 L25,42 L25,40 L24,40 L24,39 L23,39 L23,37 L22,37 L22,36 L21,36 L21,35 L20,35 L20,34 L19,34 L19,71 L0,71 Z " fill="#126AEF" transform="translate(667,154)"/>
<path d="M0,0 L17,0 L17,1 L18,1 L18,3 L19,3 L19,5 L20,5 L20,8 L21,8 L21,11 L22,11 L22,14 L23,14 L23,16 L24,16 L24,19 L25,19 L25,21 L26,21 L26,24 L27,24 L27,26 L28,26 L28,29 L29,29 L29,31 L30,31 L30,33 L31,33 L31,36 L32,36 L32,39 L33,39 L33,41 L34,41 L34,44 L35,44 L35,47 L36,47 L36,49 L37,49 L37,52 L38,52 L38,54 L39,54 L39,57 L40,57 L40,59 L41,59 L41,62 L42,62 L42,64 L43,64 L43,67 L44,67 L44,69 L45,69 L45,71 L26,71 L26,69 L25,69 L25,68 L24,68 L24,64 L23,64 L23,61 L22,61 L22,59 L21,59 L21,58 L-4,58 L-4,60 L-5,60 L-5,63 L-6,63 L-6,66 L-7,66 L-7,69 L-8,69 L-8,71 L-27,71 L-27,69 L-26,69 L-26,67 L-25,67 L-25,65 L-24,65 L-24,62 L-23,62 L-23,59 L-22,59 L-22,56 L-21,56 L-21,54 L-20,54 L-20,51 L-19,51 L-19,49 L-18,49 L-18,46 L-17,46 L-17,45 L-16,45 L-16,41 L-15,41 L-15,39 L-14,39 L-14,36 L-13,36 L-13,34 L-12,34 L-12,31 L-11,31 L-11,28 L-10,28 L-10,26 L-9,26 L-9,23 L-8,23 L-8,20 L-7,20 L-7,18 L-6,18 L-6,15 L-5,15 L-5,13 L-4,13 L-4,10 L-3,10 L-3,8 L-2,8 L-2,5 L-1,5 L-1,3 L0,3 Z " fill="#0261ED" transform="translate(245,154)"/>
<path d="M0,0 L49,0 L49,15 L18,15 L18,29 L45,29 L45,43 L18,43 L18,56 L49,56 L49,71 L0,71 Z " fill="#0563EE" transform="translate(426,154)"/>
<path d="M0,0 L14,0 L14,1 L17,1 L17,2 L20,2 L20,3 L23,3 L23,4 L25,4 L25,5 L27,5 L27,6 L28,6 L28,7 L30,7 L30,8 L31,8 L31,9 L33,9 L33,11 L32,11 L32,13 L31,13 L31,14 L30,14 L30,16 L29,16 L29,17 L28,17 L28,18 L27,18 L27,20 L26,20 L26,22 L25,22 L25,23 L24,23 L24,22 L23,22 L23,21 L22,21 L22,20 L20,20 L20,19 L18,19 L18,18 L16,18 L16,17 L12,17 L12,16 L1,16 L1,17 L-2,17 L-2,18 L-3,18 L-3,19 L-5,19 L-5,20 L-6,20 L-6,21 L-7,21 L-7,22 L-8,22 L-8,23 L-9,23 L-9,24 L-10,24 L-10,25 L-11,25 L-11,27 L-12,27 L-12,29 L-13,29 L-13,34 L-14,34 L-14,39 L-13,39 L-13,43 L-12,43 L-12,46 L-11,46 L-11,48 L-10,48 L-10,49 L-9,49 L-9,50 L-8,50 L-8,51 L-7,51 L-7,52 L-6,52 L-6,53 L-5,53 L-5,54 L-4,54 L-4,55 L-2,55 L-2,56 L1,56 L1,57 L13,57 L13,56 L16,56 L16,55 L19,55 L19,54 L20,54 L20,53 L22,53 L22,52 L23,52 L23,51 L24,51 L24,50 L25,50 L25,51 L26,51 L26,53 L27,53 L27,54 L28,54 L28,56 L29,56 L29,57 L30,57 L30,59 L31,59 L31,60 L32,60 L32,62 L33,62 L33,64 L31,64 L31,65 L30,65 L30,66 L29,66 L29,67 L27,67 L27,68 L25,68 L25,69 L24,69 L24,70 L20,70 L20,71 L17,71 L17,72 L14,72 L14,73 L0,73 L0,72 L-3,72 L-3,71 L-8,71 L-8,70 L-10,70 L-10,69 L-12,69 L-12,68 L-14,68 L-14,67 L-16,67 L-16,66 L-17,66 L-17,65 L-18,65 L-18,64 L-20,64 L-20,63 L-21,63 L-21,62 L-22,62 L-22,61 L-23,61 L-23,60 L-24,60 L-24,58 L-25,58 L-25,57 L-26,57 L-26,55 L-27,55 L-27,54 L-28,54 L-28,51 L-29,51 L-29,48 L-30,48 L-30,46 L-31,46 L-31,43 L-32,43 L-32,32 L-31,32 L-31,28 L-30,28 L-30,25 L-29,25 L-29,21 L-28,21 L-28,20 L-27,20 L-27,18 L-26,18 L-26,16 L-25,16 L-25,15 L-24,15 L-24,13 L-23,13 L-23,12 L-22,12 L-22,11 L-21,11 L-21,10 L-19,10 L-19,9 L-18,9 L-18,8 L-17,8 L-17,7 L-16,7 L-16,6 L-14,6 L-14,5 L-12,5 L-12,4 L-10,4 L-10,3 L-8,3 L-8,2 L-5,2 L-5,1 L0,1 Z " fill="#0262ED" transform="translate(513,153)"/>
<path d="M0,0 L57,0 L57,15 L38,15 L38,71 L19,71 L19,15 L0,15 Z " fill="#0A66EE" transform="translate(360,154)"/>
<path d="M0,0 L60,0 L60,1 L61,1 L61,2 L62,2 L62,25 L61,25 L61,26 L60,26 L60,27 L0,27 L0,26 L-1,26 L-1,25 L-2,25 L-2,2 L-1,2 L-1,1 L0,1 Z " fill="#FDFEFE" transform="translate(95,127)"/>
<path d="M0,0 L14,0 L14,1 L15,1 L15,2 L16,2 L16,3 L17,3 L17,5 L18,5 L18,6 L19,6 L19,8 L20,8 L20,9 L21,9 L21,10 L22,10 L22,12 L23,12 L23,13 L24,13 L24,14 L25,14 L25,16 L26,16 L26,17 L27,17 L27,19 L28,19 L28,20 L29,20 L29,21 L30,21 L30,23 L31,23 L31,24 L32,24 L32,27 L25,27 L25,26 L23,26 L23,28 L21,28 L21,31 L20,31 L20,30 L19,30 L19,29 L18,29 L18,31 L17,31 L17,69 L0,69 Z " fill="#0061ED" transform="translate(668,155)"/>
<path d="M0,0 L18,0 L18,71 L0,71 Z " fill="#0965EE" transform="translate(635,154)"/>
<path d="M0,0 L9,0 L9,1 L12,1 L12,2 L14,2 L14,3 L16,3 L16,4 L17,4 L17,5 L18,5 L18,6 L19,6 L19,7 L20,7 L20,8 L21,8 L21,10 L22,10 L22,12 L23,12 L23,14 L24,14 L24,27 L23,27 L23,29 L22,29 L22,31 L21,31 L21,33 L20,33 L20,34 L19,34 L19,35 L18,35 L18,36 L17,36 L17,37 L16,37 L16,38 L14,38 L14,39 L12,39 L12,40 L10,40 L10,41 L0,41 L0,40 L-3,40 L-3,39 L-5,39 L-5,38 L-6,38 L-6,37 L-7,37 L-7,36 L-9,36 L-9,34 L-10,34 L-10,33 L-11,33 L-11,32 L-12,32 L-12,30 L-13,30 L-13,27 L-14,27 L-14,13 L-13,13 L-13,11 L-12,11 L-12,9 L-11,9 L-11,8 L-10,8 L-10,7 L-9,7 L-9,6 L-8,6 L-8,5 L-7,5 L-7,4 L-6,4 L-6,3 L-5,3 L-5,2 L-3,2 L-3,1 L0,1 Z " fill="#FCFDFE" transform="translate(582,169)"/>
<path d="M0,0 L17,0 L17,1 L18,1 L18,3 L19,3 L19,5 L20,5 L20,8 L18,8 L18,4 L17,4 L17,6 L15,6 L15,5 L14,5 L14,2 L15,2 L15,1 L1,1 L1,2 L9,2 L9,3 L1,3 L1,5 L3,5 L3,8 L2,8 L2,10 L4,10 L4,11 L2,11 L2,12 L3,12 L3,13 L4,13 L4,16 L5,16 L5,17 L6,17 L6,18 L7,18 L7,19 L6,19 L6,20 L5,20 L5,23 L6,23 L6,22 L8,22 L8,21 L10,21 L10,24 L11,24 L11,27 L12,27 L12,30 L13,30 L13,33 L14,33 L14,36 L15,36 L15,39 L16,39 L16,42 L17,42 L17,44 L-1,44 L-1,43 L-3,43 L-3,39 L0,39 L0,35 L2,35 L2,34 L0,34 L0,29 L-2,29 L-2,31 L-3,31 L-3,34 L-4,34 L-4,35 L-5,35 L-5,32 L-4,32 L-4,30 L-5,30 L-5,31 L-6,31 L-6,33 L-7,33 L-7,30 L-11,30 L-11,28 L-10,28 L-10,26 L-9,26 L-9,23 L-8,23 L-8,20 L-7,20 L-7,18 L-6,18 L-6,15 L-5,15 L-5,13 L-4,13 L-4,10 L-3,10 L-3,8 L-2,8 L-2,5 L-1,5 L-1,3 L0,3 Z " fill="#0362EE" transform="translate(245,154)"/>
<path d="M0,0 L17,0 L17,69 L12,69 L12,4 L11,4 L11,2 L3,2 L3,7 L2,7 L2,2 L0,2 Z " fill="#0060ED" transform="translate(710,155)"/>
<path d="M0,0 L1,0 L1,3 L2,3 L2,6 L3,6 L3,8 L4,8 L4,11 L5,11 L5,13 L6,13 L6,16 L7,16 L7,18 L8,18 L8,21 L9,21 L9,23 L10,23 L10,26 L11,26 L11,28 L12,28 L12,30 L-7,30 L-7,28 L-8,28 L-8,27 L-9,27 L-9,23 L-10,23 L-10,20 L-11,20 L-11,17 L-6,17 L-6,14 L-5,14 L-5,13 L-4,13 L-4,12 L-2,12 L-2,11 L0,11 L0,10 L1,10 L1,4 L0,4 Z " fill="#0965EE" transform="translate(278,195)"/>
<path d="M0,0 L14,0 L14,1 L16,1 L16,2 L17,2 L17,3 L18,3 L18,4 L19,4 L19,5 L20,5 L20,12 L19,12 L19,15 L18,15 L18,16 L17,16 L17,17 L15,17 L15,18 L0,18 Z " fill="#FEFEFE" transform="translate(315,169)"/>
<path d="M0,0 L7,0 L7,1 L10,1 L10,2 L11,2 L11,3 L12,3 L12,4 L13,4 L13,6 L14,6 L14,13 L13,13 L13,15 L12,15 L12,17 L11,17 L11,18 L9,18 L9,19 L7,19 L7,20 L1,20 L1,19 L-1,19 L-1,18 L-2,18 L-2,17 L-4,17 L-4,15 L-5,15 L-5,13 L-6,13 L-6,6 L-5,6 L-5,5 L-4,5 L-4,3 L-3,3 L-3,2 L-1,2 L-1,1 L0,1 Z " fill="#F5F5F5" transform="translate(396,246)"/>
<path d="M0,0 L7,0 L7,1 L9,1 L9,2 L11,2 L11,3 L12,3 L12,5 L13,5 L13,6 L14,6 L14,13 L13,13 L13,15 L12,15 L12,16 L11,16 L11,17 L10,17 L10,18 L9,18 L9,19 L7,19 L7,20 L1,20 L1,19 L-1,19 L-1,18 L-3,18 L-3,17 L-4,17 L-4,15 L-5,15 L-5,13 L-6,13 L-6,6 L-5,6 L-5,4 L-4,4 L-4,3 L-3,3 L-3,2 L-2,2 L-2,1 L0,1 Z " fill="#F6F6F6" transform="translate(590,246)"/>
<path d="M0,0 L7,0 L7,1 L9,1 L9,2 L11,2 L11,3 L12,3 L12,5 L13,5 L13,7 L14,7 L14,13 L13,13 L13,15 L12,15 L12,16 L11,16 L11,17 L10,17 L10,18 L9,18 L9,19 L7,19 L7,20 L1,20 L1,19 L-1,19 L-1,18 L-3,18 L-3,17 L-4,17 L-4,16 L-5,16 L-5,13 L-6,13 L-6,6 L-5,6 L-5,4 L-4,4 L-4,3 L-3,3 L-3,2 L-1,2 L-1,1 L0,1 Z " fill="#F3F3F3" transform="translate(501,246)"/>
<path d="M0,0 L3,0 L3,2 L2,2 L2,67 L-3,67 L-3,11 L-2,11 L-2,13 L-1,13 L-1,7 L-2,7 L-2,5 L-1,5 L-1,2 L-2,2 L-2,1 L0,1 Z " fill="#0060ED" transform="translate(638,157)"/>
<path d="M0,0 L1,0 L1,4 L2,4 L2,6 L-1,6 L-1,7 L6,7 L6,10 L7,10 L7,11 L6,11 L6,13 L7,13 L7,15 L8,15 L8,14 L9,14 L9,15 L10,15 L10,14 L11,14 L11,15 L13,15 L13,17 L12,17 L12,20 L11,20 L11,23 L10,23 L10,25 L-9,25 L-9,23 L-8,23 L-8,21 L-7,21 L-7,19 L-6,19 L-6,16 L-5,16 L-5,13 L-4,13 L-4,10 L-3,10 L-3,8 L-2,8 L-2,5 L-1,5 L-1,3 L0,3 Z " fill="#0A66EE" transform="translate(227,200)"/>
<path d="M0,0 L9,0 L9,1 L11,1 L11,2 L12,2 L12,3 L13,3 L13,7 L12,7 L12,9 L10,9 L10,10 L12,10 L12,11 L13,11 L13,12 L14,12 L14,17 L13,17 L13,18 L12,18 L12,19 L10,19 L10,20 L0,20 Z " fill="#272727" transform="translate(684,246)"/>
<path d="M0,0 L2,0 L2,3 L3,3 L3,6 L4,6 L4,9 L5,9 L5,12 L6,12 L6,15 L7,15 L7,18 L8,18 L8,21 L9,21 L9,23 L-7,23 L-7,19 L-6,19 L-6,16 L-5,16 L-5,13 L-4,13 L-4,10 L-3,10 L-3,8 L-2,8 L-2,5 L-1,5 L-1,2 L0,2 Z " fill="#E8EFFC" transform="translate(253,175)"/>
<path d="M0,0 L9,0 L9,1 L11,1 L11,2 L12,2 L12,3 L13,3 L13,10 L12,10 L12,11 L11,11 L11,12 L9,12 L9,15 L10,15 L10,17 L11,17 L11,18 L14,18 L14,17 L15,17 L15,18 L16,18 L16,19 L15,19 L15,20 L10,20 L10,19 L9,19 L9,18 L8,18 L8,16 L7,16 L7,12 L2,12 L2,19 L0,19 Z " fill="#080808" transform="translate(519,246)"/>
<path d="M0,0 L7,0 L7,4 L8,4 L8,8 L9,8 L9,11 L10,11 L10,13 L11,13 L11,15 L12,15 L12,16 L13,16 L13,18 L14,18 L14,19 L15,19 L15,20 L16,20 L16,21 L17,21 L17,22 L16,22 L16,23 L15,23 L15,21 L13,21 L13,22 L12,22 L12,21 L9,21 L9,22 L8,22 L8,23 L7,23 L7,24 L3,24 L3,23 L4,23 L4,7 L2,7 L2,8 L1,8 L1,11 L0,11 Z " fill="#FEFEFD" transform="translate(315,200)"/>
<path d="M0,0 L3,0 L3,2 L4,2 L4,5 L5,5 L5,7 L6,7 L6,10 L7,10 L7,12 L8,12 L8,15 L9,15 L9,17 L10,17 L10,20 L8,20 L8,19 L7,19 L7,16 L-4,16 L-4,18 L-5,18 L-5,20 L-7,20 L-7,17 L-6,17 L-6,14 L-5,14 L-5,12 L-4,12 L-4,9 L-3,9 L-3,7 L-2,7 L-2,4 L-1,4 L-1,1 L0,1 Z " fill="#262626" transform="translate(550,246)"/>
<path d="M0,0 L2,0 L2,2 L3,2 L3,3 L4,3 L4,4 L5,4 L5,6 L6,6 L6,7 L7,7 L7,8 L8,8 L8,10 L9,10 L9,11 L10,11 L10,12 L11,12 L11,14 L12,14 L12,0 L15,0 L15,20 L13,20 L13,19 L12,19 L12,18 L11,18 L11,16 L10,16 L10,15 L9,15 L9,14 L8,14 L8,12 L7,12 L7,11 L6,11 L6,9 L5,9 L5,8 L4,8 L4,7 L3,7 L3,5 L2,5 L2,20 L0,20 Z " fill="#373737" transform="translate(656,246)"/>
<path d="M0,0 L7,0 L7,1 L9,1 L9,2 L11,2 L11,3 L12,3 L12,5 L13,5 L13,6 L14,6 L14,13 L13,13 L13,15 L12,15 L12,16 L11,16 L11,17 L10,17 L10,18 L9,18 L9,19 L7,19 L7,20 L1,20 L1,19 L-1,19 L-1,18 L-3,18 L-3,17 L-4,17 L-4,15 L-5,15 L-5,13 L-6,13 L-6,6 L-5,6 L-5,4 L-4,4 L-4,3 L-3,3 L-3,2 L-2,2 L-2,1 L0,1 Z M1,2 L1,3 L0,3 L0,4 L-1,4 L-1,5 L-2,5 L-2,6 L-3,6 L-3,14 L-2,14 L-2,15 L-1,15 L-1,16 L0,16 L0,17 L1,17 L1,18 L6,18 L6,17 L8,17 L8,16 L9,16 L9,15 L10,15 L10,14 L11,14 L11,6 L10,6 L10,5 L9,5 L9,4 L8,4 L8,3 L7,3 L7,2 Z " fill="#131313" transform="translate(590,246)"/>
<path d="M0,0 L7,0 L7,1 L10,1 L10,2 L11,2 L11,3 L12,3 L12,4 L13,4 L13,6 L14,6 L14,13 L13,13 L13,15 L12,15 L12,17 L11,17 L11,18 L9,18 L9,19 L7,19 L7,20 L1,20 L1,19 L-1,19 L-1,18 L-2,18 L-2,17 L-4,17 L-4,15 L-5,15 L-5,13 L-6,13 L-6,6 L-5,6 L-5,5 L-4,5 L-4,3 L-3,3 L-3,2 L-1,2 L-1,1 L0,1 Z M1,2 L1,3 L0,3 L0,4 L-1,4 L-1,5 L-2,5 L-2,6 L-3,6 L-3,14 L-2,14 L-2,15 L-1,15 L-1,16 L0,16 L0,17 L2,17 L2,18 L6,18 L6,17 L8,17 L8,16 L9,16 L9,15 L10,15 L10,14 L11,14 L11,12 L12,12 L12,8 L11,8 L11,6 L10,6 L10,5 L9,5 L9,4 L8,4 L8,3 L7,3 L7,2 Z " fill="#1D1D1D" transform="translate(396,246)"/>
<path d="M0,0 L7,0 L7,1 L9,1 L9,2 L11,2 L11,3 L12,3 L12,5 L13,5 L13,7 L14,7 L14,13 L13,13 L13,15 L12,15 L12,16 L11,16 L11,17 L10,17 L10,18 L9,18 L9,19 L7,19 L7,20 L1,20 L1,19 L-1,19 L-1,18 L-3,18 L-3,17 L-4,17 L-4,16 L-5,16 L-5,13 L-6,13 L-6,6 L-5,6 L-5,4 L-4,4 L-4,3 L-3,3 L-3,2 L-1,2 L-1,1 L0,1 Z M1,2 L1,3 L0,3 L0,4 L-2,4 L-2,6 L-3,6 L-3,7 L-4,7 L-4,12 L-3,12 L-3,14 L-2,14 L-2,15 L-1,15 L-1,16 L0,16 L0,17 L1,17 L1,18 L6,18 L6,17 L8,17 L8,16 L9,16 L9,15 L10,15 L10,14 L11,14 L11,6 L10,6 L10,5 L9,5 L9,4 L8,4 L8,3 L6,3 L6,2 Z " fill="#171717" transform="translate(501,246)"/>
<path d="M0,0 L14,0 L14,1 L16,1 L16,2 L17,2 L17,3 L18,3 L18,4 L19,4 L19,5 L20,5 L20,12 L19,12 L19,15 L18,15 L18,13 L17,13 L17,12 L18,12 L18,11 L17,11 L17,10 L18,10 L18,9 L16,9 L16,7 L15,7 L15,6 L3,6 L3,4 L0,4 Z " fill="#FDFEFD" transform="translate(315,169)"/>
<path d="M0,0 L2,0 L2,1 L3,1 L3,3 L4,3 L4,4 L5,4 L5,5 L6,5 L6,7 L7,7 L7,8 L8,8 L8,9 L9,9 L9,11 L10,11 L10,12 L11,12 L11,14 L12,14 L12,15 L13,15 L13,0 L15,0 L15,19 L12,19 L12,17 L11,17 L11,16 L10,16 L10,14 L9,14 L9,13 L8,13 L8,12 L7,12 L7,10 L6,10 L6,9 L5,9 L5,8 L4,8 L4,6 L3,6 L3,5 L2,5 L2,20 L0,20 Z " fill="#090909" transform="translate(414,246)"/>
<path d="M0,0 L1,0 L1,1 L2,1 L2,2 L3,2 L3,3 L4,3 L4,5 L5,5 L5,6 L6,6 L6,8 L7,8 L7,9 L8,9 L8,10 L9,10 L9,12 L10,12 L10,13 L11,13 L11,14 L8,14 L8,16 L7,16 L7,12 L5,12 L5,10 L3,10 L3,8 L2,8 L2,35 L0,35 Z " fill="#FBFCFE" transform="translate(686,188)"/>
<path d="M0,0 L6,0 L6,1 L7,1 L7,2 L8,2 L8,3 L9,3 L9,5 L7,5 L7,4 L6,4 L6,3 L5,3 L5,2 L1,2 L1,3 L0,3 L0,4 L-1,4 L-1,6 L0,6 L0,7 L1,7 L1,8 L4,8 L4,9 L6,9 L6,10 L8,10 L8,11 L9,11 L9,12 L10,12 L10,16 L9,16 L9,18 L8,18 L8,19 L6,19 L6,20 L0,20 L0,19 L-2,19 L-2,18 L-3,18 L-3,17 L-4,17 L-4,15 L-1,15 L-1,17 L1,17 L1,18 L5,18 L5,17 L6,17 L6,16 L7,16 L7,13 L6,13 L6,12 L5,12 L5,11 L1,11 L1,10 L-1,10 L-1,9 L-2,9 L-2,8 L-3,8 L-3,3 L-2,3 L-2,2 L-1,2 L-1,1 L0,1 Z " fill="#2C2C2C" transform="translate(610,246)"/>
<path d="M0,0 L6,0 L6,1 L7,1 L7,2 L8,2 L8,3 L9,3 L9,5 L7,5 L7,4 L6,4 L6,3 L5,3 L5,2 L1,2 L1,3 L0,3 L0,4 L-1,4 L-1,6 L0,6 L0,7 L1,7 L1,8 L3,8 L3,9 L6,9 L6,10 L8,10 L8,11 L9,11 L9,13 L10,13 L10,16 L9,16 L9,18 L8,18 L8,19 L6,19 L6,20 L0,20 L0,19 L-2,19 L-2,18 L-3,18 L-3,17 L-4,17 L-4,15 L-1,15 L-1,17 L1,17 L1,18 L5,18 L5,17 L6,17 L6,16 L7,16 L7,13 L6,13 L6,12 L5,12 L5,11 L1,11 L1,10 L-1,10 L-1,9 L-2,9 L-2,8 L-3,8 L-3,2 L-2,2 L-2,1 L0,1 Z " fill="#1D1D1D" transform="translate(572,246)"/>
<path d="M0,0 L2,0 L2,15 L3,15 L3,16 L4,16 L4,17 L5,17 L5,18 L9,18 L9,17 L11,17 L11,16 L12,16 L12,0 L15,0 L15,15 L14,15 L14,17 L13,17 L13,18 L12,18 L12,19 L10,19 L10,20 L4,20 L4,19 L3,19 L3,18 L2,18 L2,17 L1,17 L1,16 L0,16 Z " fill="#2D2D2D" transform="translate(450,246)"/>
<path d="M0,0 L7,0 L7,1 L8,1 L8,2 L9,2 L9,5 L7,5 L7,3 L6,3 L6,2 L2,2 L2,3 L1,3 L1,4 L0,4 L0,7 L1,7 L1,8 L5,8 L5,9 L7,9 L7,10 L8,10 L8,11 L9,11 L9,12 L10,12 L10,17 L9,17 L9,18 L8,18 L8,19 L6,19 L6,20 L0,20 L0,19 L-1,19 L-1,18 L-2,18 L-2,17 L-3,17 L-3,15 L-1,15 L-1,16 L0,16 L0,17 L2,17 L2,18 L6,18 L6,17 L7,17 L7,16 L8,16 L8,13 L7,13 L7,12 L5,12 L5,11 L2,11 L2,10 L0,10 L0,9 L-1,9 L-1,8 L-2,8 L-2,2 L-1,2 L-1,1 L0,1 Z " fill="#0A0A0A" transform="translate(436,246)"/>
<path d="M0,0 L12,0 L12,2 L2,2 L2,9 L11,9 L11,11 L2,11 L2,18 L12,18 L12,20 L0,20 Z " fill="#181818" transform="translate(716,246)"/>
<path d="M0,0 L17,0 L17,1 L18,1 L18,3 L19,3 L19,5 L20,5 L20,8 L18,8 L18,4 L17,4 L17,6 L15,6 L15,5 L14,5 L14,2 L15,2 L15,1 L1,1 L1,2 L9,2 L9,3 L1,3 L1,5 L3,5 L3,8 L2,8 L2,10 L4,10 L4,11 L2,11 L2,12 L3,12 L3,13 L1,13 L1,12 L-3,12 L-3,8 L-2,8 L-2,5 L-1,5 L-1,3 L0,3 Z " fill="#0563EC" transform="translate(245,154)"/>
<path d="M0,0 L8,0 L8,1 L10,1 L10,4 L9,4 L9,3 L7,3 L7,2 L1,2 L1,3 L-1,3 L-1,4 L-2,4 L-2,5 L-3,5 L-3,7 L-4,7 L-4,13 L-3,13 L-3,14 L-2,14 L-2,16 L0,16 L0,17 L1,17 L1,18 L7,18 L7,17 L9,17 L9,16 L10,16 L10,18 L9,18 L9,19 L8,19 L8,20 L0,20 L0,19 L-2,19 L-2,18 L-3,18 L-3,17 L-4,17 L-4,16 L-5,16 L-5,14 L-6,14 L-6,6 L-5,6 L-5,4 L-4,4 L-4,3 L-3,3 L-3,2 L-2,2 L-2,1 L0,1 Z " fill="#090909" transform="translate(378,246)"/>
<path d="M0,0 L1,0 L1,6 L0,6 L0,7 L1,7 L1,9 L2,9 L2,13 L4,13 L4,17 L-3,17 L-3,16 L-2,16 L-2,15 L-4,15 L-4,17 L-5,17 L-5,10 L-4,10 L-4,7 L-3,7 L-3,5 L-2,5 L-2,2 L-1,2 L-1,1 L0,1 Z " fill="#FDFEFC" transform="translate(253,178)"/>
<path d="M0,0 L12,0 L12,2 L2,2 L2,9 L10,9 L10,11 L2,11 L2,18 L12,18 L12,19 L0,19 Z " fill="#0A0A0A" transform="translate(640,246)"/>
<path d="M0,0 L3,0 L3,17 L11,17 L11,20 L0,20 Z " fill="#393939" transform="translate(470,246)"/>
<path d="M0,0 L16,0 L16,2 L9,2 L9,19 L6,19 L6,2 L0,2 Z " fill="#282828" transform="translate(621,246)"/>
<path d="M0,0 L15,0 L15,2 L9,2 L9,20 L7,20 L7,19 L6,19 L6,2 L0,2 Z " fill="#343434" transform="translate(479,246)"/>
<path d="M0,0 L4,0 L4,1 L5,1 L5,2 L6,2 L6,3 L9,3 L9,2 L10,2 L10,3 L12,3 L12,4 L11,4 L11,8 L10,8 L10,9 L9,9 L9,11 L8,11 L8,9 L7,9 L7,8 L5,8 L5,7 L2,7 L2,6 L0,6 L0,5 L-1,5 L-1,4 L-2,4 L-2,2 L-1,2 L-1,1 L0,1 Z " fill="#F2F2F2" transform="translate(573,248)"/>
<path d="M0,0 L9,0 L9,1 L11,1 L11,2 L12,2 L12,5 L11,5 L11,4 L10,4 L10,3 L8,3 L8,2 L2,2 L2,9 L7,9 L7,10 L2,10 L2,18 L9,18 L9,19 L0,19 Z " fill="#090909" transform="translate(684,246)"/>
<path d="M0,0 L1,0 L1,1 L2,1 L2,3 L3,3 L3,4 L4,4 L4,6 L5,6 L5,7 L6,7 L6,9 L7,9 L7,10 L8,10 L8,12 L9,12 L9,14 L7,14 L7,15 L6,15 L6,11 L5,11 L5,10 L4,10 L4,8 L3,8 L3,7 L2,7 L2,8 L1,8 L1,9 L-1,9 L-1,6 L-2,6 L-2,7 L-4,7 L-4,8 L-5,8 L-5,7 L-6,7 L-6,6 L-8,6 L-8,5 L-5,5 L-5,4 L-4,4 L-4,3 L-2,3 L-2,2 L-1,2 L-1,1 L0,1 Z " fill="#0A65ED" transform="translate(537,203)"/>
<path d="M0,0 L7,0 L7,4 L8,4 L8,8 L9,8 L9,11 L10,11 L10,12 L9,12 L9,13 L8,13 L8,12 L7,12 L7,9 L5,9 L5,7 L2,7 L2,8 L1,8 L1,11 L0,11 Z " fill="#FDFEFD" transform="translate(315,200)"/>
<path d="M0,0 L2,0 L2,9 L0,9 L0,10 L-1,10 L-1,11 L-3,11 L-3,12 L-4,12 L-4,13 L-1,13 L-1,14 L-2,14 L-2,15 L-1,15 L-1,17 L-2,17 L-2,19 L-6,19 L-6,18 L-5,18 L-5,15 L-6,15 L-6,17 L-7,17 L-7,18 L-10,18 L-10,16 L-9,16 L-9,17 L-8,17 L-8,16 L-7,16 L-7,14 L-6,14 L-6,12 L-5,12 L-5,11 L-4,11 L-4,10 L-3,10 L-3,8 L-2,8 L-2,7 L-1,7 L-1,5 L0,5 L0,3 L-2,3 L-2,2 L-3,2 L-3,1 L0,1 Z " fill="#F4F8FD" transform="translate(546,159)"/>
<path d="M0,0 L11,0 L11,1 L14,1 L14,2 L12,2 L12,4 L8,4 L8,6 L6,6 L6,5 L3,5 L3,4 L-3,4 L-3,3 L-4,3 L-4,1 L0,1 Z " fill="#0060EB" transform="translate(582,153)"/>
<path d="M0,0 L7,0 L7,1 L8,1 L8,2 L9,2 L9,6 L8,6 L8,7 L7,7 L7,8 L0,8 Z " fill="#EFEFEF" transform="translate(521,248)"/>
<path d="M0,0 L1,0 L1,6 L0,6 L0,8 L-1,8 L-1,9 L-2,9 L-2,10 L-3,10 L-3,11 L-4,11 L-4,12 L-6,12 L-6,13 L-12,13 L-12,12 L-14,12 L-14,11 L-16,11 L-16,10 L-17,10 L-17,9 L-18,9 L-18,6 L-16,6 L-16,7 L-15,7 L-15,8 L-14,8 L-14,9 L-13,9 L-13,10 L-12,10 L-12,11 L-7,11 L-7,10 L-5,10 L-5,9 L-4,9 L-4,8 L-3,8 L-3,7 L-2,7 L-2,1 L-1,1 L-1,5 L0,5 Z " fill="#232323" transform="translate(514,253)"/>
<path d="M0,0 L3,0 L3,20 L0,20 Z " fill="#464646" transform="translate(537,246)"/>
<path d="M0,0 L3,0 L3,20 L0,20 Z " fill="#464646" transform="translate(676,246)"/>
<path d="M0,0 L9,0 L9,1 L1,1 L1,2 L3,2 L3,3 L2,3 L2,5 L-4,5 L-4,6 L-5,6 L-5,7 L-6,7 L-6,9 L-7,9 L-7,10 L-8,10 L-8,11 L-9,11 L-9,9 L-10,9 L-10,10 L-12,10 L-12,9 L-11,9 L-11,8 L-10,8 L-10,7 L-9,7 L-9,6 L-8,6 L-8,5 L-7,5 L-7,4 L-6,4 L-6,3 L-5,3 L-5,2 L-3,2 L-3,1 L0,1 Z " fill="#EAF1FB" transform="translate(582,169)"/>
<path d="M0,0 L2,0 L2,18 L11,18 L11,20 L0,20 Z " fill="#1A1A1A" transform="translate(702,246)"/>
<path d="M0,0 L1,0 L1,2 L3,2 L3,6 L2,6 L2,4 L1,4 L1,5 L0,5 L0,7 L-1,7 L-1,9 L0,9 L0,11 L-1,11 L-1,12 L-2,12 L-2,14 L-3,14 L-3,15 L-5,15 L-5,16 L-8,16 L-8,17 L-9,17 L-9,18 L-10,18 L-10,19 L-12,19 L-12,18 L-11,18 L-11,17 L-10,17 L-10,16 L-9,16 L-9,15 L-8,15 L-8,14 L-7,14 L-7,13 L-6,13 L-6,12 L-5,12 L-5,11 L-4,11 L-4,9 L-3,9 L-3,7 L-2,7 L-2,6 L-1,6 L-1,3 L0,3 Z " fill="#ECF3FB" transform="translate(622,200)"/>
<path d="M0,0 L7,0 L7,1 L9,1 L9,6 L0,6 Z " fill="#F2F2F2" transform="translate(686,257)"/>
<path d="M0,0 L6,0 L6,1 L8,1 L8,6 L6,6 L6,7 L0,7 Z " fill="#E9E9E9" transform="translate(686,248)"/>
<path d="M0,0 L3,0 L3,2 L4,2 L4,5 L5,5 L5,7 L6,7 L6,10 L7,10 L7,13 L6,13 L6,14 L5,14 L5,10 L4,10 L4,8 L3,8 L3,6 L2,6 L2,3 L1,3 L1,5 L0,5 L0,7 L-1,7 L-1,10 L-3,10 L-3,11 L-4,11 L-4,9 L-3,9 L-3,7 L-2,7 L-2,4 L-1,4 L-1,1 L0,1 Z " fill="#161616" transform="translate(550,246)"/>
<path d="M0,0 L2,0 L2,19 L-1,19 L-1,17 L-2,17 L-2,16 L-3,16 L-3,14 L-4,14 L-4,11 L-3,11 L-3,12 L-2,12 L-2,14 L-1,14 L-1,15 L0,15 Z " fill="#070707" transform="translate(427,246)"/>
<path d="M0,0 L2,0 L2,1 L3,1 L3,2 L2,2 L2,3 L1,3 L1,4 L-1,4 L-1,7 L0,7 L0,9 L1,9 L1,10 L4,10 L4,9 L5,9 L5,10 L6,10 L6,11 L5,11 L5,12 L0,12 L0,11 L-1,11 L-1,10 L-2,10 L-2,8 L-3,8 L-3,3 L-8,3 L-8,2 L-1,2 L-1,1 L0,1 Z " fill="#202020" transform="translate(529,254)"/>
<path d="M0,0 L6,0 L6,1 L7,1 L7,2 L8,2 L8,3 L9,3 L9,5 L7,5 L7,4 L6,4 L6,3 L5,3 L5,2 L1,2 L1,3 L0,3 L0,4 L-1,4 L-1,6 L0,6 L0,7 L1,7 L1,8 L2,8 L2,9 L3,9 L3,10 L-1,10 L-1,9 L-2,9 L-2,8 L-3,8 L-3,3 L-2,3 L-2,2 L-1,2 L-1,1 L0,1 Z " fill="#101010" transform="translate(610,246)"/>
<path d="M0,0 L2,0 L2,15 L3,15 L3,16 L4,16 L4,17 L5,17 L5,18 L9,18 L9,19 L3,19 L3,18 L2,18 L2,17 L1,17 L1,16 L0,16 Z " fill="#070707" transform="translate(450,246)"/>
<path d="M0,0 L2,0 L2,1 L3,1 L3,2 L4,2 L4,7 L3,7 L3,8 L2,8 L2,9 L0,9 L0,10 L-6,10 L-6,9 L-7,9 L-7,8 L-8,8 L-8,7 L-9,7 L-9,5 L-7,5 L-7,6 L-6,6 L-6,7 L-4,7 L-4,8 L0,8 L0,7 L1,7 L1,6 L2,6 L2,3 L1,3 L1,2 L0,2 Z " fill="#030303" transform="translate(442,256)"/>
<path d="M0,0 L2,0 L2,2 L3,2 L3,3 L4,3 L4,4 L3,4 L3,5 L2,5 L2,20 L0,20 Z " fill="#0B0B0B" transform="translate(656,246)"/>
<path d="M0,0 L2,0 L2,1 L4,1 L4,2 L5,2 L5,4 L8,4 L8,6 L10,6 L10,7 L8,7 L8,9 L5,9 L5,11 L4,11 L4,9 L3,9 L3,6 L2,6 L2,4 L1,4 L1,1 L0,1 Z " fill="#F7F9FC" transform="translate(270,174)"/>
<path d="M0,0 L3,0 L3,2 L4,2 L4,10 L3,10 L3,11 L2,11 L2,10 L1,10 L1,12 L2,12 L2,13 L0,13 Z " fill="#FEFEFE" transform="translate(315,173)"/>
<path d="M0,0 L1,0 L1,3 L2,3 L2,5 L3,5 L3,7 L4,7 L4,10 L-3,10 L-3,7 L-2,7 L-2,4 L-1,4 L-1,2 L0,2 Z " fill="#E7E7E7" transform="translate(551,249)"/>
<path d="M0,0 L17,0 L17,1 L18,1 L18,3 L19,3 L19,5 L20,5 L20,8 L18,8 L18,4 L17,4 L17,6 L15,6 L15,5 L14,5 L14,2 L15,2 L15,1 L0,1 Z " fill="#3178F0" transform="translate(245,154)"/>
<path d="M0,0 L1,0 L1,2 L2,2 L2,0 L3,0 L3,1 L4,1 L4,2 L6,2 L6,6 L-1,6 L-1,5 L0,5 L0,4 L-2,4 L-2,6 L-3,6 L-3,2 L-2,2 L-2,1 L0,1 Z " fill="#FEFEFE" transform="translate(251,189)"/>
<path d="M0,0 L1,0 L1,2 L2,2 L2,3 L1,3 L1,4 L-1,4 L-1,9 L-2,9 L-2,7 L-4,7 L-4,8 L-3,8 L-3,9 L-4,9 L-4,11 L-5,11 L-5,8 L-6,8 L-6,6 L-7,6 L-7,4 L-5,4 L-5,3 L-3,3 L-3,2 L-1,2 L-1,1 L0,1 Z " fill="#FDFEFB" transform="translate(345,195)"/>
<path d="M0,0 L3,0 L3,14 L2,14 L2,11 L0,11 L0,12 L-2,12 L-2,10 L0,10 L0,8 L1,8 L1,7 L0,7 L0,5 L-1,5 L-1,3 L0,3 L0,4 L1,4 L1,2 L0,2 Z " fill="#0966ED" transform="translate(621,183)"/>
<path d="M0,0 L3,0 L3,2 L4,2 L4,4 L5,4 L5,2 L7,2 L7,4 L10,4 L10,5 L11,5 L11,9 L10,9 L10,6 L9,6 L9,7 L7,7 L7,6 L6,6 L6,5 L1,5 L1,4 L0,4 L0,3 L-1,3 L-1,1 L0,1 Z " fill="#FAFDFC" transform="translate(85,185)"/>
<path d="M0,0 L2,0 L2,3 L1,3 L1,5 L0,5 L0,9 L-1,9 L-1,22 L-2,22 L-2,4 L-3,4 L-3,2 L-2,2 L-2,1 L0,1 Z " fill="#D9E5F9" transform="translate(551,172)"/>
<path d="M0,0 L14,0 L14,1 L16,1 L16,2 L17,2 L17,3 L18,3 L18,4 L19,4 L19,5 L20,5 L20,7 L19,7 L19,6 L18,6 L18,5 L17,5 L17,4 L16,4 L16,3 L10,3 L10,4 L8,4 L8,2 L10,2 L10,1 L0,1 Z " fill="#CEDDFB" transform="translate(315,169)"/>
<path d="M0,0 L3,0 L3,2 L5,2 L5,3 L6,3 L6,4 L12,4 L12,3 L14,3 L14,2 L15,2 L15,4 L14,4 L14,5 L13,5 L13,6 L5,6 L5,5 L3,5 L3,4 L2,4 L2,3 L1,3 L1,2 L0,2 Z " fill="#222222" transform="translate(373,260)"/>
<path d="M0,0 L3,0 L3,1 L4,1 L4,2 L5,2 L5,4 L8,4 L8,11 L7,11 L7,10 L6,10 L6,9 L5,9 L5,7 L4,7 L4,6 L3,6 L3,4 L2,4 L2,3 L1,3 L1,2 L0,2 Z " fill="#0E66ED" transform="translate(704,211)"/>
<path d="M0,0 L3,0 L3,1 L4,1 L4,3 L5,3 L5,4 L6,4 L6,5 L7,5 L7,7 L8,7 L8,8 L9,8 L9,9 L6,9 L6,11 L5,11 L5,7 L3,7 L3,5 L1,5 L1,3 L0,3 Z " fill="#EFF4FD" transform="translate(688,193)"/>
<path d="M0,0 L4,0 L4,1 L3,1 L3,2 L1,2 L1,3 L0,3 L0,4 L-1,4 L-1,5 L-2,5 L-2,6 L-3,6 L-3,12 L-4,12 L-4,9 L-5,9 L-5,10 L-6,10 L-6,6 L-5,6 L-5,5 L-4,5 L-4,3 L-3,3 L-3,2 L-1,2 L-1,1 L0,1 Z " fill="#282828" transform="translate(396,246)"/>
<path d="M0,0 L2,0 L2,1 L4,1 L4,2 L6,2 L6,3 L8,3 L8,4 L13,4 L13,7 L10,7 L10,6 L6,6 L6,5 L4,5 L4,3 L1,3 L1,2 L0,2 Z M0,3 L1,3 L1,4 L0,4 Z " fill="#EEF3FC" transform="translate(497,220)"/>
<path d="M0,0 L4,0 L4,1 L6,1 L6,2 L8,2 L8,3 L9,3 L9,5 L10,5 L10,12 L9,12 L9,8 L8,8 L8,6 L7,6 L7,5 L6,5 L6,4 L5,4 L5,3 L3,3 L3,2 L-1,2 L-1,1 L0,1 Z " fill="#101010" transform="translate(504,246)"/>
<path d="M0,0 L1,0 L1,2 L2,2 L2,3 L3,3 L3,5 L4,5 L4,6 L5,6 L5,7 L6,7 L6,8 L7,8 L7,9 L6,9 L6,10 L5,10 L5,8 L3,8 L3,9 L2,9 L2,8 L0,8 L0,7 L-1,7 L-1,2 L0,2 Z " fill="#F8FAFC" transform="translate(325,213)"/>
<path d="M0,0 L2,0 L2,1 L3,1 L3,2 L2,2 L2,3 L1,3 L1,4 L-3,4 L-3,5 L-4,5 L-4,6 L-5,6 L-5,5 L-7,5 L-7,4 L-8,4 L-8,2 L-5,2 L-5,1 L0,1 Z " fill="#F7FBFC" transform="translate(162,186)"/>
<path d="M0,0 L2,0 L2,1 L5,1 L5,2 L4,2 L4,3 L5,3 L5,5 L4,5 L4,7 L0,7 L0,6 L1,6 L1,3 L0,3 L0,5 L-1,5 L-1,6 L-4,6 L-4,4 L-3,4 L-3,5 L-2,5 L-2,4 L-1,4 L-1,2 L0,2 Z " fill="#F6FAFC" transform="translate(540,171)"/>
<path d="M0,0 L3,0 L3,1 L4,1 L4,2 L3,2 L3,3 L1,3 L1,4 L-14,4 L-14,3 L0,3 L0,2 L-8,2 L-8,1 L0,1 Z " fill="#E0E8FB" transform="translate(329,183)"/>
<path d="M0,0 L2,0 L2,6 L3,6 L3,8 L0,8 L0,14 L-1,14 L-1,5 L-2,5 L-2,2 L0,2 Z " fill="#EEF2FC" transform="translate(354,167)"/>
<path d="M0,0 L14,0 L14,1 L7,1 L7,5 L6,5 L6,3 L5,3 L5,5 L4,5 L4,1 L3,1 L3,3 L2,3 L2,2 L-5,2 L-5,1 L0,1 Z " fill="#2D79F0" transform="translate(513,153)"/>
<path d="M0,0 L1,0 L1,2 L2,2 L2,3 L3,3 L3,8 L2,8 L2,7 L1,7 L1,8 L0,8 L0,9 L-1,9 L-1,7 L-2,7 L-2,4 L-3,4 L-3,2 L0,2 Z " fill="#F6F8FC" transform="translate(571,192)"/>
<path d="M0,0 L11,0 L11,1 L10,1 L10,2 L11,2 L11,3 L12,3 L12,5 L8,5 L8,4 L5,4 L5,3 L7,3 L7,2 L4,2 L4,1 L0,1 Z " fill="#F1F5FC" transform="translate(514,169)"/>
<path d="M0,0 L1,0 L1,3 L2,3 L2,5 L3,5 L3,6 L4,6 L4,7 L5,7 L5,8 L7,8 L7,9 L11,9 L11,10 L4,10 L4,9 L3,9 L3,8 L1,8 L1,6 L0,6 L0,4 L-1,4 L-1,1 L0,1 Z " fill="#0F0F0F" transform="translate(391,255)"/>
<path d="M0,0 L4,0 L4,1 L5,1 L5,2 L6,2 L6,3 L4,3 L4,4 L3,4 L3,6 L0,6 L0,5 L-1,5 L-1,4 L-2,4 L-2,2 L-1,2 L-1,1 L0,1 Z " fill="#EAEAEA" transform="translate(611,248)"/>
<path d="M0,0 L3,0 L3,1 L2,1 L2,2 L1,2 L1,3 L0,3 L0,4 L-1,4 L-1,5 L-2,5 L-2,6 L-3,6 L-3,12 L-4,12 L-4,7 L-5,7 L-5,8 L-6,8 L-6,6 L-5,6 L-5,4 L-4,4 L-4,3 L-3,3 L-3,2 L-2,2 L-2,1 L0,1 Z " fill="#373737" transform="translate(590,246)"/>
<path d="M0,0 L2,0 L2,1 L4,1 L4,2 L5,2 L5,4 L7,4 L7,6 L6,6 L6,8 L7,8 L7,9 L5,9 L5,7 L4,7 L4,8 L0,8 L0,7 L1,7 L1,6 L3,6 L3,4 L2,4 L2,2 L1,2 L1,1 L0,1 Z " fill="#F3F8FA" transform="translate(543,211)"/>
<path d="M0,0 L2,0 L2,4 L1,4 L1,5 L-1,5 L-1,6 L-11,6 L-11,5 L-2,5 L-2,4 L-9,4 L-9,3 L0,3 Z " fill="#545454" transform="translate(695,260)"/>
<path d="M0,0 L1,0 L1,3 L2,3 L2,4 L3,4 L3,5 L4,5 L4,6 L5,6 L5,7 L6,7 L6,8 L5,8 L5,9 L4,9 L4,8 L3,8 L3,7 L2,7 L2,11 L1,11 L1,10 L0,10 L0,9 L1,9 L1,7 L-1,7 L-1,6 L0,6 L0,5 L-1,5 L-1,2 L0,2 Z " fill="#0E66EE" transform="translate(339,203)"/>
<path d="M0,0 L4,0 L4,1 L6,1 L6,2 L8,2 L8,3 L9,3 L9,5 L10,5 L10,8 L8,8 L8,6 L7,6 L7,5 L6,5 L6,4 L5,4 L5,3 L4,3 L4,2 L-1,2 L-1,1 L0,1 Z " fill="#121212" transform="translate(593,246)"/>
<path d="M0,0 L6,0 L6,2 L4,2 L4,4 L2,4 L2,7 L1,7 L1,4 L-2,4 L-2,2 L-1,2 L-1,1 L0,1 Z " fill="#FDFEFE" transform="translate(86,171)"/>
<path d="M0,0 L1,0 L1,3 L2,3 L2,5 L3,5 L3,8 L1,8 L1,7 L0,7 L0,4 L-11,4 L-11,3 L-1,3 L-1,2 L0,2 Z " fill="#474747" transform="translate(557,258)"/>
<path d="M0,0 L2,0 L2,1 L4,1 L4,2 L6,2 L6,3 L7,3 L7,4 L8,4 L8,8 L7,8 L7,6 L6,6 L6,8 L5,8 L5,5 L4,5 L4,4 L3,4 L3,3 L-1,3 L-1,2 L1,2 L1,1 L0,1 Z " fill="#323232" transform="translate(612,254)"/>
<path d="M0,0 L2,0 L2,4 L3,4 L3,7 L2,7 L2,10 L1,10 L1,8 L0,8 L0,5 L-1,5 L-1,3 L-2,3 L-2,1 L0,1 Z " fill="#F5F9FC" transform="translate(286,208)"/>
<path d="M0,0 L2,0 L2,1 L3,1 L3,2 L5,2 L5,4 L6,4 L6,6 L5,6 L5,7 L7,7 L7,9 L6,9 L6,10 L5,10 L5,8 L4,8 L4,7 L3,7 L3,5 L2,5 L2,4 L1,4 L1,1 L0,1 Z " fill="#1369EE" transform="translate(552,203)"/>
<path d="M0,0 L11,0 L11,1 L7,1 L7,3 L-1,3 L-1,1 L0,1 Z " fill="#2070EF" transform="translate(582,153)"/>
<path d="M0,0 L3,0 L3,1 L6,1 L6,2 L9,2 L9,3 L8,3 L8,4 L6,4 L6,7 L5,7 L5,6 L4,6 L4,3 L1,3 L1,2 L0,2 Z " fill="#F8FAFE" transform="translate(571,223)"/>
<path d="M0,0 L1,0 L1,1 L3,1 L3,4 L4,4 L4,6 L3,6 L3,8 L2,8 L2,6 L1,6 L1,7 L0,7 L0,10 L-1,10 L-1,5 L0,5 Z " fill="#E1E9FB" transform="translate(500,182)"/>
<path d="M0,0 L6,0 L6,1 L8,1 L8,2 L10,2 L10,3 L11,3 L11,4 L7,4 L7,3 L6,3 L6,4 L3,4 L3,3 L1,3 L1,2 L4,2 L4,1 L0,1 Z " fill="#FDFEFC" transform="translate(588,170)"/>
<path d="M0,0 L1,0 L1,1 L2,1 L2,2 L3,2 L3,3 L2,3 L2,4 L1,4 L1,5 L0,5 L0,6 L-2,6 L-2,7 L-3,7 L-3,6 L-4,6 L-4,3 L-2,3 L-2,2 L-1,2 L-1,1 L0,1 Z " fill="#F6F9FD" transform="translate(535,200)"/>
<path d="M0,0 L2,0 L2,1 L7,1 L7,2 L6,2 L6,6 L5,6 L5,7 L4,7 L4,6 L3,6 L3,4 L2,4 L2,3 L1,3 L1,2 L0,2 Z " fill="#FBFDFC" transform="translate(687,161)"/>
<path d="M0,0 L1,0 L1,1 L2,1 L2,2 L3,2 L3,3 L1,3 L1,5 L-1,5 L-1,4 L-5,4 L-5,3 L-4,3 L-4,2 L-6,2 L-6,1 L0,1 Z " fill="#F1F5FC" transform="translate(598,224)"/>
<path d="M0,0 L2,0 L2,1 L5,1 L5,4 L6,4 L6,5 L7,5 L7,6 L0,6 L0,5 L2,5 L2,3 L1,3 L1,1 L0,1 Z " fill="#F6F9FC" transform="translate(360,216)"/>
<path d="M0,0 L7,0 L7,4 L3,4 L3,5 L2,5 L2,3 L3,3 L3,2 L0,2 Z " fill="#D5E3FB" transform="translate(315,200)"/>
<path d="M0,0 L2,0 L2,1 L1,1 L1,2 L0,2 L0,3 L-1,3 L-1,5 L-4,5 L-4,6 L-6,6 L-6,5 L-5,5 L-5,4 L-6,4 L-6,2 L-3,2 L-3,1 L0,1 Z " fill="#E2ECFB" transform="translate(533,223)"/>
<path d="M0,0 L1,0 L1,1 L2,1 L2,2 L3,2 L3,3 L5,3 L5,4 L6,4 L6,5 L8,5 L8,6 L4,6 L4,5 L-1,5 L-1,3 L0,3 Z " fill="#F9FDFB" transform="translate(559,215)"/>
<path d="M0,0 L1,0 L1,9 L3,9 L3,10 L4,10 L4,9 L6,9 L6,11 L2,11 L2,14 L1,14 L1,11 L0,11 Z " fill="#4C8AF1" transform="translate(481,185)"/>
<path d="M0,0 L1,0 L1,1 L3,1 L3,2 L4,2 L4,5 L2,5 L2,4 L0,4 L0,3 L-3,3 L-3,2 L-6,2 L-6,1 L0,1 Z " fill="#DEE9FB" transform="translate(536,153)"/>
<path d="M0,0 L2,0 L2,1 L3,1 L3,2 L2,2 L2,3 L1,3 L1,4 L-1,4 L-1,5 L-3,5 L-3,3 L-8,3 L-8,2 L-1,2 L-1,1 L0,1 Z " fill="#232323" transform="translate(529,254)"/>
<path d="M0,0 L8,0 L8,1 L10,1 L10,4 L9,4 L9,3 L7,3 L7,2 L0,2 Z " fill="#181818" transform="translate(378,246)"/>
<path d="M0,0 L4,0 L4,1 L3,1 L3,2 L5,2 L5,3 L7,3 L7,5 L8,5 L8,6 L9,6 L9,7 L7,7 L7,6 L6,6 L6,5 L4,5 L4,4 L3,4 L3,3 L1,3 L1,2 L0,2 Z " fill="#1A6DEE" transform="translate(561,215)"/>
<path d="M0,0 L3,0 L3,1 L4,1 L4,2 L3,2 L3,7 L1,7 L1,6 L2,6 L2,4 L-1,4 L-1,5 L-3,5 L-3,4 L-2,4 L-2,3 L-1,3 L-1,2 L0,2 Z " fill="#0C66ED" transform="translate(603,200)"/>
<path d="M0,0 L1,0 L1,1 L3,1 L3,2 L4,2 L4,3 L5,3 L5,4 L6,4 L6,5 L3,5 L3,7 L2,7 L2,6 L0,6 L0,5 L-1,5 L-1,4 L1,4 L1,2 L0,2 Z " fill="#156AEF" transform="translate(606,158)"/>
<path d="M0,0 L3,0 L3,2 L7,2 L7,5 L8,5 L8,7 L7,7 L7,6 L5,6 L5,5 L4,5 L4,4 L3,4 L3,3 L2,3 L2,2 L1,2 L1,1 L0,1 Z " fill="#166AED" transform="translate(328,217)"/>
<path d="M0,0 L1,0 L1,4 L0,4 L0,5 L1,5 L1,6 L2,6 L2,7 L1,7 L1,8 L-1,8 L-1,10 L-2,10 L-2,11 L-3,11 L-3,8 L-2,8 L-2,5 L-1,5 L-1,3 L0,3 Z " fill="#DBE6FA" transform="translate(251,180)"/>
<path d="M0,0 L1,0 L1,3 L2,3 L2,5 L3,5 L3,6 L0,6 L0,7 L-4,7 L-4,5 L-2,5 L-2,4 L-1,4 L-1,3 L0,3 Z " fill="#1069EF" transform="translate(334,181)"/>
<path d="M0,0 L1,0 L1,1 L3,1 L3,0 L4,0 L4,1 L5,1 L5,3 L4,3 L4,4 L3,4 L3,5 L2,5 L2,6 L1,6 L1,7 L0,7 L0,4 L1,4 L1,3 L0,3 Z " fill="#156CEF" transform="translate(570,171)"/>
<path d="M0,0 L2,0 L2,1 L1,1 L1,2 L2,2 L2,4 L1,4 L1,5 L0,5 L0,6 L-1,6 L-1,5 L-5,5 L-5,4 L-4,4 L-4,3 L-2,3 L-2,2 L-1,2 L-1,1 L0,1 Z " fill="#1169EE" transform="translate(565,159)"/>
<path d="M0,0 L1,0 L1,2 L3,2 L3,6 L2,6 L2,4 L1,4 L1,5 L0,5 L0,7 L-1,7 L-1,9 L-3,9 L-3,7 L-2,7 L-2,6 L-1,6 L-1,3 L0,3 Z " fill="#E8EFFB" transform="translate(622,200)"/>
<path d="M0,0 L1,0 L1,1 L2,1 L2,3 L3,3 L3,4 L4,4 L4,6 L1,6 L1,4 L-3,4 L-3,3 L-2,3 L-2,2 L-1,2 L-1,1 L0,1 Z " fill="#0E67EE" transform="translate(617,169)"/>
<path d="M0,0 L2,0 L2,1 L1,1 L1,2 L0,2 L0,3 L1,3 L1,4 L0,4 L0,5 L-2,5 L-2,6 L-3,6 L-3,7 L-4,7 L-4,6 L-6,6 L-6,5 L-5,5 L-5,4 L-3,4 L-3,3 L-2,3 L-2,2 L-1,2 L-1,1 L0,1 Z " fill="#1167EE" transform="translate(497,159)"/>
<path d="M0,0 L2,0 L2,2 L0,2 L0,3 L-2,3 L-2,5 L-4,5 L-4,4 L-7,4 L-7,3 L-6,3 L-6,2 L-3,2 L-3,1 L0,1 Z " fill="#196DF0" transform="translate(576,154)"/>
<path d="M0,0 L4,0 L4,1 L3,1 L3,2 L5,2 L5,3 L4,3 L4,4 L3,4 L3,5 L2,5 L2,6 L1,6 L1,4 L0,4 L0,3 L-1,3 L-1,2 L0,2 Z " fill="#F8FAFB" transform="translate(684,154)"/>
<path d="M0,0 L3,0 L3,2 L5,2 L5,4 L10,4 L10,5 L4,5 L4,4 L2,4 L2,3 L1,3 L1,2 L0,2 Z " fill="#2A2A2A" transform="translate(568,261)"/>
<path d="M0,0 L1,0 L1,1 L2,1 L2,2 L3,2 L3,4 L4,4 L4,5 L-1,5 L-1,3 L-2,3 L-2,1 L0,1 Z " fill="#F5FAFC" transform="translate(709,220)"/>
<path d="M0,0 L2,0 L2,1 L1,1 L1,2 L0,2 L0,3 L-1,3 L-1,4 L-2,4 L-2,5 L-1,5 L-1,6 L0,6 L0,7 L-1,7 L-1,9 L-2,9 L-2,6 L-3,6 L-3,4 L-4,4 L-4,2 L-2,2 L-2,1 L0,1 Z " fill="#E4EBFB" transform="translate(342,197)"/>
<path d="M0,0 L5,0 L5,1 L4,1 L4,5 L2,5 L2,4 L0,4 Z " fill="#0D66EF" transform="translate(242,193)"/>
<path d="M0,0 L3,0 L3,2 L4,2 L4,5 L1,5 L1,4 L0,4 L0,3 L-1,3 L-1,1 L0,1 Z " fill="#EAF0FC" transform="translate(85,185)"/>
<path d="M0,0 L1,0 L1,1 L2,1 L2,5 L3,5 L3,4 L4,4 L4,6 L3,6 L3,10 L2,10 L2,7 L1,7 L1,5 L0,5 L0,2 L-1,2 L-1,1 L0,1 Z " fill="#EFF4FC" transform="translate(267,163)"/>
<path d="M0,0 L2,0 L2,1 L3,1 L3,2 L5,2 L5,4 L9,4 L9,5 L3,5 L3,4 L2,4 L2,3 L1,3 L1,2 L0,2 Z " fill="#333333" transform="translate(433,261)"/>
<path d="M0,0 L2,0 L2,2 L3,2 L3,3 L4,3 L4,4 L5,4 L5,8 L4,8 L4,7 L3,7 L3,5 L2,5 L2,4 L1,4 L1,3 L0,3 Z " fill="#1C1C1C" transform="translate(418,251)"/>
<path d="M0,0 L1,0 L1,2 L2,2 L2,3 L3,3 L3,4 L4,4 L4,5 L5,5 L5,6 L1,6 L1,5 L0,5 L0,4 L-1,4 L-1,1 L0,1 Z " fill="#171717" transform="translate(608,250)"/>
<path d="M0,0 L2,0 L2,1 L3,1 L3,0 L6,0 L6,1 L7,1 L7,2 L6,2 L6,4 L4,4 L4,3 L3,3 L3,4 L2,4 L2,2 L1,2 L1,1 L0,1 Z " fill="#0060EB" transform="translate(281,219)"/>
<path d="M0,0 L1,0 L1,2 L2,2 L2,5 L3,5 L3,7 L4,7 L4,9 L3,9 L3,8 L0,8 L0,7 L1,7 L1,6 L0,6 Z " fill="#1B6DF0" transform="translate(282,206)"/>
<path d="M0,0 L1,0 L1,4 L2,4 L2,7 L3,7 L3,8 L2,8 L2,9 L1,9 L1,8 L0,8 L0,5 L-2,5 L-2,3 L0,3 Z " fill="#E1EAFB" transform="translate(322,204)"/>
<path d="M0,0 L2,0 L2,1 L1,1 L1,3 L0,3 L0,6 L-1,6 L-1,4 L-6,4 L-6,3 L-4,3 L-4,2 L-2,2 L-2,1 L0,1 Z " fill="#156BEE" transform="translate(505,155)"/>
<path d="M0,0 L3,0 L3,2 L5,2 L5,4 L4,4 L4,6 L2,6 L2,5 L1,5 L1,1 L0,1 Z " fill="#FEFDFD" transform="translate(539,154)"/>
<path d="M0,0 L1,0 L1,2 L0,2 L0,3 L-1,3 L-1,4 L-3,4 L-3,5 L-9,5 L-9,4 L-4,4 L-4,2 L-2,2 L-2,1 L0,1 Z " fill="#232323" transform="translate(463,261)"/>
<path d="M0,0 L1,0 L1,4 L0,4 L0,5 L-7,5 L-7,4 L-3,4 L-3,3 L-2,3 L-2,2 L-1,2 L-1,1 L0,1 Z " fill="#131313" transform="translate(580,260)"/>
<path d="M0,0 L1,0 L1,5 L2,5 L2,7 L3,7 L3,8 L0,8 L0,6 L-1,6 L-1,1 L0,1 Z " fill="#090909" transform="translate(585,253)"/>
<path d="M0,0 L1,0 L1,2 L2,2 L2,3 L1,3 L1,4 L-1,4 L-1,3 L-4,3 L-4,4 L-8,4 L-8,3 L-5,3 L-5,2 L-2,2 L-2,1 L0,1 Z " fill="#D8E5FA" transform="translate(358,222)"/>
<path d="M0,0 L1,0 L1,3 L0,3 L0,6 L-1,6 L-1,8 L-2,8 L-2,6 L-3,6 L-3,4 L-2,4 L-2,3 L-3,3 L-3,1 L-2,1 L-2,2 L0,2 Z " fill="#EEF5FC" transform="translate(221,213)"/>
<path d="M0,0 L1,0 L1,3 L2,3 L2,6 L3,6 L3,7 L4,7 L4,8 L2,8 L2,7 L1,7 L1,6 L0,6 L0,5 L-2,5 L-2,4 L-1,4 L-1,2 L0,2 Z " fill="#E1EAFB" transform="translate(483,201)"/>
<path d="M0,0 L3,0 L3,1 L4,1 L4,3 L5,3 L5,4 L6,4 L6,5 L4,5 L4,4 L1,4 L1,3 L0,3 Z " fill="#0F69ED" transform="translate(694,175)"/>
<path d="M0,0 L7,0 L7,1 L4,1 L4,2 L2,2 L2,3 L1,3 L1,4 L0,4 L0,3 L-1,3 L-1,2 L-2,2 L-2,1 L0,1 Z " fill="#0965ED" transform="translate(575,169)"/>
<path d="M0,0 L1,0 L1,1 L3,1 L3,2 L2,2 L2,3 L1,3 L1,4 L3,4 L3,5 L1,5 L1,6 L0,6 L0,4 L-1,4 L-1,3 L-2,3 L-2,2 L-3,2 L-3,1 L0,1 Z " fill="#F1F5FC" transform="translate(350,160)"/>
<path d="M0,0 L2,0 L2,5 L1,5 L1,6 L-1,6 L-1,5 L0,5 L0,3 L-2,3 L-2,2 L-3,2 L-3,1 L0,1 Z " fill="#EBF1FB" transform="translate(546,159)"/>
<path d="M0,0 L1,0 L1,1 L3,1 L3,2 L2,2 L2,3 L0,3 L0,4 L-2,4 L-2,5 L-3,5 L-3,6 L-4,6 L-4,3 L-2,3 L-2,1 L0,1 Z " fill="#ECF2FC" transform="translate(567,155)"/>
<path d="M0,0 L1,0 L1,4 L0,4 L0,5 L-7,5 L-7,4 L-3,4 L-3,3 L-2,3 L-2,2 L0,2 Z " fill="#101010" transform="translate(618,260)"/>
<path d="M0,0 L3,0 L3,1 L4,1 L4,3 L5,3 L5,6 L4,6 L4,4 L3,4 L3,5 L2,5 L2,3 L1,3 L1,2 L0,2 Z " fill="#2B2B2B" transform="translate(577,256)"/>
<path d="M0,0 L3,0 L3,1 L4,1 L4,2 L5,2 L5,3 L6,3 L6,5 L4,5 L4,4 L3,4 L3,3 L2,3 L2,2 L-1,2 L-1,1 L0,1 Z " fill="#141414" transform="translate(575,246)"/>
<path d="M0,0 L1,0 L1,1 L2,1 L2,3 L3,3 L3,4 L4,4 L4,5 L2,5 L2,6 L1,6 L1,5 L-1,5 L-1,2 L0,2 Z " fill="#F1F4FC" transform="translate(700,207)"/>
<path d="M0,0 L1,0 L1,2 L2,2 L2,3 L3,3 L3,4 L-4,4 L-4,3 L-2,3 L-2,2 L-4,2 L-4,1 L-1,1 L-1,2 L0,2 Z " fill="#DDE6FB" transform="translate(349,207)"/>
<path d="M0,0 L2,0 L2,2 L1,2 L1,4 L0,4 L0,6 L-1,6 L-1,7 L-2,7 L-2,5 L-3,5 L-3,3 L-1,3 L-1,2 L0,2 Z " fill="#EDF3FD" transform="translate(603,196)"/>
<path d="M0,0 L2,0 L2,1 L3,1 L3,5 L4,5 L4,6 L3,6 L3,8 L2,8 L2,9 L1,9 L1,8 L0,8 L0,7 L1,7 L1,6 L2,6 L2,2 L0,2 Z " fill="#0563EB" transform="translate(536,167)"/>
<path d="M0,0 L2,0 L2,1 L7,1 L7,2 L1,2 L1,3 L-2,3 L-2,4 L-3,4 L-3,3 L-4,3 L-4,2 L-1,2 L-1,1 L0,1 Z " fill="#E3EBFB" transform="translate(575,152)"/>
<path d="M0,0 L1,0 L1,4 L0,4 L0,6 L-4,6 L-4,5 L-2,5 L-2,1 L-1,1 L-1,2 L0,2 Z " fill="#2D2D2D" transform="translate(696,249)"/>
<path d="M0,0 L1,0 L1,1 L2,1 L2,3 L0,3 L0,4 L1,4 L1,6 L-1,6 L-1,4 L-2,4 L-2,1 L0,1 Z " fill="#0D66EF" transform="translate(571,217)"/>
<path d="M0,0 L1,0 L1,1 L2,1 L2,5 L1,5 L1,7 L0,7 L0,4 L-2,4 L-2,3 L-1,3 L-1,1 L0,1 Z " fill="#F3F7FB" transform="translate(349,191)"/>
<path d="M0,0 L2,0 L2,1 L4,1 L4,2 L2,2 L2,4 L1,4 L1,5 L0,5 L0,3 L-3,3 L-3,2 L-1,2 L-1,1 L0,1 Z " fill="#EBF2FB" transform="translate(511,170)"/>
<path d="M0,0 L1,0 L1,1 L2,1 L2,2 L4,2 L4,4 L3,4 L3,6 L2,6 L2,5 L-1,5 L-1,4 L0,4 L0,3 L1,3 L1,2 L0,2 Z " fill="#1368EE" transform="translate(542,160)"/>
<path d="M0,0 L1,0 L1,1 L2,1 L2,2 L3,2 L3,6 L1,6 L1,5 L-1,5 L-1,6 L-2,6 L-2,4 L1,4 L1,2 L0,2 Z " fill="#0C62EF" transform="translate(93,152)"/>
<path d="M0,0 L2,0 L2,3 L1,3 L1,5 L0,5 L0,8 L-1,8 L-1,1 L0,1 Z " fill="#EBF2FC" transform="translate(243,154)"/>
<path d="M0,0 L2,0 L2,1 L3,1 L3,2 L4,2 L4,3 L8,3 L8,4 L2,4 L2,3 L1,3 L1,2 L0,2 Z " fill="#030303" transform="translate(451,261)"/>
<path d="M0,0 L1,0 L1,7 L0,7 L0,5 L-1,5 L-1,6 L-2,6 L-2,2 L0,2 Z " fill="#404040" transform="translate(603,252)"/>
<path d="M0,0 L1,0 L1,1 L2,1 L2,0 L3,0 L3,2 L4,2 L4,3 L3,3 L3,4 L-1,4 L-1,3 L0,3 L0,2 L-1,2 L-1,1 L0,1 Z " fill="#F1F6FC" transform="translate(268,223)"/>
<path d="M0,0 L4,0 L4,2 L3,2 L3,3 L0,3 L0,4 L-2,4 L-2,3 L-1,3 L-1,2 L0,2 Z " fill="#F4F7FD" transform="translate(618,209)"/>
<path d="M0,0 L4,0 L4,3 L3,3 L3,5 L2,5 L2,4 L1,4 L1,2 L0,2 Z " fill="#F0F5FB" transform="translate(501,197)"/>
<path d="M0,0 L2,0 L2,1 L3,1 L3,4 L-1,4 L-1,1 L0,1 Z " fill="#0F68EE" transform="translate(90,191)"/>
<path d="M0,0 L1,0 L1,3 L2,3 L2,5 L-1,5 L-1,4 L-2,4 L-2,1 L0,1 Z " fill="#EAF2FB" transform="translate(258,187)"/>
<path d="M0,0 L1,0 L1,2 L2,2 L2,3 L4,3 L4,6 L2,6 L2,7 L1,7 L1,3 L0,3 Z " fill="#0060EB" transform="translate(237,176)"/>
<path d="M0,0 L2,0 L2,1 L4,1 L4,0 L5,0 L5,2 L4,2 L4,5 L3,5 L3,4 L2,4 L2,3 L1,3 L1,2 L0,2 Z " fill="#EAF0FB" transform="translate(612,161)"/>
<path d="M0,0 L1,0 L1,1 L3,1 L3,5 L1,5 L1,4 L0,4 L0,2 L-1,2 L-1,1 L0,1 Z " fill="#0F0F0F" transform="translate(667,260)"/>
<path d="M0,0 L4,0 L4,1 L3,1 L3,2 L2,2 L2,5 L0,5 Z " fill="#FEFEFE" transform="translate(521,249)"/>
<path d="M0,0 L4,0 L4,1 L2,1 L2,2 L1,2 L1,4 L0,4 L0,3 L-1,3 L-1,5 L-2,5 L-2,2 L-1,2 L-1,1 L0,1 Z " fill="#DBDBDB" transform="translate(438,248)"/>
<path d="M0,0 L2,0 L2,1 L4,1 L4,2 L5,2 L5,4 L4,4 L4,6 L3,6 L3,4 L2,4 L2,2 L1,2 L1,1 L0,1 Z " fill="#ECF2F9" transform="translate(543,211)"/>
<path d="M0,0 L1,0 L1,1 L2,1 L2,3 L3,3 L3,4 L4,4 L4,5 L1,5 L1,3 L-2,3 L-2,2 L-1,2 L-1,1 L0,1 Z " fill="#2975EE" transform="translate(537,203)"/>
<path d="M0,0 L2,0 L2,1 L5,1 L5,3 L4,3 L4,4 L2,4 L2,3 L1,3 L1,2 L0,2 Z " fill="#EEF4FC" transform="translate(507,204)"/>
<path d="M0,0 L1,0 L1,4 L2,4 L2,6 L-1,6 L-1,7 L-2,7 L-2,5 L-1,5 L-1,3 L0,3 Z " fill="#2A76F0" transform="translate(227,200)"/>
<path d="M0,0 L1,0 L1,2 L2,2 L2,5 L3,5 L3,7 L2,7 L2,6 L1,6 L1,5 L0,5 L0,3 L-1,3 L-1,1 L0,1 Z " fill="#DEE8FB" transform="translate(550,199)"/>
<path d="M0,0 L3,0 L3,1 L6,1 L6,2 L4,2 L4,3 L1,3 L1,2 L0,2 Z " fill="#D4E3FB" transform="translate(571,223)"/>
<path d="M0,0 L1,0 L1,4 L0,4 L0,6 L1,6 L1,7 L0,7 L0,8 L-1,8 L-1,7 L-2,7 L-2,5 L-1,5 L-1,3 L0,3 Z " fill="#EEF3FB" transform="translate(238,220)"/>
<path d="M0,0 L2,0 L2,1 L3,1 L3,2 L2,2 L2,4 L-1,4 L-1,1 L0,1 Z " fill="#0C66ED" transform="translate(220,220)"/>
<path d="M0,0 L3,0 L3,5 L1,5 L1,2 L0,2 Z " fill="#0965EF" transform="translate(621,183)"/>
<path d="M0,0 L1,0 L1,2 L2,2 L2,3 L1,3 L1,4 L0,4 L0,5 L1,5 L1,6 L0,6 L0,7 L-2,7 L-2,5 L-1,5 L-1,3 L0,3 Z " fill="#1F71EE" transform="translate(236,177)"/>
<path d="M0,0 L1,0 L1,1 L3,1 L3,2 L5,2 L5,3 L6,3 L6,4 L2,4 L2,3 L1,3 L1,2 L0,2 Z " fill="#E9F0FC" transform="translate(593,170)"/>
<path d="M0,0 L1,0 L1,1 L2,1 L2,3 L3,3 L3,4 L4,4 L4,5 L0,5 Z " fill="#1D6FF0" transform="translate(691,168)"/>
<path d="M0,0 L1,0 L1,4 L2,4 L2,5 L-1,5 L-1,4 L-2,4 L-2,2 L-1,2 L-1,1 L0,1 Z " fill="#136AEE" transform="translate(351,168)"/>
<path d="M0,0 L4,0 L4,2 L1,2 L1,3 L0,3 L0,4 L-1,4 L-1,1 L0,1 Z " fill="#0E66EE" transform="translate(510,168)"/>
<path d="M0,0 L1,0 L1,2 L2,2 L2,3 L3,3 L3,4 L4,4 L4,5 L3,5 L3,6 L2,6 L2,4 L0,4 L0,3 L-1,3 L-1,1 L0,1 Z " fill="#166BEC" transform="translate(686,161)"/>
<path d="M0,0 L3,0 L3,1 L4,1 L4,4 L3,4 L3,3 L1,3 L1,2 L0,2 Z " fill="#202020" transform="translate(586,261)"/>
<path d="M0,0 L2,0 L2,1 L4,1 L4,2 L3,2 L3,4 L2,4 L2,3 L-1,3 L-1,2 L0,2 Z " fill="#414141" transform="translate(439,254)"/>
<path d="M0,0 L2,0 L2,1 L3,1 L3,2 L2,2 L2,3 L1,3 L1,4 L-1,4 L-1,1 L0,1 Z " fill="#2B2B2B" transform="translate(529,254)"/>
<path d="M0,0 L1,0 L1,2 L4,2 L4,3 L0,3 L0,4 L-1,4 L-1,3 L-3,3 L-3,2 L-1,2 L-1,1 L0,1 Z " fill="#EDF3FD" transform="translate(608,219)"/>
<path d="M0,0 L1,0 L1,2 L2,2 L2,4 L0,4 L0,5 L-3,5 L-3,4 L-1,4 L-1,2 L0,2 Z " fill="#2671F0" transform="translate(360,217)"/>
<path d="M0,0 L2,0 L2,2 L1,2 L1,5 L0,5 L0,4 L-1,4 L-1,2 L-2,2 L-2,1 L0,1 Z " fill="#1068EE" transform="translate(237,218)"/>
<path d="M0,0 L1,0 L1,3 L0,3 L0,4 L-2,4 L-2,3 L-3,3 L-3,1 L0,1 Z " fill="#0966ED" transform="translate(610,215)"/>
<path d="M0,0 L1,0 L1,1 L2,1 L2,3 L3,3 L3,4 L4,4 L4,5 L1,5 L1,4 L0,4 Z " fill="#ECF2FE" transform="translate(553,207)"/>
<path d="M0,0 L2,0 L2,3 L1,3 L1,6 L0,6 L0,4 L-1,4 L-1,3 L0,3 L0,2 L-1,2 L-1,1 L0,1 Z " fill="#F6F9FB" transform="translate(333,178)"/>
<path d="M0,0 L1,0 L1,3 L2,3 L2,4 L1,4 L1,5 L2,5 L2,7 L1,7 L1,6 L0,6 L0,4 L-1,4 L-1,2 L0,2 Z " fill="#2071F1" transform="translate(238,172)"/>
<path d="M0,0 L2,0 L2,1 L3,1 L3,2 L4,2 L4,3 L3,3 L3,6 L2,6 L2,3 L1,3 L1,2 L0,2 Z " fill="#E6EFFB" transform="translate(619,170)"/>
<path d="M0,0 L1,0 L1,1 L2,1 L2,3 L1,3 L1,6 L0,6 L0,4 L-1,4 L-1,1 L0,1 Z " fill="#1368EC" transform="translate(180,111)"/>
<path d="M0,0 L1,0 L1,1 L2,1 L2,2 L3,2 L3,3 L4,3 L4,4 L2,4 L2,5 L1,5 L1,3 L0,3 Z " fill="#EEEEEE" transform="translate(417,253)"/>
<path d="M0,0 L2,0 L2,1 L3,1 L3,2 L4,2 L4,4 L2,4 L2,3 L1,3 L1,2 L0,2 Z " fill="#151515" transform="translate(615,247)"/>
<path d="M0,0 L2,0 L2,1 L1,1 L1,2 L2,2 L2,3 L1,3 L1,4 L0,4 L0,3 L-1,3 L-1,4 L-2,4 L-2,2 L-1,2 L-1,1 L0,1 Z " fill="#353535" transform="translate(436,246)"/>
<path d="M0,0 L2,0 L2,2 L1,2 L1,3 L0,3 L0,4 L-2,4 L-2,2 L-1,2 L-1,1 L0,1 Z " fill="#2D2D2D" transform="translate(539,241)"/>
<path d="M0,0 L2,0 L2,1 L4,1 L4,2 L3,2 L3,3 L1,3 L1,4 L0,4 Z " fill="#1369EE" transform="translate(539,217)"/>
<path d="M0,0 L2,0 L2,1 L4,1 L4,2 L3,2 L3,3 L2,3 L2,4 L1,4 L1,3 L0,3 Z " fill="#F1F6FC" transform="translate(491,216)"/>
<path d="M0,0 L1,0 L1,2 L2,2 L2,3 L3,3 L3,4 L1,4 L1,5 L0,5 L0,4 L-1,4 L-1,2 L0,2 Z " fill="#E4EFFC" transform="translate(325,213)"/>
<path d="M0,0 L1,0 L1,2 L2,2 L2,3 L1,3 L1,4 L-1,4 L-1,5 L-2,5 L-2,3 L-1,3 L-1,1 L0,1 Z " fill="#EFF6FC" transform="translate(345,195)"/>
<path d="M0,0 L3,0 L3,2 L2,2 L2,3 L1,3 L1,4 L-1,4 L-1,3 L0,3 Z " fill="#0F68EE" transform="translate(233,185)"/>
<path d="M0,0 L1,0 L1,1 L2,1 L2,2 L4,2 L4,3 L3,3 L3,4 L1,4 L1,3 L0,3 L0,2 L-1,2 L-1,1 L0,1 Z " fill="#EDF2FA" transform="translate(701,179)"/>
<path d="M0,0 L2,0 L2,1 L7,1 L7,2 L2,2 L2,3 L1,3 L1,2 L0,2 Z " fill="#EFF4FB" transform="translate(687,161)"/>
<path d="M0,0 L2,0 L2,1 L3,1 L3,2 L5,2 L5,3 L1,3 L1,2 L0,2 Z " fill="#EAF0FC" transform="translate(562,218)"/>
<path d="M0,0 L2,0 L2,2 L3,2 L3,4 L1,4 L1,3 L0,3 Z " fill="#2172ED" transform="translate(269,219)"/>
<path d="M0,0 L1,0 L1,2 L2,2 L2,3 L3,3 L3,4 L2,4 L2,5 L0,5 Z " fill="#EAF2FB" transform="translate(706,215)"/>
<path d="M0,0 L2,0 L2,1 L4,1 L4,2 L5,2 L5,3 L4,3 L4,4 L3,4 L3,3 L2,3 L2,2 L1,2 L1,1 L0,1 Z " fill="#2873EE" transform="translate(490,213)"/>
<path d="M0,0 L2,0 L2,3 L-1,3 L-1,2 L-2,2 L-2,1 L0,1 Z " fill="#DCE7FC" transform="translate(87,187)"/>
<path d="M0,0 L1,0 L1,2 L2,2 L2,3 L0,3 L0,4 L-2,4 L-2,2 L-1,2 L-1,1 L0,1 Z " fill="#E4ECFA" transform="translate(86,171)"/>
<path d="M0,0 L3,0 L3,3 L1,3 L1,2 L-1,2 L-1,1 L0,1 Z " fill="#1A6CEE" transform="translate(532,170)"/>
<path d="M0,0 L1,0 L1,1 L2,1 L2,0 L3,0 L3,1 L4,1 L4,2 L5,2 L5,3 L2,3 L2,2 L0,2 Z " fill="#0865EE" transform="translate(612,165)"/>
<path d="M0,0 L3,0 L3,3 L1,3 L1,2 L0,2 Z " fill="#252525" transform="translate(664,258)"/>
<path d="M0,0 L2,0 L2,1 L3,1 L3,2 L4,2 L4,3 L1,3 L1,2 L0,2 Z " fill="#080808" transform="translate(442,256)"/>
<path d="M0,0 L1,0 L1,1 L2,1 L2,3 L3,3 L3,4 L1,4 L1,3 L0,3 L0,2 L-1,2 L-1,1 L0,1 Z " fill="#2672EF" transform="translate(355,208)"/>
<path d="M0,0 L2,0 L2,1 L3,1 L3,4 L2,4 L2,3 L1,3 L1,2 L0,2 Z " fill="#DFE9FB" transform="translate(226,195)"/>
<path d="M0,0 L2,0 L2,2 L3,2 L3,3 L2,3 L2,4 L1,4 L1,3 L0,3 Z " fill="#0F68ED" transform="translate(692,193)"/>
<path d="M0,0 L1,0 L1,1 L2,1 L2,3 L1,3 L1,5 L0,5 L0,2 L-1,2 L-1,1 L0,1 Z " fill="#E6EDFA" transform="translate(267,163)"/>
<path d="M0,0 L1,0 L1,1 L2,1 L2,4 L0,4 L0,3 L-1,3 L-1,2 L0,2 Z " fill="#E4EDFB" transform="translate(154,127)"/>
<path d="M0,0 L3,0 L3,2 L2,2 L2,3 L1,3 L1,2 L0,2 Z " fill="#1F6FED" transform="translate(704,211)"/>
<path d="M0,0 L1,0 L1,1 L2,1 L2,2 L3,2 L3,3 L2,3 L2,4 L1,4 L1,3 L0,3 Z " fill="#1F6FEF" transform="translate(342,208)"/>
<path d="M0,0 L3,0 L3,2 L2,2 L2,3 L1,3 L1,2 L0,2 Z " fill="#F1F4FD" transform="translate(698,176)"/>
<path d="M0,0 L2,0 L2,1 L4,1 L4,2 L2,2 L2,3 L1,3 L1,2 L0,2 Z " fill="#E2EBFC" transform="translate(617,167)"/>
<path d="M0,0 L3,0 L3,2 L2,2 L2,3 L1,3 L1,2 L0,2 Z " fill="#EDF4FC" transform="translate(690,165)"/>
<path d="M0,0 L2,0 L2,3 L0,3 L0,2 L-1,2 L-1,1 L0,1 Z " fill="#E3EAFC" transform="translate(541,157)"/>
<path d="M0,0 L2,0 L2,1 L3,1 L3,2 L2,2 L2,3 L1,3 L1,2 L0,2 Z " fill="#090909" transform="translate(433,261)"/>
<path d="M0,0 L2,0 L2,1 L3,1 L3,2 L2,2 L2,3 L1,3 L1,2 L0,2 Z " fill="#F7FBFD" transform="translate(489,214)"/>
<path d="M0,0 L2,0 L2,1 L3,1 L3,2 L2,2 L2,3 L1,3 L1,2 L0,2 Z " fill="#DBE6FC" transform="translate(338,199)"/>
<path d="M0,0 L2,0 L2,2 L1,2 L1,3 L0,3 L0,2 L-1,2 L-1,1 L0,1 Z " fill="#3678F0" transform="translate(537,173)"/>
<path d="M0,0 L1,0 L1,1 L2,1 L2,2 L1,2 L1,3 L0,3 L0,2 L-1,2 L-1,1 L0,1 Z " fill="#E0EAFB" transform="translate(331,183)"/>
</svg>
