<?xml version="1.0" encoding="utf-8"?>
<!-- Generator: Adobe Illustrator 25.0.0, SVG Export Plug-In . SVG Version: 6.00 Build 0)  -->
<svg version="1.1" id="Capa_1" xmlns="http://www.w3.org/2000/svg" xmlns:xlink="http://www.w3.org/1999/xlink" x="0px" y="0px"
	 viewBox="0 0 217.38 115.21" style="enable-background:new 0 0 217.38 115.21;" xml:space="preserve">
<style type="text/css">
	.st0{fill:#25303C;}
	.st1{fill-rule:evenodd;clip-rule:evenodd;fill:url(#SVGID_1_);}
	.st2{fill:#FFFFFF;}
</style>
<g id="Capa_x0020_1_59_">
	<g id="_2386088355376_24_">
		<path class="st0" d="M29.65,35.07c-0.89,0-1.64-0.3-2.25-0.91c-0.62-0.62-0.92-1.35-0.92-2.19c0-0.88,0.3-1.63,0.92-2.25
			c0.61-0.61,1.36-0.91,2.25-0.91c0.84,0,1.57,0.3,2.18,0.91c0.62,0.62,0.92,1.37,0.92,2.25c0,0.84-0.3,1.57-0.92,2.19
			C31.23,34.76,30.5,35.07,29.65,35.07z M27.62,74.22V43.13h4.06v31.09H27.62z"/>
		<path id="_x31__101_" class="st0" d="M43.42,48.97h0.25c0.51-0.93,1.12-1.81,1.84-2.63c0.72-0.83,1.55-1.56,2.51-2.19
			c0.94-0.64,2-1.13,3.14-1.49c1.15-0.36,2.37-0.54,3.68-0.54c1.91,0,3.57,0.3,5.02,0.92c1.44,0.61,2.63,1.47,3.58,2.6
			c0.95,1.12,1.67,2.45,2.13,3.99c0.46,1.55,0.69,3.25,0.69,5.12v19.47H62.2V55.43c0-3.34-0.74-5.78-2.21-7.32
			c-1.48-1.55-3.55-2.33-6.22-2.33c-1.48,0-2.83,0.34-4.06,0.98c-1.23,0.66-2.28,1.54-3.17,2.67c-0.89,1.12-1.58,2.4-2.09,3.84
			c-0.51,1.43-0.76,2.93-0.76,4.5v16.44h-4.06V43.13h3.81V48.97z"/>
		<path id="_x32__85_" class="st0" d="M98.3,68.77h-0.25c-0.51,0.84-1.12,1.66-1.84,2.44c-0.72,0.78-1.56,1.47-2.54,2.06
			c-0.97,0.6-2.07,1.07-3.3,1.43c-1.23,0.36-2.58,0.54-4.06,0.54c-1.99,0-3.87-0.42-5.65-1.24s-3.33-1.97-4.67-3.42
			c-1.33-1.46-2.39-3.21-3.17-5.24c-0.78-2.03-1.18-4.25-1.18-6.66c0-2.42,0.4-4.63,1.18-6.66c0.78-2.03,1.84-3.78,3.17-5.24
			c1.34-1.45,2.89-2.6,4.67-3.42s3.66-1.24,5.65-1.24c2.96,0,5.41,0.63,7.36,1.9c1.94,1.27,3.4,2.77,4.38,4.51h0.25l-0.25-4.32
			V28.79h4.06v45.43H98.3V68.77z M87.01,71.55c1.47,0,2.9-0.28,4.27-0.85c1.38-0.57,2.59-1.41,3.62-2.54
			c1.04-1.12,1.86-2.48,2.47-4.06c0.62-1.58,0.92-3.39,0.92-5.42s-0.3-3.85-0.92-5.45c-0.61-1.61-1.43-2.96-2.47-4.06
			c-1.04-1.11-2.24-1.94-3.62-2.51c-1.37-0.57-2.8-0.86-4.27-0.86c-1.48,0-2.91,0.3-4.28,0.89c-1.38,0.59-2.58,1.45-3.61,2.57
			c-1.04,1.12-1.87,2.48-2.48,4.06s-0.92,3.37-0.92,5.36s0.31,3.79,0.92,5.39c0.61,1.6,1.44,2.96,2.48,4.06s2.23,1.95,3.61,2.54
			C84.1,71.25,85.53,71.55,87.01,71.55z"/>
		<path id="_x33__85_" class="st0" d="M112.07,35.07c-0.88,0-1.63-0.3-2.25-0.91c-0.61-0.62-0.91-1.35-0.91-2.19
			c0-0.88,0.3-1.63,0.91-2.25c0.62-0.61,1.37-0.91,2.25-0.91c0.84,0,1.57,0.3,2.19,0.91c0.61,0.62,0.91,1.37,0.91,2.25
			c0,0.84-0.3,1.57-0.91,2.19C113.64,34.76,112.91,35.07,112.07,35.07z M110.04,74.22V43.13h4.06v31.09H110.04z"/>
		<polygon id="_x34__44_" class="st0" points="118.54,43.13 122.85,43.13 133.45,69.65 133.58,69.65 144.24,43.13 148.49,43.13 
			135.68,74.22 131.23,74.22 		"/>
		<g>
			<path id="_x35__44_" class="st0" d="M27.33,34.22l0.14-0.14l0,0l0.05,0.05l0.06,0.05l0.06,0.05l0.05,0.05l0.06,0.05l0.06,0.05
				l0.06,0.04l0.06,0.04L28,34.51l0.07,0.04l0.06,0.04l0.06,0.03l0.07,0.04l0.06,0.03l0.07,0.03l0.06,0.03l0.07,0.02l0.07,0.03
				l0.07,0.02l0.07,0.02l0.07,0.02l0.07,0.02l0.07,0.02l0.07,0.01l0.08,0.01l0.07,0.01l0.08,0.01l0.07,0.01l0.08,0.01h0.08h0.08
				h0.08v0.2h-0.09h-0.08l-0.08-0.01h-0.08l-0.08-0.01l-0.08-0.01l-0.08-0.01l-0.08-0.02l-0.08-0.01l-0.08-0.02l-0.07-0.02
				l-0.08-0.02l-0.07-0.02l-0.08-0.03l-0.07-0.02l-0.07-0.03l-0.07-0.03l-0.07-0.03l-0.07-0.04L28.1,34.8l-0.07-0.04l-0.07-0.04
				l-0.06-0.04l-0.07-0.04l-0.06-0.05l-0.07-0.05l-0.06-0.04l-0.06-0.05l-0.06-0.06l-0.06-0.05l-0.06-0.06L27.33,34.22L27.33,34.22z
				 M26.37,31.96h0.2l0,0v0.08v0.07l0.01,0.08v0.07l0.01,0.07l0.01,0.07l0.01,0.08l0.02,0.07l0.01,0.07l0.02,0.07l0.01,0.06
				l0.02,0.07l0.03,0.07l0.02,0.07l0.02,0.06l0.03,0.07l0.03,0.06l0.03,0.07l0.03,0.06l0.03,0.06l0.04,0.06l0.03,0.07l0.04,0.06
				l0.04,0.06l0.05,0.06l0.04,0.06l0.04,0.05l0.05,0.06l0.05,0.06l0.05,0.06l0.05,0.05l0.06,0.06l-0.14,0.14l-0.06-0.06l-0.05-0.06
				l-0.06-0.06l-0.05-0.06l-0.05-0.06L27,33.86l-0.04-0.07l-0.05-0.06l-0.04-0.07l-0.04-0.06l-0.04-0.07l-0.04-0.06l-0.04-0.07
				l-0.03-0.07l-0.03-0.07l-0.03-0.07l-0.03-0.07l-0.03-0.07l-0.02-0.07l-0.02-0.07l-0.03-0.07l-0.02-0.08l-0.01-0.07l-0.02-0.08
				l-0.01-0.07l-0.01-0.08l-0.01-0.07l-0.01-0.08l-0.01-0.08v-0.08l-0.01-0.08V31.96L26.37,31.96z M27.33,29.63l0.14,0.14l0,0
				l-0.06,0.06l-0.05,0.05l-0.05,0.06l-0.05,0.06l-0.05,0.06l-0.04,0.06l-0.04,0.06l-0.05,0.06l-0.04,0.06l-0.04,0.06l-0.03,0.06
				l-0.04,0.07l-0.03,0.06l-0.03,0.07l-0.03,0.06l-0.03,0.07l-0.03,0.07l-0.02,0.06l-0.02,0.07l-0.03,0.07l-0.02,0.07l-0.01,0.07
				l-0.02,0.08l-0.01,0.07l-0.02,0.07l-0.01,0.08l-0.01,0.07l-0.01,0.08v0.08l-0.01,0.07v0.08v0.08h-0.2v-0.08l0.01-0.09V31.7
				l0.01-0.08l0.01-0.08l0.01-0.08l0.01-0.08l0.01-0.08l0.02-0.07l0.01-0.08l0.02-0.08l0.02-0.07l0.03-0.08l0.02-0.07l0.03-0.07
				l0.03-0.08l0.03-0.07l0.03-0.07l0.03-0.07l0.04-0.07l0.04-0.06l0.04-0.07l0.04-0.07l0.04-0.06l0.04-0.07L27,30.01l0.05-0.06
				l0.05-0.07l0.05-0.06l0.06-0.06l0.05-0.06L27.33,29.63L27.33,29.63z M29.65,28.69v0.2l0,0h-0.08h-0.08h-0.08l-0.08,0.01
				l-0.07,0.01l-0.08,0.01l-0.07,0.01l-0.08,0.01l-0.07,0.02l-0.07,0.01l-0.07,0.02l-0.07,0.02l-0.07,0.02l-0.07,0.02l-0.07,0.03
				l-0.07,0.02l-0.06,0.03l-0.07,0.03l-0.06,0.03l-0.07,0.04l-0.06,0.03l-0.06,0.04L28,29.35l-0.06,0.04l-0.06,0.04l-0.06,0.04
				l-0.06,0.05l-0.06,0.05l-0.05,0.05l-0.06,0.05l-0.06,0.05l-0.05,0.05l-0.14-0.14l0.06-0.05l0.06-0.06l0.06-0.05l0.06-0.06
				l0.06-0.05l0.06-0.04l0.07-0.05l0.06-0.04l0.07-0.05l0.06-0.04l0.07-0.04l0.07-0.04l0.07-0.03l0.07-0.04l0.07-0.03l0.07-0.03
				l0.07-0.03l0.07-0.02l0.08-0.03l0.07-0.02l0.08-0.02l0.07-0.02l0.08-0.02l0.08-0.01l0.08-0.02l0.08-0.01l0.08-0.01l0.08-0.01
				h0.08l0.08-0.01h0.08H29.65L29.65,28.69z M31.91,29.63l-0.14,0.14l0,0l-0.05-0.05l-0.06-0.05l-0.06-0.05l-0.05-0.05l-0.06-0.05
				l-0.06-0.05l-0.06-0.04l-0.06-0.04l-0.06-0.04l-0.06-0.04l-0.06-0.04l-0.06-0.03l-0.07-0.04l-0.06-0.03l-0.06-0.03l-0.07-0.03
				l-0.06-0.02l-0.07-0.03l-0.07-0.02l-0.06-0.02l-0.07-0.02l-0.07-0.02l-0.07-0.01l-0.07-0.02l-0.07-0.01l-0.07-0.01l-0.07-0.01
				l-0.08-0.01l-0.07-0.01h-0.07h-0.08h-0.07v-0.2h0.08h0.08l0.07,0.01h0.08l0.08,0.01l0.08,0.01l0.07,0.01l0.08,0.02l0.07,0.01
				l0.08,0.02l0.07,0.02l0.07,0.02l0.08,0.02l0.07,0.03l0.07,0.02l0.07,0.03l0.07,0.03l0.07,0.03l0.06,0.04l0.07,0.03l0.07,0.04
				l0.06,0.04l0.07,0.04l0.06,0.05l0.07,0.04l0.06,0.05l0.06,0.05l0.06,0.05l0.06,0.05l0.06,0.05l0.06,0.06L31.91,29.63L31.91,29.63
				z M32.86,31.96h-0.2l0,0v-0.08V31.8l-0.01-0.07v-0.08l-0.01-0.08l-0.01-0.07l-0.01-0.08l-0.02-0.07l-0.01-0.07l-0.02-0.08
				l-0.01-0.07l-0.02-0.07l-0.02-0.07l-0.03-0.07l-0.02-0.06l-0.03-0.07L32.4,30.7l-0.03-0.06l-0.03-0.07l-0.03-0.06l-0.04-0.07
				l-0.03-0.06l-0.04-0.06l-0.04-0.06l-0.04-0.06l-0.05-0.06l-0.04-0.06l-0.05-0.06l-0.05-0.06l-0.05-0.06l-0.05-0.05l-0.06-0.06
				l0.14-0.14l0.06,0.06l0.05,0.06l0.06,0.06l0.05,0.06l0.05,0.07l0.05,0.06l0.05,0.06l0.04,0.07l0.04,0.06l0.04,0.07l0.04,0.07
				l0.04,0.06l0.04,0.07l0.03,0.07l0.03,0.07l0.03,0.07l0.03,0.08l0.03,0.07l0.02,0.07l0.03,0.08l0.02,0.07l0.02,0.08l0.01,0.08
				l0.02,0.07l0.01,0.08l0.01,0.08l0.01,0.08l0.01,0.08l0.01,0.08v0.08l0.01,0.09V31.96L32.86,31.96z M31.91,34.22l-0.14-0.14l0,0
				l0.06-0.06l0.05-0.05l0.05-0.06l0.05-0.06l0.05-0.06l0.04-0.05l0.05-0.06l0.04-0.06l0.04-0.06l0.04-0.06l0.03-0.07l0.04-0.06
				l0.03-0.06l0.03-0.06l0.03-0.07l0.03-0.06l0.03-0.07l0.02-0.06l0.03-0.07l0.02-0.07l0.02-0.07l0.01-0.06l0.02-0.07l0.02-0.07
				l0.01-0.07l0.01-0.08l0.01-0.07l0.01-0.07v-0.07l0.01-0.08v-0.07v-0.08h0.2v0.08l-0.01,0.08v0.08l-0.01,0.08l-0.01,0.08
				l-0.01,0.07l-0.01,0.08l-0.01,0.07l-0.02,0.08l-0.01,0.07l-0.02,0.08l-0.02,0.07l-0.03,0.07l-0.02,0.07l-0.03,0.07l-0.03,0.07
				l-0.03,0.07l-0.03,0.07l-0.03,0.07l-0.04,0.07l-0.04,0.06l-0.04,0.07l-0.04,0.06l-0.04,0.07l-0.04,0.06l-0.05,0.07l-0.05,0.06
				l-0.05,0.06l-0.05,0.06l-0.06,0.06l-0.05,0.06L31.91,34.22L31.91,34.22z M29.65,35.17v-0.2l0,0h0.07h0.08h0.07l0.07-0.01
				l0.08-0.01l0.07-0.01l0.07-0.01l0.07-0.01l0.07-0.01l0.07-0.02l0.07-0.02l0.07-0.02l0.06-0.02l0.07-0.02l0.07-0.03l0.06-0.02
				l0.07-0.03l0.06-0.03l0.06-0.03l0.07-0.04l0.06-0.03l0.06-0.04l0.06-0.04l0.06-0.04l0.06-0.04l0.06-0.04l0.06-0.05l0.06-0.05
				l0.05-0.04l0.06-0.06l0.06-0.05l0.05-0.05l0.14,0.14l-0.06,0.05l-0.06,0.06l-0.06,0.05l-0.06,0.06L31.6,34.5l-0.06,0.04
				l-0.06,0.05l-0.07,0.05l-0.06,0.04l-0.07,0.04l-0.06,0.04l-0.07,0.04l-0.07,0.03l-0.06,0.04l-0.07,0.03l-0.07,0.03l-0.07,0.03
				l-0.07,0.02l-0.07,0.03l-0.08,0.02l-0.07,0.02l-0.07,0.02l-0.08,0.02l-0.07,0.01l-0.08,0.02l-0.07,0.01l-0.08,0.01l-0.08,0.01
				h-0.08l-0.07,0.01h-0.08H29.65L29.65,35.17z M27.72,43.13v31.09h-0.2V43.13l0.1-0.1L27.72,43.13z M27.52,43.13v-0.1h0.1
				L27.52,43.13z M31.68,43.23h-4.06v-0.2h4.06l0.09,0.1L31.68,43.23z M31.68,43.03h0.09v0.1L31.68,43.03z M31.58,74.22V43.13h0.19
				v31.09l-0.09,0.1L31.58,74.22z M31.78,74.22v0.1h-0.09L31.78,74.22z M27.62,74.12h4.06v0.2h-4.06l-0.1-0.1L27.62,74.12z
				 M27.62,74.32h-0.1v-0.1L27.62,74.32z"/>
		</g>
		<g>
			<path id="_x36__44_" class="st0" d="M43.68,49.07h-0.25v-0.2h0.25l0.08,0.15L43.68,49.07z M43.76,49.02l-0.02,0.05h-0.06
				L43.76,49.02z M45.43,46.27l0.15,0.13l0,0l-0.06,0.08l-0.07,0.07l-0.06,0.08l-0.07,0.08l-0.06,0.07l-0.06,0.08l-0.06,0.08
				l-0.07,0.08l-0.06,0.07l-0.06,0.08l-0.06,0.08l-0.05,0.08l-0.06,0.08l-0.06,0.08l-0.06,0.08l-0.05,0.08l-0.06,0.08l-0.06,0.08
				l-0.05,0.08l-0.05,0.08l-0.06,0.09l-0.05,0.08l-0.05,0.08l-0.05,0.08l-0.06,0.09l-0.05,0.08L44,48.58l-0.05,0.09l-0.04,0.08
				l-0.05,0.09l-0.05,0.08l-0.05,0.09l-0.17-0.1l0.05-0.08l0.05-0.09l0.04-0.09l0.05-0.08l0.05-0.09l0.05-0.08l0.06-0.09l0.05-0.08
				l0.05-0.08l0.05-0.09l0.06-0.08l0.05-0.08l0.06-0.09l0.05-0.08l0.06-0.08l0.05-0.08l0.06-0.08l0.06-0.09l0.06-0.08l0.06-0.08
				l0.06-0.08l0.06-0.08l0.06-0.08l0.06-0.08l0.06-0.08l0.06-0.07l0.07-0.08l0.06-0.08l0.07-0.08l0.06-0.08l0.07-0.07L45.43,46.27
				L45.43,46.27z M47.96,44.06l0.11,0.16l0,0l-0.08,0.06l-0.09,0.06l-0.09,0.06l-0.08,0.06l-0.09,0.06l-0.08,0.06l-0.08,0.06
				l-0.08,0.06l-0.09,0.07l-0.08,0.06l-0.08,0.06l-0.08,0.07l-0.08,0.06l-0.07,0.07l-0.08,0.06l-0.08,0.07l-0.07,0.07l-0.08,0.07
				l-0.07,0.06l-0.08,0.07l-0.07,0.07l-0.08,0.07l-0.07,0.07l-0.07,0.07l-0.07,0.07L46,45.95l-0.07,0.07l-0.07,0.07l-0.07,0.08
				l-0.06,0.07l-0.07,0.08l-0.07,0.07l-0.15-0.13l0.07-0.08l0.07-0.07l0.07-0.08l0.07-0.07l0.07-0.08l0.07-0.07l0.07-0.07L46,45.66
				l0.07-0.07l0.08-0.07l0.07-0.07l0.08-0.07l0.07-0.07l0.08-0.07l0.07-0.07l0.08-0.07l0.08-0.06l0.08-0.07l0.08-0.07l0.08-0.06
				l0.08-0.07l0.08-0.06l0.08-0.07l0.09-0.06l0.08-0.07l0.08-0.06l0.09-0.06l0.08-0.06l0.09-0.06l0.09-0.06l0.08-0.06L47.96,44.06
				L47.96,44.06z M51.13,42.56l0.06,0.19l0,0l-0.1,0.03l-0.11,0.03l-0.1,0.04l-0.1,0.03l-0.11,0.04l-0.1,0.04l-0.1,0.04l-0.1,0.03
				l-0.1,0.04l-0.1,0.04l-0.1,0.05l-0.1,0.04l-0.09,0.04l-0.1,0.04l-0.1,0.05l-0.09,0.04l-0.1,0.05l-0.09,0.05l-0.1,0.04l-0.09,0.05
				l-0.1,0.05l-0.09,0.05l-0.09,0.05l-0.09,0.05l-0.09,0.05l-0.1,0.06l-0.09,0.05L48.43,44l-0.08,0.05l-0.09,0.06l-0.09,0.05
				l-0.09,0.06l-0.11-0.16L48.05,44l0.09-0.06l0.09-0.06l0.09-0.05l0.09-0.06l0.09-0.05l0.1-0.06l0.09-0.05l0.09-0.05l0.1-0.05
				l0.09-0.05l0.1-0.05l0.09-0.05l0.1-0.05l0.09-0.05l0.1-0.05l0.1-0.04l0.1-0.05l0.1-0.04l0.1-0.04l0.1-0.05l0.1-0.04l0.1-0.04
				l0.1-0.04l0.1-0.04l0.1-0.04l0.11-0.04l0.1-0.03l0.1-0.04l0.11-0.03l0.1-0.04L51.13,42.56L51.13,42.56z M54.83,42.01v0.2l0,0
				h-0.12H54.6h-0.12l-0.12,0.01h-0.12l-0.12,0.01H54l-0.12,0.01l-0.12,0.01l-0.11,0.01l-0.12,0.01l-0.11,0.01l-0.12,0.02
				l-0.11,0.01l-0.11,0.01l-0.12,0.02l-0.11,0.02l-0.11,0.02l-0.11,0.01l-0.11,0.02l-0.11,0.03l-0.11,0.02l-0.11,0.02l-0.11,0.02
				l-0.11,0.03l-0.1,0.03l-0.11,0.02l-0.11,0.03l-0.1,0.03l-0.11,0.03l-0.11,0.03l-0.1,0.04l-0.06-0.19l0.11-0.04l0.1-0.03
				l0.11-0.03l0.11-0.03l0.11-0.03l0.11-0.03l0.11-0.02l0.11-0.03l0.11-0.02l0.11-0.03l0.11-0.02l0.11-0.02l0.12-0.02l0.11-0.02
				l0.11-0.02l0.12-0.01l0.11-0.02l0.12-0.02l0.11-0.01l0.12-0.01l0.11-0.02l0.12-0.01l0.12-0.01l0.11-0.01h0.12l0.12-0.01
				l0.12-0.01h0.12h0.12l0.12-0.01h0.12H54.83L54.83,42.01z M59.89,42.94l-0.08,0.18l0,0l-0.13-0.06l-0.13-0.05l-0.14-0.05
				l-0.13-0.05l-0.14-0.05l-0.14-0.05l-0.14-0.04l-0.14-0.05l-0.14-0.04l-0.15-0.04l-0.14-0.03l-0.15-0.04l-0.15-0.03l-0.15-0.04
				l-0.15-0.03l-0.15-0.03l-0.16-0.02l-0.15-0.03l-0.16-0.02l-0.16-0.02l-0.16-0.03l-0.16-0.01l-0.16-0.02l-0.16-0.02l-0.17-0.01
				l-0.16-0.01l-0.17-0.01l-0.17-0.01h-0.17l-0.17-0.01h-0.17h-0.18v-0.2h0.18h0.18l0.17,0.01l0.17,0.01h0.17l0.17,0.01l0.17,0.01
				l0.17,0.02l0.16,0.01l0.17,0.02l0.16,0.02l0.16,0.02l0.16,0.02l0.16,0.03l0.16,0.02l0.15,0.03l0.16,0.03l0.15,0.03L58,42.34
				l0.15,0.04l0.15,0.03l0.15,0.04l0.15,0.04l0.14,0.04l0.15,0.05l0.14,0.04l0.14,0.05l0.14,0.05l0.14,0.05l0.14,0.05l0.14,0.06
				L59.89,42.94L59.89,42.94z M63.52,45.56l-0.15,0.13l0,0l-0.09-0.1l-0.09-0.1l-0.09-0.1L63,45.29l-0.1-0.09l-0.09-0.1l-0.1-0.09
				l-0.09-0.09l-0.1-0.09l-0.1-0.09l-0.1-0.09l-0.11-0.08l-0.1-0.09l-0.11-0.08l-0.1-0.08l-0.11-0.08l-0.11-0.08l-0.11-0.08
				l-0.12-0.07l-0.11-0.08l-0.11-0.07l-0.12-0.07l-0.12-0.07l-0.12-0.07l-0.12-0.07l-0.12-0.06l-0.13-0.06l-0.12-0.07l-0.13-0.06
				l-0.13-0.06l-0.13-0.06l-0.13-0.05l0.08-0.18L60.02,43l0.14,0.06l0.13,0.06l0.12,0.07l0.13,0.06l0.13,0.06l0.12,0.07l0.13,0.07
				l0.12,0.07l0.12,0.07l0.12,0.07l0.12,0.08l0.11,0.07l0.12,0.08l0.11,0.08l0.11,0.08L62,44.14l0.1,0.08l0.11,0.09l0.11,0.09
				l0.1,0.08l0.11,0.09l0.1,0.09l0.1,0.09l0.1,0.1l0.1,0.09l0.1,0.1l0.09,0.1l0.09,0.1l0.1,0.1l0.09,0.1L63.52,45.56L63.52,45.56z
				 M65.66,49.61l-0.19,0.05l0,0l-0.04-0.14l-0.05-0.14l-0.04-0.14l-0.05-0.13l-0.05-0.14l-0.05-0.13l-0.05-0.14l-0.05-0.13
				l-0.06-0.13l-0.05-0.13l-0.06-0.13l-0.06-0.13l-0.06-0.12l-0.06-0.13l-0.06-0.12l-0.07-0.12l-0.06-0.12l-0.07-0.12l-0.07-0.12
				l-0.07-0.12l-0.07-0.12l-0.07-0.11l-0.08-0.12l-0.07-0.11l-0.08-0.11l-0.08-0.11l-0.08-0.11l-0.08-0.11l-0.08-0.11l-0.08-0.1
				l-0.09-0.11l-0.08-0.1l0.15-0.13l0.09,0.11l0.08,0.11l0.09,0.1L63.86,46l0.08,0.11l0.08,0.11l0.08,0.12l0.08,0.11l0.08,0.11
				l0.07,0.12l0.08,0.12l0.07,0.12l0.07,0.12l0.07,0.12l0.07,0.12l0.07,0.12l0.06,0.13l0.06,0.12l0.07,0.13l0.06,0.13l0.06,0.13
				l0.06,0.13l0.05,0.13l0.06,0.14l0.05,0.13l0.05,0.14l0.06,0.13l0.05,0.14l0.04,0.14l0.05,0.14l0.05,0.14L65.66,49.61L65.66,49.61
				z M66.36,54.74h-0.2l0,0v-0.18v-0.17v-0.16l-0.01-0.17v-0.17l-0.01-0.16l-0.01-0.17l-0.01-0.16l-0.01-0.17l-0.01-0.16l-0.02-0.16
				l-0.01-0.16l-0.02-0.16l-0.02-0.16L66,52.24l-0.02-0.15l-0.02-0.16l-0.02-0.15l-0.03-0.16l-0.02-0.15l-0.03-0.15l-0.03-0.16
				l-0.03-0.15l-0.03-0.14l-0.03-0.15l-0.04-0.15l-0.03-0.15l-0.04-0.14l-0.04-0.15l-0.04-0.14l-0.04-0.14l-0.04-0.15l0.19-0.05
				l0.04,0.14l0.04,0.15l0.04,0.14l0.04,0.15l0.04,0.15l0.04,0.14l0.03,0.15l0.03,0.15l0.03,0.16l0.03,0.15l0.03,0.15l0.03,0.15
				l0.03,0.16l0.02,0.16l0.03,0.15l0.02,0.16l0.02,0.16l0.02,0.16l0.02,0.16l0.01,0.16l0.02,0.16l0.01,0.16l0.02,0.17l0.01,0.16
				l0.01,0.17l0.01,0.17v0.16l0.01,0.17l0.01,0.17v0.17v0.17V54.74L66.36,54.74z M66.16,74.22V54.74h0.2v19.47l-0.1,0.1L66.16,74.22
				z M66.36,74.22v0.1h-0.1L66.36,74.22z M62.2,74.12h4.06v0.2H62.2l-0.1-0.1L62.2,74.12z M62.2,74.32h-0.1v-0.1L62.2,74.32z
				 M62.3,55.43v18.78h-0.2V55.43l0,0H62.3z M59.91,48.17l0.14-0.13l0,0l0.13,0.14l0.14,0.16l0.12,0.16l0.13,0.16l0.12,0.17
				l0.11,0.17l0.11,0.18l0.11,0.18l0.1,0.19l0.1,0.2l0.09,0.2l0.09,0.2l0.08,0.21l0.08,0.22l0.08,0.22l0.07,0.22l0.07,0.23
				l0.06,0.24l0.06,0.24l0.05,0.24l0.05,0.25l0.05,0.26l0.04,0.26l0.03,0.27l0.04,0.27l0.02,0.28l0.03,0.28l0.02,0.28l0.01,0.3
				l0.01,0.29l0.01,0.31v0.3h-0.2v-0.3v-0.3l-0.01-0.3l-0.02-0.28l-0.02-0.29l-0.02-0.28l-0.03-0.27l-0.03-0.27l-0.04-0.26
				l-0.04-0.26l-0.04-0.25l-0.05-0.25l-0.05-0.24l-0.06-0.23l-0.06-0.24l-0.07-0.22l-0.07-0.22l-0.07-0.22l-0.08-0.21l-0.08-0.2
				l-0.09-0.2l-0.09-0.2l-0.09-0.19l-0.1-0.18l-0.11-0.18l-0.1-0.17l-0.11-0.17l-0.12-0.16l-0.12-0.16l-0.12-0.16l-0.13-0.14
				L59.91,48.17L59.91,48.17z M53.76,45.89V45.7l0,0h0.25h0.24l0.24,0.02l0.24,0.01l0.23,0.02l0.23,0.03l0.22,0.03l0.23,0.03
				l0.22,0.04l0.21,0.04l0.21,0.05l0.21,0.05l0.21,0.06l0.2,0.06l0.2,0.06l0.2,0.07l0.19,0.08l0.19,0.08l0.18,0.08l0.18,0.09
				l0.18,0.09l0.18,0.1l0.17,0.1l0.17,0.1l0.16,0.12l0.16,0.11l0.16,0.12l0.16,0.12l0.15,0.13l0.14,0.14l0.15,0.13l0.14,0.15
				l-0.14,0.13l-0.14-0.13l-0.14-0.14l-0.14-0.13l-0.15-0.12l-0.15-0.12l-0.15-0.12l-0.16-0.11l-0.16-0.11l-0.16-0.1l-0.17-0.1
				l-0.17-0.1l-0.17-0.09l-0.18-0.08l-0.18-0.08l-0.19-0.08l-0.18-0.07l-0.19-0.07l-0.2-0.07l-0.19-0.05l-0.21-0.06l-0.2-0.05
				l-0.21-0.05l-0.21-0.04l-0.21-0.04L55.41,46l-0.22-0.03l-0.23-0.02l-0.23-0.02l-0.23-0.02l-0.24-0.01H54L53.76,45.89L53.76,45.89
				z M49.75,46.86l-0.09-0.17l0,0l0.11-0.06l0.12-0.06L50,46.51l0.12-0.05l0.12-0.06l0.12-0.05l0.12-0.05l0.12-0.04l0.12-0.05
				l0.12-0.04l0.12-0.04l0.13-0.04l0.12-0.04l0.12-0.03l0.13-0.04l0.13-0.03l0.12-0.03l0.13-0.03L52,45.86l0.13-0.03l0.13-0.02
				l0.13-0.02l0.13-0.02l0.13-0.01l0.13-0.02l0.14-0.01l0.13-0.01l0.14-0.01l0.13-0.01h0.14h0.13h0.14v0.19h-0.13l-0.14,0.01h-0.13
				l-0.13,0.01l-0.13,0.01l-0.14,0.01l-0.13,0.01l-0.13,0.01l-0.13,0.02l-0.12,0.02l-0.13,0.02l-0.13,0.02l-0.12,0.02l-0.13,0.03
				l-0.12,0.02l-0.13,0.03l-0.12,0.03l-0.12,0.04l-0.12,0.03l-0.13,0.04l-0.12,0.04l-0.12,0.04L50.8,46.4l-0.12,0.04l-0.12,0.05
				l-0.12,0.04l-0.11,0.05l-0.12,0.06l-0.11,0.05l-0.12,0.05l-0.11,0.06L49.75,46.86L49.75,46.86z M46.61,49.5l-0.16-0.12l0,0
				l0.08-0.11l0.09-0.1l0.08-0.1l0.09-0.1l0.09-0.1l0.09-0.1l0.08-0.09l0.1-0.1l0.09-0.09l0.09-0.09l0.09-0.09l0.1-0.09l0.09-0.09
				l0.1-0.08l0.09-0.09l0.1-0.08l0.1-0.08l0.1-0.09l0.1-0.07l0.1-0.08l0.11-0.08l0.1-0.07l0.11-0.08l0.1-0.07l0.11-0.07l0.11-0.07
				l0.11-0.07l0.11-0.07l0.11-0.06l0.11-0.07l0.11-0.06l0.12-0.06l0.09,0.17l-0.11,0.06l-0.11,0.06l-0.11,0.07l-0.11,0.06
				l-0.11,0.07l-0.11,0.06l-0.1,0.07l-0.11,0.07l-0.1,0.07l-0.1,0.08l-0.11,0.07l-0.1,0.07l-0.1,0.08l-0.1,0.08l-0.09,0.08
				l-0.1,0.08l-0.1,0.08l-0.09,0.08l-0.1,0.09l-0.09,0.08l-0.09,0.09l-0.09,0.09l-0.09,0.09l-0.09,0.09l-0.09,0.09l-0.09,0.1
				L47.03,49l-0.08,0.1l-0.09,0.1l-0.08,0.1l-0.08,0.1L46.61,49.5L46.61,49.5z M44.53,53.31l-0.19-0.06l0,0l0.05-0.14l0.05-0.13
				l0.05-0.13l0.05-0.13l0.05-0.13l0.06-0.13l0.05-0.13l0.06-0.13l0.05-0.12l0.06-0.13l0.06-0.12L45,51.69l0.06-0.13l0.06-0.12
				l0.07-0.12l0.06-0.12l0.07-0.12l0.06-0.11l0.07-0.12l0.07-0.12l0.07-0.11l0.07-0.11l0.07-0.12l0.08-0.11l0.07-0.11l0.08-0.11
				l0.07-0.11l0.08-0.11l0.08-0.11l0.08-0.1l0.08-0.11l0.08-0.1l0.16,0.12l-0.08,0.1l-0.08,0.11l-0.08,0.1l-0.08,0.11l-0.08,0.1
				l-0.07,0.11l-0.08,0.11l-0.07,0.11l-0.07,0.11l-0.07,0.11l-0.07,0.11l-0.07,0.12l-0.07,0.11l-0.07,0.12l-0.06,0.11l-0.07,0.12
				l-0.06,0.12l-0.06,0.11l-0.06,0.12l-0.06,0.12l-0.06,0.13l-0.06,0.12L45,52.14l-0.05,0.12l-0.06,0.13l-0.05,0.13l-0.05,0.12
				l-0.06,0.13l-0.05,0.13l-0.05,0.13l-0.04,0.13L44.53,53.31L44.53,53.31z M43.78,57.78h-0.2l0,0v-0.14v-0.15v-0.14l0.01-0.14
				l0.01-0.15v-0.14l0.01-0.14l0.02-0.15l0.01-0.14l0.01-0.14l0.02-0.14l0.01-0.15l0.02-0.14l0.02-0.14l0.02-0.14l0.03-0.14
				l0.02-0.14l0.03-0.14l0.02-0.13l0.03-0.14l0.03-0.14l0.04-0.14l0.03-0.14L44,54.35l0.04-0.14l0.04-0.14l0.04-0.13l0.04-0.14
				l0.04-0.13l0.04-0.14l0.05-0.13l0.04-0.13l0.19,0.06l-0.05,0.13l-0.04,0.14l-0.04,0.13l-0.04,0.13l-0.04,0.13l-0.04,0.14
				l-0.04,0.13l-0.04,0.14l-0.03,0.13l-0.03,0.14L44.1,54.8l-0.03,0.14l-0.03,0.13l-0.03,0.14l-0.02,0.14l-0.03,0.14l-0.02,0.13
				l-0.02,0.14l-0.02,0.14l-0.02,0.14l-0.02,0.14l-0.01,0.14l-0.02,0.14l-0.01,0.14l-0.01,0.14l-0.01,0.14l-0.01,0.14v0.14
				l-0.01,0.15v0.14v0.14V57.78L43.78,57.78z M43.57,74.22V57.78h0.2v16.44l-0.1,0.1L43.57,74.22z M43.78,74.22v0.1h-0.1
				L43.78,74.22z M39.61,74.12h4.06v0.2h-4.06l-0.1-0.1L39.61,74.12z M39.61,74.32h-0.1v-0.1L39.61,74.32z M39.72,43.13v31.09h-0.2
				V43.13l0.1-0.1L39.72,43.13z M39.51,43.13v-0.1h0.1L39.51,43.13z M43.42,43.23h-3.81v-0.2h3.81l0.1,0.1L43.42,43.23z
				 M43.42,43.03h0.1v0.1L43.42,43.03z M43.32,48.97v-5.84h0.2v5.84l-0.1,0.1L43.32,48.97z M43.42,49.07h-0.1v-0.1L43.42,49.07z"/>
		</g>
		<g>
			<path id="_x37__44_" class="st0" d="M98.05,68.66h0.25v0.19h-0.25l-0.08-0.15L98.05,68.66z M97.97,68.7l0.02-0.04h0.06
				L97.97,68.7z M96.28,71.27l-0.14-0.14l0,0l0.06-0.07l0.07-0.07l0.06-0.07l0.06-0.07l0.07-0.08l0.06-0.07l0.06-0.07l0.06-0.08
				l0.06-0.07l0.06-0.07l0.06-0.08l0.06-0.07l0.06-0.07l0.06-0.08l0.06-0.07l0.05-0.08l0.06-0.07l0.05-0.08l0.06-0.07l0.05-0.08
				l0.06-0.07l0.05-0.08l0.05-0.07l0.05-0.08l0.05-0.08l0.06-0.07l0.05-0.08l0.04-0.08l0.05-0.07l0.05-0.08l0.05-0.08l0.05-0.08
				l0.16,0.11l-0.04,0.07l-0.05,0.08l-0.05,0.08l-0.05,0.08l-0.05,0.08l-0.05,0.07l-0.05,0.08l-0.05,0.08l-0.06,0.08l-0.05,0.07
				l-0.05,0.08l-0.06,0.08l-0.05,0.07l-0.06,0.08l-0.05,0.08l-0.06,0.07l-0.06,0.08l-0.05,0.07l-0.06,0.08l-0.06,0.07l-0.06,0.08
				l-0.06,0.07l-0.06,0.08l-0.06,0.07l-0.07,0.07l-0.06,0.08l-0.06,0.07l-0.07,0.08l-0.06,0.07l-0.07,0.07l-0.06,0.08L96.28,71.27
				L96.28,71.27z M93.72,73.35l-0.1-0.17l0,0l0.09-0.06l0.08-0.05l0.09-0.06l0.09-0.05l0.08-0.06l0.09-0.06l0.08-0.06l0.09-0.05
				l0.08-0.06l0.08-0.06l0.08-0.06l0.08-0.06l0.08-0.06l0.08-0.06l0.08-0.07l0.08-0.06l0.08-0.06l0.07-0.07l0.08-0.06l0.07-0.07
				l0.08-0.06l0.07-0.07l0.07-0.06l0.08-0.07l0.07-0.07l0.07-0.07l0.07-0.06l0.07-0.07l0.06-0.07L96,71.28l0.07-0.07l0.07-0.08
				l0.14,0.14l-0.07,0.07l-0.07,0.07l-0.06,0.07l-0.07,0.08l-0.07,0.07l-0.07,0.07l-0.08,0.06l-0.07,0.07l-0.07,0.07l-0.08,0.07
				l-0.07,0.07l-0.08,0.06l-0.07,0.07l-0.08,0.06l-0.08,0.07l-0.08,0.06l-0.08,0.07l-0.08,0.06l-0.08,0.06l-0.08,0.07l-0.08,0.06
				l-0.08,0.06l-0.09,0.06l-0.08,0.06l-0.08,0.06l-0.09,0.06l-0.09,0.05l-0.08,0.06L94,73.18l-0.09,0.06l-0.09,0.05L93.72,73.35
				L93.72,73.35z M90.4,74.79l-0.06-0.19l0,0l0.11-0.03l0.11-0.03l0.12-0.04l0.11-0.03l0.1-0.04l0.11-0.04l0.11-0.03l0.11-0.04
				l0.1-0.04l0.11-0.04l0.1-0.04l0.11-0.04l0.1-0.04l0.1-0.04l0.11-0.05l0.1-0.04l0.1-0.04l0.1-0.05l0.1-0.04l0.1-0.05l0.09-0.05
				l0.1-0.04l0.1-0.05l0.09-0.05l0.1-0.05l0.09-0.05l0.09-0.05l0.09-0.05l0.1-0.05l0.09-0.06l0.09-0.05l0.09-0.05l0.1,0.17
				l-0.09,0.05l-0.09,0.06l-0.1,0.05l-0.09,0.05l-0.09,0.05l-0.1,0.06l-0.09,0.05l-0.1,0.05l-0.1,0.05l-0.09,0.04l-0.1,0.05
				l-0.1,0.05l-0.1,0.05l-0.1,0.04l-0.1,0.05l-0.1,0.04l-0.11,0.05l-0.1,0.04l-0.1,0.04l-0.11,0.04l-0.1,0.04l-0.11,0.04l-0.11,0.04
				l-0.11,0.04l-0.1,0.04l-0.11,0.04l-0.11,0.04l-0.11,0.03l-0.11,0.04l-0.12,0.03l-0.11,0.04L90.4,74.79L90.4,74.79z M86.31,75.33
				v-0.2l0,0h0.13h0.14h0.13l0.14-0.01h0.13l0.13-0.01h0.13l0.13-0.01l0.13-0.01l0.13-0.01l0.13-0.01l0.13-0.01l0.12-0.02l0.13-0.01
				l0.13-0.02L88.42,75l0.12-0.02l0.13-0.02l0.12-0.02l0.12-0.02l0.12-0.02l0.12-0.02l0.12-0.02l0.12-0.03l0.12-0.02l0.11-0.03
				l0.12-0.02l0.12-0.03L90,74.7l0.11-0.03l0.12-0.03l0.11-0.04l0.06,0.19l-0.12,0.04l-0.11,0.03l-0.12,0.03l-0.12,0.03l-0.11,0.03
				l-0.12,0.02L89.57,75l-0.12,0.03l-0.12,0.02l-0.12,0.03l-0.12,0.02l-0.13,0.02l-0.12,0.02l-0.12,0.02l-0.13,0.02l-0.12,0.01
				l-0.13,0.02l-0.13,0.02l-0.12,0.01l-0.13,0.01l-0.13,0.01l-0.13,0.02l-0.13,0.01h-0.13l-0.14,0.01l-0.13,0.01H87l-0.14,0.01
				h-0.13l-0.14,0.01h-0.13H86.31L86.31,75.33z M80.62,74.09l0.08-0.18l0,0l0.16,0.08l0.17,0.07l0.16,0.07l0.17,0.06l0.16,0.07
				l0.17,0.06l0.16,0.06l0.17,0.06l0.17,0.06l0.17,0.05l0.17,0.05l0.17,0.05l0.17,0.04l0.17,0.05l0.17,0.04l0.17,0.04l0.17,0.03
				l0.18,0.04l0.17,0.03l0.18,0.03l0.17,0.03l0.18,0.02l0.17,0.02l0.18,0.02l0.18,0.02l0.18,0.02l0.18,0.01l0.18,0.01l0.18,0.01
				l0.18,0.01h0.18h0.18v0.2h-0.19l-0.18-0.01h-0.18l-0.19-0.01l-0.18-0.01l-0.18-0.02l-0.18-0.01l-0.18-0.02l-0.18-0.02l-0.18-0.02
				l-0.18-0.03l-0.18-0.02l-0.17-0.03l-0.18-0.04l-0.18-0.03l-0.17-0.04l-0.18-0.04l-0.17-0.04l-0.17-0.04l-0.18-0.05L82.5,74.8
				l-0.17-0.05l-0.17-0.06l-0.17-0.05l-0.17-0.06l-0.17-0.06l-0.17-0.07l-0.17-0.06l-0.17-0.07l-0.16-0.07l-0.17-0.07L80.62,74.09
				L80.62,74.09z M75.92,70.63l0.15-0.13l0,0l0.12,0.13l0.12,0.13l0.13,0.13l0.13,0.13l0.12,0.13l0.13,0.12l0.13,0.12l0.14,0.12
				l0.13,0.12l0.13,0.12l0.14,0.11l0.14,0.11l0.13,0.12l0.14,0.11l0.14,0.1l0.15,0.11l0.14,0.1l0.14,0.1l0.15,0.1l0.15,0.1l0.14,0.1
				l0.15,0.09l0.15,0.1l0.16,0.09l0.15,0.09l0.15,0.08l0.16,0.09l0.16,0.08l0.16,0.09l0.16,0.08l0.16,0.07l0.16,0.08l-0.08,0.18
				L80.45,74l-0.16-0.08l-0.16-0.08l-0.16-0.08l-0.16-0.09l-0.16-0.08l-0.16-0.09l-0.15-0.09l-0.16-0.09l-0.15-0.1l-0.15-0.09
				l-0.15-0.1l-0.15-0.1l-0.15-0.1l-0.15-0.11l-0.14-0.1l-0.14-0.11l-0.15-0.11l-0.14-0.11l-0.14-0.11l-0.14-0.12l-0.13-0.11
				l-0.14-0.12l-0.14-0.12l-0.13-0.12l-0.13-0.13l-0.13-0.12l-0.13-0.13l-0.13-0.13l-0.13-0.13l-0.12-0.13L75.92,70.63L75.92,70.63z
				 M72.73,65.37l0.18-0.07l0,0L73,65.49l0.07,0.19l0.08,0.18l0.07,0.18l0.08,0.18l0.08,0.17l0.08,0.18l0.09,0.17l0.08,0.18
				l0.09,0.17l0.09,0.17l0.09,0.16L74,67.62l0.09,0.16l0.1,0.17l0.09,0.16l0.1,0.16l0.1,0.16l0.1,0.15l0.1,0.16l0.11,0.15l0.1,0.15
				l0.11,0.15l0.11,0.15l0.11,0.14l0.11,0.15l0.12,0.14l0.11,0.14l0.12,0.14l0.12,0.14l0.12,0.14l0.12,0.13l-0.15,0.13L75.8,70.5
				l-0.12-0.14l-0.12-0.14l-0.12-0.14l-0.12-0.15l-0.11-0.14l-0.12-0.15l-0.11-0.15l-0.11-0.15l-0.11-0.15l-0.1-0.15l-0.11-0.15
				l-0.1-0.16l-0.11-0.16l-0.1-0.16l-0.09-0.16l-0.1-0.16l-0.1-0.17l-0.09-0.16l-0.09-0.17l-0.1-0.17l-0.09-0.17l-0.08-0.17
				l-0.09-0.18l-0.08-0.17l-0.09-0.18l-0.08-0.18l-0.08-0.18l-0.08-0.19l-0.07-0.18l-0.08-0.19L72.73,65.37L72.73,65.37z
				 M71.56,58.67h0.19l0,0v0.22l0.01,0.22v0.22l0.01,0.22l0.01,0.21L71.79,60l0.02,0.21l0.01,0.22l0.02,0.21l0.03,0.21l0.02,0.21
				l0.02,0.21l0.03,0.21l0.03,0.2l0.04,0.21l0.03,0.2l0.04,0.21l0.04,0.2l0.04,0.2l0.04,0.2l0.05,0.2l0.05,0.2l0.05,0.19l0.05,0.2
				l0.05,0.19l0.06,0.2l0.06,0.19l0.06,0.19l0.07,0.19l0.06,0.19l0.07,0.19l0.07,0.19l-0.18,0.07l-0.07-0.19l-0.07-0.19l-0.07-0.19
				l-0.06-0.2l-0.07-0.19l-0.06-0.2L72.28,64l-0.06-0.2l-0.05-0.2l-0.05-0.19l-0.05-0.2l-0.05-0.21l-0.04-0.2l-0.05-0.2l-0.04-0.21
				l-0.03-0.2l-0.04-0.21l-0.03-0.21l-0.03-0.21l-0.03-0.21l-0.03-0.21l-0.02-0.21l-0.02-0.21l-0.02-0.22l-0.02-0.21l-0.01-0.22
				l-0.02-0.22l-0.01-0.21v-0.22l-0.01-0.23V58.9V58.67L71.56,58.67z M72.73,51.97l0.18,0.07l0,0l-0.07,0.19l-0.07,0.19l-0.06,0.19
				l-0.07,0.19l-0.06,0.19l-0.06,0.19l-0.06,0.19l-0.05,0.2l-0.05,0.19l-0.05,0.2l-0.05,0.2l-0.05,0.2l-0.04,0.2l-0.04,0.2
				l-0.04,0.2l-0.04,0.21l-0.03,0.2l-0.04,0.21l-0.03,0.2l-0.03,0.21l-0.02,0.21l-0.02,0.21l-0.03,0.21l-0.02,0.21l-0.01,0.22
				l-0.02,0.21l-0.01,0.22l-0.01,0.21L71.76,58v0.22l-0.01,0.22v0.22h-0.19v-0.22v-0.23l0.01-0.22v-0.22l0.01-0.21l0.02-0.22
				l0.01-0.22l0.02-0.21l0.02-0.22l0.02-0.21l0.02-0.21l0.03-0.22l0.03-0.21l0.03-0.2l0.03-0.21l0.04-0.21l0.03-0.2l0.04-0.21
				l0.05-0.2l0.04-0.2l0.05-0.21l0.05-0.2l0.05-0.2l0.05-0.19l0.06-0.2l0.05-0.2l0.06-0.19l0.07-0.19l0.06-0.2l0.07-0.19l0.07-0.19
				L72.73,51.97L72.73,51.97z M75.92,46.71l0.15,0.13l0,0l-0.12,0.13l-0.12,0.14l-0.12,0.14l-0.12,0.14l-0.11,0.14l-0.12,0.14
				l-0.11,0.15l-0.11,0.14l-0.11,0.15l-0.11,0.15l-0.1,0.15l-0.11,0.15l-0.1,0.16l-0.1,0.15l-0.1,0.16l-0.1,0.16l-0.09,0.16
				l-0.1,0.16L74,49.73l-0.09,0.16l-0.09,0.17l-0.09,0.17l-0.09,0.17l-0.08,0.17l-0.09,0.18l-0.08,0.17l-0.08,0.18l-0.08,0.18
				l-0.07,0.18l-0.08,0.18L73,51.86l-0.08,0.18l-0.18-0.07l0.07-0.18l0.08-0.19l0.07-0.19l0.08-0.18l0.08-0.18l0.08-0.18l0.09-0.18
				l0.08-0.17l0.09-0.18l0.08-0.17l0.09-0.17l0.1-0.17l0.09-0.17l0.09-0.16l0.1-0.17l0.1-0.16l0.09-0.16l0.1-0.16l0.11-0.16
				l0.1-0.16l0.11-0.15l0.1-0.15l0.11-0.16l0.11-0.15l0.11-0.14l0.12-0.15l0.11-0.14l0.12-0.15l0.12-0.14l0.12-0.14l0.12-0.14
				L75.92,46.71L75.92,46.71z M80.62,43.26l0.08,0.18l0,0l-0.16,0.07l-0.16,0.08l-0.16,0.08l-0.16,0.09l-0.16,0.08l-0.16,0.08
				l-0.15,0.09l-0.15,0.09l-0.16,0.09l-0.15,0.1l-0.15,0.09l-0.14,0.1l-0.15,0.09l-0.15,0.1l-0.14,0.11l-0.14,0.1l-0.15,0.11
				l-0.14,0.1l-0.14,0.11l-0.13,0.11l-0.14,0.12l-0.14,0.11l-0.13,0.12l-0.13,0.12l-0.14,0.12l-0.13,0.12l-0.13,0.12l-0.12,0.13
				l-0.13,0.13l-0.13,0.13l-0.12,0.13l-0.12,0.13l-0.15-0.13l0.13-0.14l0.12-0.13l0.13-0.13l0.13-0.13l0.13-0.13l0.13-0.12
				l0.13-0.13l0.13-0.12l0.14-0.12l0.14-0.12l0.13-0.11l0.14-0.12l0.14-0.11l0.14-0.11l0.15-0.11l0.14-0.11l0.14-0.1l0.15-0.11
				l0.15-0.1l0.15-0.1l0.15-0.1l0.15-0.09l0.15-0.1l0.16-0.09l0.15-0.09l0.16-0.09l0.16-0.08l0.16-0.09l0.16-0.08l0.16-0.08
				l0.16-0.08L80.62,43.26L80.62,43.26z M86.31,42.01v0.2l0,0h-0.18h-0.18l-0.18,0.01l-0.18,0.01l-0.18,0.01l-0.18,0.01l-0.18,0.02
				l-0.18,0.01l-0.18,0.02l-0.17,0.03l-0.18,0.02l-0.17,0.03l-0.18,0.03l-0.17,0.03l-0.18,0.03l-0.17,0.04l-0.17,0.04l-0.17,0.04
				l-0.17,0.04l-0.17,0.05l-0.17,0.05l-0.17,0.05l-0.17,0.05l-0.17,0.06l-0.17,0.06l-0.16,0.06l-0.17,0.06l-0.16,0.06l-0.17,0.07
				l-0.16,0.07l-0.17,0.07l-0.16,0.08l-0.08-0.18l0.16-0.08l0.17-0.07l0.16-0.07l0.17-0.07l0.17-0.06l0.17-0.07l0.17-0.06l0.17-0.06
				l0.17-0.05l0.17-0.06l0.17-0.05l0.17-0.05l0.18-0.05l0.17-0.04l0.17-0.04l0.18-0.04l0.17-0.04l0.18-0.03l0.18-0.04l0.17-0.03
				l0.18-0.02l0.18-0.03l0.18-0.02l0.18-0.02l0.18-0.02l0.18-0.02l0.18-0.01l0.18-0.01l0.19-0.01h0.18l0.18-0.01H86.31L86.31,42.01z
				 M93.72,43.93l-0.11,0.17l0,0l-0.17-0.12l-0.19-0.11l-0.18-0.1l-0.19-0.11l-0.19-0.1l-0.2-0.09l-0.19-0.1l-0.2-0.09l-0.2-0.08
				l-0.21-0.08l-0.21-0.08l-0.21-0.07l-0.21-0.08l-0.22-0.06l-0.22-0.07l-0.23-0.06l-0.22-0.05l-0.23-0.06l-0.23-0.04l-0.24-0.05
				l-0.24-0.04l-0.24-0.04l-0.24-0.03l-0.25-0.03l-0.25-0.03l-0.25-0.03l-0.26-0.02l-0.26-0.01l-0.26-0.02h-0.26l-0.27-0.01h-0.27
				v-0.2h0.27l0.27,0.01l0.27,0.01l0.27,0.01l0.26,0.02l0.26,0.02l0.25,0.02l0.25,0.03l0.25,0.03l0.25,0.04l0.25,0.03l0.24,0.05
				l0.24,0.04l0.23,0.05l0.23,0.06l0.23,0.05l0.23,0.06l0.22,0.07l0.23,0.07l0.21,0.07l0.22,0.07l0.21,0.08l0.21,0.09l0.21,0.08
				l0.2,0.09l0.2,0.1l0.2,0.1l0.19,0.1l0.19,0.1l0.19,0.11l0.19,0.12L93.72,43.93L93.72,43.93z M98.05,48.42v0.2l-0.09-0.05
				l-0.09-0.16l-0.09-0.16l-0.1-0.15l-0.09-0.15l-0.11-0.16l-0.1-0.15l-0.11-0.15l-0.11-0.15l-0.11-0.15l-0.12-0.14l-0.11-0.15
				l-0.12-0.14l-0.13-0.14l-0.13-0.14l-0.13-0.14l-0.13-0.14l-0.13-0.14l-0.14-0.13l-0.14-0.14l-0.14-0.13l-0.15-0.13l-0.15-0.13
				l-0.15-0.13l-0.16-0.13l-0.15-0.12l-0.16-0.13l-0.17-0.12l-0.16-0.13l-0.17-0.12l-0.17-0.12l-0.18-0.12l-0.18-0.11l0.11-0.17
				l0.18,0.12l0.18,0.12l0.17,0.12l0.17,0.12l0.17,0.13l0.17,0.12l0.16,0.13l0.16,0.13l0.15,0.13l0.16,0.13l0.15,0.13l0.15,0.13
				l0.14,0.14l0.15,0.14l0.14,0.13l0.13,0.14l0.14,0.14l0.13,0.14l0.13,0.15l0.12,0.14l0.13,0.15l0.12,0.15l0.12,0.14l0.11,0.15
				l0.11,0.16l0.11,0.15l0.11,0.15l0.1,0.16l0.1,0.15l0.1,0.16l0.09,0.16l0.1,0.16L98.05,48.42z M98.05,48.62h-0.06l-0.03-0.05
				L98.05,48.62z M98.3,48.62h-0.25v-0.2h0.25l0.1,0.1L98.3,48.62z M98.4,48.52v0.1h-0.1L98.4,48.52z M98.15,44.2l0.25,4.32
				l-0.2,0.01l-0.25-4.32V44.2H98.15z M97.95,44.21V44.2l0,0V44.21z M98.15,28.79V44.2h-0.2V28.79l0.1-0.1L98.15,28.79z
				 M97.95,28.79v-0.1h0.1L97.95,28.79z M102.11,28.89h-4.06v-0.2h4.06l0.1,0.1L102.11,28.89z M102.11,28.69h0.1v0.1L102.11,28.69z
				 M102.01,74.22V28.79h0.2v45.43l-0.1,0.1L102.01,74.22z M102.21,74.22v0.1h-0.1L102.21,74.22z M98.3,74.12h3.81v0.2H98.3
				l-0.1-0.1L98.3,74.12z M98.3,74.32h-0.1v-0.1L98.3,74.32z M98.4,68.77v5.45h-0.2v-5.45l0.1-0.1L98.4,68.77z M98.3,68.66h0.1v0.1
				L98.3,68.66z M91.26,70.6l0.07,0.18l0,0l-0.13,0.05l-0.12,0.06l-0.13,0.04l-0.13,0.05l-0.13,0.05l-0.13,0.04l-0.13,0.04
				l-0.13,0.04l-0.13,0.04l-0.13,0.04l-0.13,0.04l-0.14,0.03l-0.13,0.03l-0.13,0.03l-0.13,0.03l-0.14,0.03l-0.13,0.03l-0.13,0.02
				l-0.14,0.02l-0.13,0.02l-0.13,0.02l-0.14,0.02l-0.13,0.02l-0.14,0.01l-0.14,0.01l-0.13,0.01l-0.14,0.01l-0.13,0.01l-0.14,0.01
				h-0.14h-0.14h-0.13v-0.19h0.13l0.14-0.01h0.13l0.14-0.01h0.13l0.13-0.01l0.14-0.01l0.13-0.02l0.13-0.01l0.14-0.02l0.13-0.01
				l0.13-0.02l0.13-0.02l0.13-0.02l0.13-0.03l0.14-0.02l0.13-0.03l0.13-0.03l0.13-0.03l0.13-0.03l0.12-0.03l0.13-0.04l0.13-0.04
				l0.13-0.03l0.13-0.04l0.13-0.05l0.12-0.04l0.13-0.04l0.13-0.05l0.12-0.05l0.13-0.05L91.26,70.6L91.26,70.6z M94.83,68.09
				l0.15,0.14l0,0l-0.1,0.1l-0.1,0.1l-0.09,0.1l-0.1,0.1l-0.11,0.1l-0.1,0.1l-0.1,0.09l-0.1,0.09l-0.11,0.09l-0.11,0.09l-0.1,0.09
				l-0.11,0.09l-0.11,0.08l-0.11,0.08l-0.11,0.09l-0.11,0.08l-0.12,0.07l-0.11,0.08l-0.11,0.07l-0.12,0.08L92.7,70.1l-0.11,0.07
				l-0.12,0.07l-0.12,0.07l-0.12,0.06l-0.13,0.06l-0.12,0.07l-0.12,0.06l-0.13,0.06l-0.12,0.05l-0.13,0.06l-0.13,0.05l-0.07-0.18
				l0.12-0.05l0.13-0.06l0.12-0.05l0.12-0.06l0.12-0.06L92,70.26l0.12-0.06l0.12-0.07l0.12-0.06l0.12-0.07l0.11-0.07l0.12-0.07
				l0.11-0.07l0.11-0.07l0.11-0.08l0.11-0.08l0.11-0.07l0.11-0.08l0.11-0.09l0.11-0.08l0.1-0.08l0.11-0.09l0.1-0.09l0.1-0.09
				l0.11-0.09l0.1-0.09l0.1-0.09l0.1-0.1l0.1-0.09l0.09-0.1l0.1-0.1L94.83,68.09L94.83,68.09z M97.29,64.06l0.19,0.07l0,0
				l-0.06,0.14l-0.06,0.15l-0.06,0.14l-0.06,0.15l-0.06,0.14l-0.07,0.14l-0.06,0.14l-0.07,0.13l-0.07,0.14l-0.07,0.14l-0.07,0.13
				l-0.07,0.13l-0.07,0.13l-0.07,0.13l-0.08,0.13l-0.07,0.13l-0.08,0.12l-0.08,0.12l-0.08,0.13l-0.08,0.12l-0.08,0.12L95.9,67.1
				l-0.08,0.11l-0.09,0.12l-0.09,0.11l-0.08,0.12l-0.09,0.11l-0.09,0.11l-0.1,0.11l-0.09,0.11l-0.09,0.1l-0.1,0.11l-0.15-0.14
				l0.1-0.1l0.09-0.1l0.09-0.11l0.09-0.11l0.09-0.1l0.09-0.11l0.09-0.12l0.08-0.11l0.09-0.11l0.08-0.12l0.08-0.11l0.09-0.12
				l0.08-0.12l0.07-0.12l0.08-0.12l0.08-0.13l0.07-0.12l0.08-0.13l0.07-0.13l0.07-0.12l0.07-0.13l0.07-0.14l0.07-0.13l0.06-0.13
				l0.07-0.14l0.06-0.13l0.07-0.14l0.06-0.14l0.06-0.14l0.06-0.14l0.06-0.15L97.29,64.06L97.29,64.06z M98.2,58.67h0.2l0,0v0.19
				v0.18l-0.01,0.19l-0.01,0.18v0.19l-0.01,0.18l-0.01,0.18l-0.02,0.18l-0.01,0.17l-0.02,0.18l-0.02,0.18l-0.02,0.17l-0.02,0.17
				l-0.03,0.17l-0.02,0.17l-0.03,0.17l-0.03,0.17l-0.03,0.17l-0.03,0.16l-0.04,0.16l-0.03,0.17l-0.04,0.16l-0.04,0.16l-0.04,0.16
				l-0.05,0.15l-0.04,0.16l-0.05,0.15l-0.05,0.16l-0.05,0.15l-0.05,0.15l-0.06,0.15l-0.05,0.15l-0.19-0.07l0.06-0.15l0.05-0.15
				l0.05-0.14l0.05-0.15l0.05-0.16l0.05-0.15L97.64,63l0.05-0.16l0.04-0.15l0.04-0.16l0.03-0.16l0.04-0.16l0.03-0.16l0.04-0.16
				l0.03-0.17l0.03-0.16L98,61.36l0.03-0.17l0.02-0.16l0.02-0.18l0.02-0.17l0.02-0.17l0.02-0.17l0.02-0.18l0.01-0.18l0.01-0.17
				l0.01-0.18l0.01-0.18v-0.19l0.01-0.18v-0.18V58.67L98.2,58.67z M97.29,53.25l0.19-0.07l0,0l0.05,0.15l0.06,0.15l0.05,0.15
				l0.05,0.16l0.05,0.15l0.05,0.16l0.04,0.16l0.05,0.16l0.04,0.16l0.04,0.16l0.04,0.16l0.03,0.16l0.04,0.17l0.03,0.16l0.03,0.17
				l0.03,0.17l0.03,0.17l0.02,0.17l0.03,0.17l0.02,0.18l0.02,0.17l0.02,0.18L98.33,57l0.01,0.18l0.02,0.18l0.01,0.18l0.01,0.18v0.19
				l0.01,0.18l0.01,0.19v0.18v0.19h-0.2v-0.19V58.3l-0.01-0.18v-0.19l-0.01-0.18l-0.01-0.18l-0.01-0.18l-0.01-0.17l-0.02-0.18
				l-0.02-0.17l-0.02-0.18l-0.02-0.17l-0.02-0.17l-0.02-0.17L98,55.97l-0.02-0.17l-0.03-0.16l-0.03-0.17l-0.04-0.16l-0.03-0.16
				l-0.04-0.17l-0.03-0.16l-0.04-0.15l-0.05-0.16l-0.04-0.16l-0.04-0.15l-0.05-0.16l-0.05-0.15l-0.05-0.15l-0.05-0.15l-0.05-0.15
				L97.29,53.25L97.29,53.25z M94.83,49.22l0.15-0.13l0,0l0.09,0.1l0.1,0.11l0.09,0.1l0.1,0.11l0.09,0.11l0.09,0.11l0.08,0.11
				l0.09,0.12l0.09,0.11l0.08,0.12l0.09,0.12l0.08,0.11l0.08,0.13l0.08,0.12l0.08,0.12l0.08,0.13l0.07,0.12l0.08,0.13l0.07,0.13
				l0.07,0.13l0.07,0.14l0.07,0.13l0.07,0.13l0.07,0.14l0.07,0.14l0.06,0.14l0.07,0.14l0.06,0.14l0.06,0.15l0.06,0.14l0.06,0.15
				l0.06,0.15l-0.19,0.07l-0.06-0.15l-0.05-0.14l-0.06-0.15l-0.06-0.14l-0.06-0.14l-0.07-0.14l-0.06-0.14l-0.07-0.13l-0.06-0.14
				l-0.07-0.13l-0.07-0.13l-0.07-0.13l-0.07-0.13l-0.07-0.13l-0.08-0.13l-0.07-0.12l-0.08-0.12l-0.08-0.13l-0.07-0.12l-0.08-0.11
				l-0.09-0.12l-0.08-0.12l-0.08-0.11l-0.09-0.11l-0.08-0.12l-0.09-0.11l-0.09-0.11l-0.09-0.1l-0.09-0.11l-0.09-0.1l-0.09-0.1
				L94.83,49.22L94.83,49.22z M91.26,46.74l0.07-0.18l0,0l0.13,0.05l0.13,0.06l0.12,0.05l0.13,0.06l0.12,0.06l0.12,0.06l0.13,0.07
				l0.12,0.06l0.12,0.07l0.11,0.07l0.12,0.07l0.12,0.07l0.12,0.07l0.11,0.07l0.11,0.08l0.12,0.08l0.11,0.07l0.11,0.08l0.11,0.09
				l0.11,0.08l0.11,0.08l0.1,0.09l0.11,0.09l0.1,0.09l0.11,0.09l0.1,0.09l0.1,0.1l0.1,0.09l0.1,0.1l0.1,0.1l0.1,0.1l0.1,0.1
				l-0.15,0.13l-0.09-0.1l-0.1-0.09l-0.09-0.1l-0.1-0.1l-0.1-0.09l-0.1-0.09l-0.1-0.09l-0.1-0.09l-0.11-0.09l-0.1-0.09l-0.11-0.08
				l-0.1-0.08l-0.11-0.09l-0.11-0.08l-0.11-0.08l-0.11-0.07l-0.11-0.08l-0.11-0.07l-0.11-0.07l-0.11-0.08l-0.12-0.07l-0.11-0.06
				l-0.12-0.07l-0.12-0.06l-0.12-0.07L92,47.09l-0.12-0.06l-0.12-0.06l-0.12-0.06l-0.12-0.05l-0.13-0.06L91.26,46.74L91.26,46.74z
				 M87.01,45.89V45.7l0,0h0.13h0.14h0.14l0.14,0.01l0.13,0.01l0.14,0.01l0.13,0.01l0.14,0.01l0.14,0.01l0.13,0.02l0.14,0.02
				l0.13,0.02l0.13,0.02l0.14,0.02l0.13,0.02l0.13,0.03l0.14,0.03l0.13,0.02L89.61,46l0.13,0.03l0.14,0.03l0.13,0.04l0.13,0.04
				l0.13,0.03l0.13,0.05l0.13,0.04l0.13,0.04l0.13,0.05l0.13,0.04l0.13,0.05l0.12,0.05l0.13,0.06l-0.07,0.18l-0.13-0.05l-0.13-0.05
				l-0.12-0.05l-0.13-0.05l-0.13-0.04l-0.12-0.05l-0.13-0.04l-0.13-0.04l-0.13-0.04l-0.13-0.03l-0.13-0.04l-0.12-0.03l-0.13-0.03
				l-0.13-0.03l-0.13-0.03l-0.13-0.03l-0.14-0.02l-0.13-0.03l-0.13-0.02l-0.13-0.02l-0.13-0.02l-0.13-0.02l-0.14-0.01l-0.13-0.01
				l-0.13-0.02l-0.14-0.01l-0.13-0.01h-0.13l-0.14-0.01h-0.13l-0.14-0.01H87.01L87.01,45.89z M82.77,46.77l-0.08-0.18l0,0l0.13-0.06
				l0.13-0.05l0.13-0.05l0.12-0.05l0.13-0.05l0.13-0.04l0.13-0.05l0.13-0.04l0.13-0.04l0.14-0.04l0.13-0.03l0.13-0.04l0.13-0.03
				l0.13-0.03l0.14-0.04l0.13-0.02l0.13-0.03l0.14-0.03l0.13-0.02l0.13-0.02l0.14-0.02l0.13-0.02l0.14-0.01l0.13-0.02l0.14-0.01
				l0.13-0.01l0.14-0.01l0.14-0.01l0.13-0.01h0.14h0.14h0.14v0.19h-0.14l-0.13,0.01h-0.14l-0.13,0.01h-0.14l-0.13,0.01l-0.13,0.01
				l-0.14,0.02l-0.13,0.01l-0.13,0.02L85.52,46l-0.14,0.01l-0.13,0.03l-0.13,0.02l-0.13,0.02l-0.13,0.03l-0.13,0.03l-0.13,0.03
				l-0.13,0.03l-0.13,0.03l-0.13,0.04l-0.13,0.03l-0.13,0.04l-0.13,0.04l-0.12,0.04l-0.13,0.04l-0.13,0.05l-0.13,0.05l-0.12,0.04
				l-0.13,0.05l-0.13,0.06L82.77,46.77L82.77,46.77z M79.18,49.32l-0.15-0.14l0,0l0.1-0.1l0.1-0.1l0.1-0.1l0.1-0.1l0.1-0.1l0.1-0.1
				l0.1-0.09l0.11-0.09l0.1-0.09l0.11-0.09l0.11-0.09l0.1-0.09l0.11-0.08l0.11-0.09l0.11-0.08l0.12-0.08l0.11-0.08l0.11-0.08
				l0.12-0.07l0.11-0.08l0.12-0.07l0.12-0.07l0.12-0.07l0.12-0.07l0.12-0.07l0.12-0.06l0.12-0.07l0.13-0.06l0.12-0.06l0.13-0.06
				l0.12-0.06l0.13-0.05l0.08,0.18l-0.13,0.05l-0.12,0.06l-0.13,0.06l-0.12,0.06l-0.12,0.06l-0.12,0.06l-0.12,0.07l-0.12,0.06
				l-0.11,0.07l-0.12,0.07l-0.12,0.07l-0.11,0.07l-0.11,0.07l-0.12,0.08l-0.11,0.07l-0.11,0.08l-0.11,0.08l-0.11,0.08l-0.11,0.08
				l-0.1,0.09l-0.11,0.08l-0.1,0.09l-0.11,0.09l-0.1,0.08l-0.1,0.1l-0.1,0.09l-0.1,0.09l-0.1,0.1l-0.1,0.1l-0.1,0.09l-0.1,0.11
				L79.18,49.32L79.18,49.32z M76.73,53.34l-0.18-0.07l0,0l0.06-0.14l0.05-0.15l0.06-0.14l0.07-0.15l0.06-0.14l0.06-0.14l0.07-0.14
				l0.06-0.13l0.07-0.14l0.07-0.13l0.07-0.14l0.07-0.13l0.07-0.13l0.08-0.13l0.07-0.13l0.08-0.12l0.08-0.13l0.07-0.12l0.08-0.13
				l0.08-0.12l0.09-0.12l0.08-0.12l0.09-0.11l0.08-0.12l0.09-0.11l0.09-0.12l0.09-0.11l0.09-0.11l0.09-0.11l0.09-0.11l0.1-0.1
				l0.09-0.11l0.15,0.14l-0.09,0.1l-0.1,0.1l-0.09,0.11l-0.09,0.11l-0.09,0.11l-0.09,0.11l-0.08,0.11l-0.09,0.11l-0.09,0.11
				l-0.08,0.12l-0.08,0.12l-0.08,0.11l-0.08,0.12l-0.08,0.12l-0.08,0.13l-0.07,0.12l-0.08,0.12l-0.07,0.13l-0.07,0.13l-0.08,0.13
				l-0.07,0.13l-0.07,0.13l-0.06,0.13l-0.07,0.13l-0.06,0.14l-0.07,0.14l-0.06,0.13l-0.06,0.14l-0.06,0.14l-0.06,0.15l-0.06,0.14
				L76.73,53.34L76.73,53.34z M75.81,58.67h-0.19l0,0v-0.18V58.3v-0.18l0.01-0.18l0.01-0.18l0.01-0.18l0.01-0.17l0.01-0.18
				l0.02-0.17l0.01-0.18l0.02-0.17l0.02-0.17l0.03-0.17l0.02-0.17l0.03-0.17l0.02-0.17l0.03-0.16l0.03-0.17l0.04-0.16l0.03-0.16
				L76.01,55l0.04-0.16l0.04-0.16l0.04-0.16l0.04-0.15l0.05-0.16l0.04-0.15l0.05-0.16l0.05-0.15l0.06-0.15l0.05-0.15l0.06-0.15
				l0.18,0.07l-0.05,0.15l-0.06,0.15l-0.05,0.15l-0.05,0.15l-0.05,0.15l-0.04,0.15l-0.05,0.15l-0.04,0.15l-0.04,0.16l-0.04,0.16
				l-0.04,0.15l-0.04,0.16l-0.03,0.16l-0.03,0.16l-0.03,0.16l-0.03,0.17l-0.03,0.16l-0.03,0.17l-0.02,0.16l-0.02,0.17l-0.02,0.17
				l-0.02,0.17l-0.02,0.17l-0.01,0.18l-0.01,0.17l-0.02,0.17l-0.01,0.18v0.18l-0.01,0.18v0.18l-0.01,0.18V58.67L75.81,58.67z
				 M76.73,64.03l-0.18,0.07l0,0l-0.06-0.15l-0.05-0.16l-0.06-0.15l-0.05-0.15l-0.05-0.16l-0.04-0.15l-0.05-0.16l-0.04-0.16
				l-0.04-0.15l-0.04-0.16l-0.04-0.17l-0.04-0.16l-0.03-0.16l-0.04-0.17l-0.03-0.16l-0.03-0.17l-0.02-0.17l-0.03-0.16l-0.02-0.17
				l-0.03-0.17l-0.02-0.18l-0.02-0.17l-0.01-0.17l-0.02-0.18l-0.01-0.18l-0.01-0.17l-0.01-0.18l-0.01-0.18l-0.01-0.18v-0.18v-0.19
				v-0.18h0.19v0.18l0.01,0.18v0.18l0.01,0.18v0.18l0.01,0.18l0.02,0.17l0.01,0.17l0.01,0.18l0.02,0.17l0.02,0.17l0.02,0.17
				l0.02,0.17l0.02,0.17l0.03,0.16l0.03,0.17l0.03,0.16l0.03,0.17l0.03,0.16l0.03,0.16l0.04,0.16l0.04,0.16l0.04,0.16l0.04,0.15
				l0.04,0.16l0.05,0.15l0.04,0.16l0.05,0.15l0.05,0.15l0.05,0.15l0.06,0.15L76.73,64.03L76.73,64.03z M79.18,68.05l-0.14,0.14l0,0
				l-0.1-0.11l-0.1-0.1l-0.09-0.11l-0.09-0.1l-0.09-0.11l-0.09-0.11l-0.09-0.12l-0.09-0.11l-0.08-0.11l-0.09-0.12l-0.08-0.12
				l-0.09-0.12l-0.08-0.12l-0.08-0.12l-0.07-0.13l-0.08-0.12l-0.08-0.13l-0.07-0.13l-0.08-0.13l-0.07-0.13l-0.07-0.13l-0.07-0.13
				l-0.07-0.14l-0.07-0.14l-0.06-0.13l-0.07-0.14l-0.06-0.14l-0.06-0.15l-0.07-0.14l-0.06-0.15l-0.05-0.15l-0.06-0.14l0.18-0.07
				l0.06,0.14l0.06,0.15l0.06,0.14l0.06,0.14l0.06,0.14l0.06,0.14l0.07,0.14l0.06,0.14l0.07,0.13l0.06,0.14l0.07,0.13l0.07,0.13
				l0.08,0.13l0.07,0.13l0.07,0.12l0.08,0.13l0.07,0.12l0.08,0.12l0.08,0.12l0.08,0.12l0.08,0.12l0.08,0.11l0.08,0.12l0.09,0.11
				l0.08,0.11l0.09,0.11l0.09,0.11l0.09,0.11l0.09,0.1l0.09,0.11l0.09,0.1L79.18,68.05L79.18,68.05z M82.77,70.57l-0.08,0.18l0,0
				l-0.13-0.06l-0.12-0.05l-0.13-0.06l-0.12-0.06l-0.13-0.06l-0.12-0.07l-0.12-0.06l-0.12-0.07l-0.12-0.07l-0.12-0.07l-0.12-0.07
				l-0.12-0.07l-0.11-0.07l-0.12-0.08l-0.11-0.07l-0.11-0.08l-0.12-0.08l-0.11-0.08l-0.11-0.08l-0.11-0.09l-0.1-0.08l-0.11-0.09
				l-0.11-0.09l-0.1-0.09l-0.1-0.09l-0.11-0.09l-0.1-0.1l-0.1-0.09l-0.1-0.1l-0.1-0.1l-0.1-0.1l-0.09-0.1l0.14-0.14l0.09,0.1
				l0.1,0.1l0.1,0.1l0.1,0.09l0.09,0.1l0.11,0.09l0.1,0.09l0.1,0.09l0.1,0.09l0.11,0.09l0.1,0.08l0.11,0.09l0.1,0.08l0.11,0.08
				l0.11,0.08l0.11,0.08l0.11,0.07l0.11,0.08l0.11,0.07l0.12,0.07l0.11,0.08l0.12,0.07l0.12,0.06l0.11,0.07l0.12,0.06l0.12,0.07
				l0.12,0.06l0.12,0.06l0.12,0.06l0.13,0.06l0.12,0.05L82.77,70.57L82.77,70.57z M87.01,71.46v0.19l0,0h-0.14h-0.14h-0.14
				l-0.13-0.01l-0.14-0.01l-0.14-0.01l-0.13-0.01l-0.14-0.01l-0.13-0.02l-0.14-0.01l-0.13-0.02l-0.14-0.02l-0.13-0.02l-0.13-0.03
				l-0.14-0.02l-0.13-0.03l-0.13-0.03l-0.14-0.03l-0.13-0.03l-0.13-0.03l-0.13-0.04l-0.13-0.03l-0.14-0.04l-0.13-0.04L83.6,71.1
				l-0.13-0.04l-0.13-0.05l-0.13-0.04l-0.12-0.05l-0.13-0.05l-0.13-0.06l-0.13-0.05l0.08-0.18l0.12,0.05l0.13,0.05l0.13,0.05
				l0.12,0.05l0.13,0.05l0.13,0.04l0.13,0.05l0.12,0.04L83.92,71l0.13,0.04l0.13,0.03l0.13,0.04l0.13,0.03l0.13,0.03l0.13,0.03
				l0.13,0.03l0.13,0.03l0.13,0.02l0.13,0.02l0.13,0.02l0.14,0.02l0.13,0.02l0.13,0.02l0.13,0.01l0.14,0.01l0.13,0.02h0.13
				l0.14,0.01l0.13,0.01h0.14l0.13,0.01H87.01L87.01,71.46z"/>
		</g>
		<g>
			<path id="_x38__44_" class="st0" d="M109.74,34.22l0.14-0.14l0,0l0.06,0.05l0.05,0.05l0.06,0.05l0.06,0.05l0.06,0.05l0.06,0.05
				l0.05,0.04l0.07,0.04l0.06,0.04l0.06,0.04l0.06,0.04l0.07,0.03l0.06,0.04l0.06,0.03l0.07,0.03l0.07,0.03l0.06,0.02l0.07,0.03
				l0.07,0.02l0.07,0.02l0.07,0.02l0.07,0.02l0.07,0.02l0.08,0.01l0.07,0.01l0.08,0.01l0.07,0.01l0.08,0.01l0.07,0.01h0.08h0.08
				h0.08v0.2h-0.08h-0.09l-0.08-0.01h-0.08l-0.08-0.01l-0.08-0.01l-0.08-0.01l-0.08-0.02l-0.08-0.01l-0.07-0.02l-0.08-0.02
				l-0.07-0.02l-0.08-0.02l-0.07-0.03l-0.08-0.02l-0.07-0.03l-0.07-0.03l-0.07-0.03l-0.07-0.04l-0.07-0.03l-0.07-0.04l-0.06-0.04
				l-0.07-0.04l-0.06-0.04l-0.07-0.05l-0.06-0.05l-0.07-0.04l-0.06-0.05l-0.06-0.06l-0.06-0.05l-0.06-0.06L109.74,34.22
				L109.74,34.22z M108.8,31.96h0.19l0,0l0.01,0.08v0.07v0.08l0.01,0.07l0.01,0.07l0.01,0.07l0.01,0.08l0.01,0.07l0.01,0.07
				l0.02,0.07l0.02,0.06l0.02,0.07l0.02,0.07l0.02,0.07l0.03,0.06l0.02,0.07l0.03,0.06l0.03,0.07l0.03,0.06l0.04,0.06l0.03,0.06
				l0.04,0.07l0.04,0.06l0.04,0.06l0.04,0.06l0.04,0.06l0.05,0.05l0.05,0.06l0.04,0.06l0.05,0.06l0.06,0.05l0.05,0.06l-0.14,0.14
				l-0.06-0.06l-0.05-0.06l-0.05-0.06l-0.06-0.06l-0.05-0.06l-0.04-0.06l-0.05-0.07l-0.05-0.06l-0.04-0.07l-0.04-0.06l-0.04-0.07
				l-0.04-0.06l-0.03-0.07l-0.04-0.07l-0.03-0.07l-0.03-0.07L109,33.11l-0.02-0.07l-0.03-0.07l-0.02-0.07l-0.02-0.07l-0.02-0.08
				l-0.02-0.07l-0.01-0.08l-0.02-0.07l-0.01-0.08l-0.01-0.07l-0.01-0.08V32.2l-0.01-0.08v-0.08V31.96L108.8,31.96z M109.74,29.63
				l0.14,0.14l0,0l-0.05,0.06l-0.05,0.05l-0.06,0.06l-0.04,0.06l-0.05,0.06l-0.05,0.06l-0.04,0.06l-0.04,0.06l-0.04,0.06l-0.04,0.06
				l-0.04,0.06l-0.03,0.07l-0.04,0.06l-0.03,0.07l-0.03,0.06l-0.03,0.07l-0.02,0.07l-0.03,0.06l-0.02,0.07l-0.02,0.07l-0.02,0.07
				l-0.02,0.07l-0.02,0.08l-0.01,0.07l-0.01,0.07l-0.01,0.08l-0.01,0.07l-0.01,0.08L109,31.73v0.07v0.08l-0.01,0.08h-0.19v-0.08
				v-0.09l0.01-0.08v-0.08l0.01-0.08l0.01-0.08l0.01-0.08l0.02-0.08l0.01-0.07l0.02-0.08l0.02-0.08l0.02-0.07l0.02-0.08l0.03-0.07
				l0.02-0.07l0.03-0.08l0.03-0.07l0.03-0.07l0.04-0.07l0.03-0.07l0.04-0.06l0.04-0.07l0.04-0.07l0.04-0.06l0.05-0.07l0.05-0.06
				l0.04-0.06l0.05-0.07l0.06-0.06l0.05-0.06l0.05-0.06L109.74,29.63L109.74,29.63z M112.07,28.69v0.2l0,0h-0.08h-0.08h-0.08
				l-0.07,0.01l-0.08,0.01l-0.07,0.01l-0.08,0.01l-0.07,0.01l-0.08,0.02l-0.07,0.01l-0.07,0.02l-0.07,0.02l-0.07,0.02l-0.07,0.02
				l-0.07,0.03l-0.06,0.02l-0.07,0.03l-0.07,0.03l-0.06,0.03l-0.06,0.04l-0.07,0.03l-0.06,0.04l-0.06,0.04l-0.06,0.04l-0.07,0.04
				l-0.05,0.04l-0.06,0.05l-0.06,0.05l-0.06,0.05L110,29.67l-0.05,0.05l-0.06,0.05l-0.14-0.14l0.06-0.05l0.06-0.06l0.06-0.05
				l0.06-0.06l0.06-0.05l0.07-0.04l0.06-0.05l0.07-0.04l0.06-0.05l0.07-0.04l0.06-0.04l0.07-0.04l0.07-0.03l0.07-0.04l0.07-0.03
				l0.07-0.03l0.07-0.03l0.08-0.02l0.07-0.03l0.08-0.02l0.07-0.02l0.08-0.02l0.07-0.02l0.08-0.01l0.08-0.02l0.08-0.01l0.08-0.01
				l0.08-0.01h0.08l0.08-0.01h0.09H112.07L112.07,28.69z M114.33,29.63l-0.14,0.14l0,0l-0.06-0.05l-0.06-0.05l-0.05-0.05l-0.06-0.05
				l-0.06-0.05l-0.06-0.05l-0.05-0.04l-0.06-0.04l-0.06-0.04l-0.07-0.04l-0.06-0.04l-0.06-0.03l-0.06-0.04l-0.07-0.03l-0.06-0.03
				l-0.06-0.03l-0.07-0.02l-0.07-0.03l-0.06-0.02l-0.07-0.02l-0.07-0.02l-0.07-0.02l-0.07-0.01l-0.07-0.02l-0.07-0.01l-0.07-0.01
				l-0.07-0.01l-0.07-0.01l-0.08-0.01h-0.07h-0.07h-0.08v-0.2h0.08h0.08l0.08,0.01h0.08l0.07,0.01l0.08,0.01l0.08,0.01l0.07,0.02
				l0.08,0.01l0.07,0.02l0.07,0.02l0.08,0.02l0.07,0.02l0.07,0.03l0.07,0.02l0.07,0.03l0.07,0.03l0.07,0.03l0.07,0.04l0.07,0.03
				l0.06,0.04l0.07,0.04l0.06,0.04l0.07,0.05l0.06,0.04l0.06,0.05l0.07,0.05l0.06,0.05l0.06,0.05l0.06,0.05l0.06,0.06L114.33,29.63
				L114.33,29.63z M115.28,31.96h-0.2l0,0v-0.08V31.8v-0.07l-0.01-0.08l-0.01-0.08l-0.01-0.07l-0.01-0.08l-0.01-0.07L115,31.27
				l-0.01-0.08l-0.02-0.07l-0.02-0.07l-0.02-0.07l-0.02-0.07l-0.03-0.06l-0.03-0.07l-0.02-0.07l-0.03-0.06l-0.04-0.07l-0.03-0.06
				l-0.03-0.07l-0.04-0.06l-0.04-0.06l-0.04-0.06l-0.04-0.06l-0.04-0.06l-0.05-0.06l-0.05-0.06l-0.05-0.06l-0.05-0.06l-0.05-0.05
				l-0.05-0.06l0.14-0.14l0.05,0.06l0.06,0.06l0.05,0.06l0.05,0.06l0.05,0.07l0.05,0.06l0.05,0.06l0.04,0.07l0.05,0.06l0.04,0.07
				l0.04,0.07l0.04,0.06l0.03,0.07l0.03,0.07l0.04,0.07l0.03,0.07l0.03,0.08l0.02,0.07l0.03,0.07l0.02,0.08l0.02,0.07l0.02,0.08
				l0.02,0.08l0.01,0.07l0.02,0.08l0.01,0.08l0.01,0.08l0.01,0.08v0.08l0.01,0.08v0.09V31.96L115.28,31.96z M114.33,34.22
				l-0.14-0.14l0,0l0.05-0.06l0.05-0.05l0.05-0.06l0.05-0.06l0.05-0.06l0.05-0.05l0.04-0.06l0.04-0.06l0.04-0.06l0.04-0.06
				l0.04-0.07l0.03-0.06l0.04-0.06l0.03-0.06l0.03-0.07l0.02-0.06l0.03-0.07l0.03-0.06l0.02-0.07l0.02-0.07l0.02-0.07l0.02-0.06
				l0.01-0.07l0.02-0.07l0.01-0.07l0.01-0.08l0.01-0.07l0.01-0.07l0.01-0.07v-0.08v-0.07v-0.08h0.2v0.08v0.08l-0.01,0.08v0.08
				l-0.01,0.08l-0.01,0.07l-0.01,0.08l-0.02,0.07l-0.01,0.08l-0.02,0.07l-0.02,0.08l-0.02,0.07l-0.02,0.07l-0.03,0.07l-0.03,0.07
				l-0.02,0.07l-0.03,0.07l-0.04,0.07l-0.03,0.07l-0.04,0.07l-0.03,0.06l-0.04,0.07l-0.04,0.06l-0.05,0.07l-0.04,0.06l-0.05,0.07
				l-0.05,0.06l-0.05,0.06l-0.05,0.06l-0.05,0.06l-0.06,0.06L114.33,34.22L114.33,34.22z M112.07,35.17v-0.2l0,0h0.08h0.07h0.07
				l0.08-0.01l0.07-0.01l0.07-0.01l0.07-0.01l0.07-0.01l0.07-0.01l0.07-0.02l0.07-0.02l0.07-0.02l0.07-0.02l0.06-0.02l0.07-0.03
				l0.07-0.02l0.06-0.03l0.06-0.03l0.07-0.03l0.06-0.04l0.06-0.03l0.06-0.04l0.07-0.04l0.06-0.04l0.06-0.04l0.05-0.04l0.06-0.05
				l0.06-0.05l0.06-0.04l0.05-0.06l0.06-0.05l0.06-0.05l0.14,0.14l-0.06,0.05l-0.06,0.06l-0.06,0.05l-0.06,0.06l-0.06,0.05
				l-0.07,0.04l-0.06,0.05l-0.06,0.05l-0.07,0.04l-0.06,0.04l-0.07,0.04l-0.06,0.04l-0.07,0.03l-0.07,0.04l-0.07,0.03l-0.07,0.03
				l-0.07,0.03l-0.07,0.02l-0.07,0.03L113,35.04l-0.08,0.02l-0.07,0.02l-0.07,0.02l-0.08,0.01l-0.07,0.02l-0.08,0.01l-0.08,0.01
				l-0.07,0.01h-0.08l-0.08,0.01h-0.08H112.07L112.07,35.17z M110.14,43.13v31.09h-0.2V43.13l0.1-0.1L110.14,43.13z M109.94,43.13
				v-0.1h0.1L109.94,43.13z M114.1,43.23h-4.06v-0.2h4.06l0.1,0.1L114.1,43.23z M114.1,43.03h0.1v0.1L114.1,43.03z M114,74.22V43.13
				h0.2v31.09l-0.1,0.1L114,74.22z M114.2,74.22v0.1h-0.1L114.2,74.22z M110.04,74.12h4.06v0.2h-4.06l-0.1-0.1L110.04,74.12z
				 M110.04,74.32h-0.1v-0.1L110.04,74.32z"/>
		</g>
		<g>
			<path id="_x39__44_" class="st0" d="M122.85,43.23h-4.32v-0.2h4.32l0.09,0.06L122.85,43.23z M122.85,43.03h0.07l0.02,0.06
				L122.85,43.03z M133.36,69.69l-10.6-26.52l0.18-0.08l10.6,26.52l-0.09,0.14L133.36,69.69z M133.45,69.75h-0.07l-0.02-0.06
				L133.45,69.75z M133.58,69.75h-0.12v-0.2h0.12l0.1,0.14L133.58,69.75z M133.68,69.69l-0.03,0.06h-0.07L133.68,69.69z
				 M144.33,43.17l-10.65,26.52l-0.19-0.08l10.66-26.52l0.09-0.06L144.33,43.17z M144.15,43.09l0.03-0.06h0.06L144.15,43.09z
				 M148.49,43.23h-4.25v-0.2h4.25l0.09,0.14L148.49,43.23z M148.49,43.03h0.15l-0.06,0.14L148.49,43.03z M135.59,74.18l12.81-31.09
				l0.18,0.08l-12.81,31.09l-0.09,0.06L135.59,74.18z M135.77,74.26l-0.03,0.06h-0.06L135.77,74.26z M131.23,74.12h4.45v0.2h-4.45
				l-0.09-0.06L131.23,74.12z M131.23,74.32h-0.06l-0.03-0.06L131.23,74.32z M118.64,43.09l12.68,31.09l-0.18,0.08l-12.69-31.09
				l0.09-0.14L118.64,43.09z M118.45,43.17l-0.05-0.14h0.14L118.45,43.17z"/>
		</g>
		<path class="st0" d="M114.49,85.57c0.83,0.8,1.89,1.21,3.17,1.21c0.96,0,1.74-0.26,2.33-0.78c0.6-0.54,0.9-1.15,0.9-1.86
			c0-0.85-0.26-1.52-0.84-2.06c-0.56-0.56-1.07-0.88-2.04-1.36c-0.71-0.37-1.22-0.68-1.52-0.94c-0.29-0.25-0.44-0.59-0.44-1.02
			c0-0.86,0.71-1.43,1.89-1.43c0.75,0,1.43,0.3,2.05,0.92v-1.27c-0.53-0.47-1.21-0.7-2.04-0.7c-1.86,0-3.03,1.02-3.03,2.48
			c0,0.74,0.23,1.29,0.76,1.78c0.28,0.22,0.54,0.42,0.79,0.58c0.24,0.15,0.59,0.35,1.04,0.58c0.87,0.45,1.47,0.84,1.78,1.15
			c0.31,0.3,0.48,0.73,0.48,1.3c0,0.81-0.78,1.59-2.19,1.59c-1.18,0-2.2-0.52-3.08-1.55V85.57z"/>
		<path id="_x31__85_" class="st0" d="M137.42,79.05c-1.03,0-1.91,0.38-2.62,1.12c-0.71,0.74-1.08,1.66-1.08,2.75
			c0,1.11,0.37,2.03,1.08,2.77c0.71,0.74,1.59,1.1,2.62,1.1c1.32,0,2.17-0.56,2.6-1.3v1.09h1.07v-7.31h-1.07v1.09
			C139.6,79.62,138.74,79.05,137.42,79.05z M137.42,85.79c-0.75,0-1.37-0.27-1.88-0.81c-0.5-0.55-0.74-1.23-0.74-2.06
			c0-0.82,0.24-1.5,0.74-2.04c0.51-0.55,1.13-0.83,1.88-0.83c0.78,0,1.44,0.28,1.94,0.83c0.53,0.54,0.79,1.22,0.79,2.04
			c0,0.83-0.26,1.51-0.79,2.06C138.87,85.52,138.21,85.79,137.42,85.79z"/>
		<path id="_x32__79_" class="st0" d="M157.91,79.05c-1.04,0-1.92,0.38-2.63,1.12c-0.71,0.74-1.07,1.66-1.07,2.75
			c0,1.11,0.36,2.03,1.07,2.77c0.71,0.74,1.59,1.1,2.63,1.1c1.32,0,2.17-0.56,2.59-1.3v1.09h1.08v-7.31h-1.08v1.09
			C160.09,79.62,159.23,79.05,157.91,79.05z M157.91,85.79c-0.76,0-1.38-0.27-1.89-0.81c-0.49-0.55-0.74-1.23-0.74-2.06
			c0-0.82,0.25-1.5,0.74-2.04c0.51-0.55,1.13-0.83,1.89-0.83c0.78,0,1.43,0.28,1.94,0.83c0.52,0.54,0.78,1.22,0.78,2.04
			c0,0.83-0.26,1.51-0.78,2.06C159.35,85.52,158.7,85.79,157.91,85.79z"/>
		<path id="_x33__79_" class="st0" d="M175,85.57c0.82,0.8,1.89,1.21,3.16,1.21c0.97,0,1.75-0.26,2.34-0.78
			c0.6-0.54,0.9-1.15,0.9-1.86c0-0.85-0.26-1.52-0.84-2.06c-0.57-0.56-1.08-0.88-2.04-1.36c-0.71-0.37-1.22-0.68-1.52-0.94
			c-0.29-0.25-0.44-0.59-0.44-1.02c0-0.86,0.71-1.43,1.88-1.43c0.76,0,1.44,0.3,2.06,0.92v-1.27c-0.54-0.47-1.22-0.7-2.04-0.7
			c-1.86,0-3.04,1.02-3.04,2.48c0,0.74,0.23,1.29,0.77,1.78c0.27,0.22,0.54,0.42,0.78,0.58c0.25,0.15,0.6,0.35,1.05,0.58
			c0.87,0.45,1.46,0.84,1.77,1.15c0.32,0.3,0.48,0.73,0.48,1.3c0,0.81-0.78,1.59-2.18,1.59c-1.18,0-2.2-0.52-3.08-1.55V85.57z"/>
		<g>
			
				<radialGradient id="SVGID_1_" cx="16693.4785" cy="-7352.521" r="669.0394" gradientTransform="matrix(-0.0134 0.0517 0.0557 -3.904270e-03 807.4446 -848.5607)" gradientUnits="userSpaceOnUse">
				<stop  offset="0" style="stop-color:#25303C"/>
				<stop  offset="0.6" style="stop-color:#3F9DB1"/>
				<stop  offset="0.7412" style="stop-color:#186995"/>
				<stop  offset="1" style="stop-color:#25303C"/>
			</radialGradient>
			<path class="st1" d="M176.3,41.45L176.3,41.45c6.11,6.11,6.11,16.11,0,22.23L165.18,74.8l-11.12-11.12
				c-6.11-6.11-6.11-16.11,0-22.23l0,0C160.19,35.34,170.19,35.34,176.3,41.45z"/>
			<path class="st2" d="M165.15,46.89c-1.7,0-3.14,0.6-4.35,1.81c-1.2,1.2-1.8,2.64-1.8,4.34s0.6,3.14,1.8,4.35
				c1.21,1.2,2.65,1.8,4.35,1.8c1.69,0,3.14-0.6,4.34-1.8c1.21-1.21,1.81-2.65,1.81-4.35s-0.6-3.14-1.81-4.34
				C168.29,47.49,166.84,46.89,165.15,46.89z M171.3,61.25c-1.77,1.35-3.81,2.03-6.14,2.03c-2.82,0-5.25-1.01-7.25-3.01
				c-1.99-2-3-4.42-3-7.24s1.01-5.24,3-7.24c2-2,4.43-3.01,7.25-3.01c2.82,0,5.23,1.01,7.24,3.01c2,2,3,4.42,3,7.24v10.24h-4.09
				V61.25z"/>
		</g>
	</g>
</g>
</svg>
