<?xml version="1.0" encoding="UTF-8"?> <svg xmlns="http://www.w3.org/2000/svg" id="Capa_2" data-name="Capa 2" viewBox="0 0 586.82 118.67"><defs><style> .cls-1 { fill: #f4c00f; } .cls-2 { fill: #e65a2b; } .cls-3 { fill: #009ad8; } </style></defs><g id="Capa_1-2" data-name="Capa 1"><g><path class="cls-1" d="M39.64,61.26c1.25.86,1.19,2.6,2.3,3.48l.56,3.85-2.79,4.1c-3.55,1.86-8.83,2.67-12.12-.31-1.86-1.68-2.36-4.1-1.86-6.53l1.31-3.53c.74-.5,1.74-.62,2.23-1.5,1.74-1.11,3.98-.86,5.97-1.29,1.49.48,3.73-.32,4.4,1.73"></path><path class="cls-2" d="M30.45,83.93c1.12,0,1.92.81,2.99.62,1.49.56,1.3,2.37,2.85,2.8,1.18,2.35,1.93,4.9,2.55,7.45-.44,1.49.8,2.37.37,3.74l.42.24c.07,1.43-.12,3.05-.67,4.41.24,2.61-1.07,4.78-2.17,7.02-.81.49-1.19,1.92-2.3,1.67-1.99.62-2.18,3.61-4.61,3.24-1.55,1.18-3.66.5-5.53.56-1.05-.56-2.55-.42-3.28-1.36-1.87-.75-3.55-2.12-5.16-3.49-.63-1.37-2.06-1.98-2.24-3.54.56-1.87-.62-3.53-.12-5.41l-.37-3.11,1.17-5.34c1.99-1.06,1.44-3.49,3.42-4.23,1.24-2.85,4.22-3.47,6.52-4.92.87-.18,1.93.32,2.6-.48,1.25-.2,2.43,1.11,3.55.12"></path><path class="cls-3" d="M131.79,1.17c-.49,8.77-7.7,14.66-11.49,22.06-1.63,4.4-5.47,7.02-8.2,10.99-2.5,2.55-4.91,5.35-6.96,8.2.37,2.04,2.53,2.61,3.78,4.1,2.79,1.68,3.11,4.84,5.54,6.76,1.43,0,1.43,2.12,2.97,1.87,3.3,3.55,5.97,7.22,8.71,11.07.44,1.36,1.12,2.73,2.29,3.72,2.18,3.17,3.99,6.52,6.22,9.75.32,3.62,3.36,6.04,4.29,9.39,1.37,1.8,1.92,3.91,3.17,5.71,1.92,4.23,3.23,8.64,5.53,12.68.43.94-.12,1.87-.62,2.56-.87.68-1.55-.57-2.55-.39-5.09-1.85-9.94-4.53-14.66-7.38-4.85-3.92-10.19-6.71-14.97-10.81-1.87-.5-2.61-2.68-4.35-3.55-4.61-2.86-8.28-6.95-12.93-9.63-2.11-1.62-4.22-3.16-6.33-4.84-1.62-.2-2.19-2.06-3.73-2.61-3.49-2.11-6.65-5.03-10.19-7.03-.31.5,0,1.24-.31,1.74-2.36,2.3-1.74,5.84-3.41,8.39-.07,3.66-2.61,6.33-3.67,9.56-2.92,5.22-5.47,10.56-8.51,15.72-4.04,5.35-6.22,11.81-11.92,16.1-1.25,1.56-2.67,2.36-4.23,3.36-.68-.2-1.67-.06-1.86-.94-.69-1.29.2-3.29-.74-4.47.8-1.8.3-3.85.68-5.84l-.31-.87c.07-2.73,1.43-5.04.87-7.83.75-1.74,1.07-3.67,1.24-5.59.87-2.36,1.62-4.91,1.87-7.46.81-1.49,1.12-3.41.94-5.16.62-1.6.74-3.54,2.42-4.73.25-1.05,0-2.1.19-3.23,1.68-5.09,3.73-10,5.04-15.21,0-.38-.38-.51-.62-.57-3.67-.18-7.08.57-10.5-.37-5.59-.07-11.25-.81-16.59-1.94-2.17-.42-4.78-.19-6.77-1.42-1.32.05-2.81.31-4.04-.38-2.55-1.25-5.65-1.06-8.2-2.42-1.93.25-3.3-1-5.04-1.19-1.68.13-2.61-1.3-3.79-2.23v-.56c3.1-4.23,8.08-5.41,12.56-7.02,4.41-1.37,9.31-1.48,13.92-2.42,2.92-.5,6.1.32,9.01-.2,5.28.13,10.37,1,15.6,1.13,1.74.24,3.35,1.06,5.1.99l-.07-.75-4.9-6.71c-1.87-4.35-5.27-8.01-6.46-12.61-1.12-1.37-.07-3.42-.93-4.91-.06-.69.49-1.18.81-1.74,1.06-.44,2.24.31,3.29-.38,3.17.74,6.09,1.86,9.26,2.49,3.29,1.3,6.64,2.6,9.56,4.78,3.66,2.62,8.08,4.29,10.93,8.32.76.68,1.93.81,2.92.56.87-.12,1.05-1.17,1.86-1.5,3.86-2.42,8.21-3.79,12-6.46,1.54-1.56,4.04-1.74,4.98-3.85,1.17-.56,2.23-1.3,3.47-1.62,2.17-1.55,4.34-3.23,6.7-4.46,1.26-.14,2.24-.82,3.24-1.5,3.85-2.1,7.89-3.85,11.54-6.27.82-2.17,3.24-1.68,4.98-2.17.87.18,2.05.04,2.42,1.17"></path><path d="M478.2,78.22c-1.58.99-3.58,1.69-6.66,1.69-4.17,0-7.75-3.47-7.75-8.05,0-6.37,4.78-8.74,9.34-8.74,1.79,0,3.68.29,4.77.49l.3,14.61ZM460.9,53.97c2.48-3.69,4.97-5.28,9.84-5.28,6.77,0,7.16,5.96,7.16,11.33-1.39,0-3.09-.3-4.68-.3-9.04,0-19.08,4.08-19.08,14.62,0,7.36,6.66,11.53,13.42,11.53,4.37,0,7.55-2.38,10.93-4.87,1.21,2.49,4.19,4.37,7.97,4.87l7.44-5.97-1.48-1.48c-.7.2-1.6.39-2.09.39-2.19,0-2.98-1.29-2.98-5.87v-3.47c.1-5.67.39-10.84.39-14.43,0-9.94-7.55-12.32-16.41-12.32-4.66,0-8.65.61-12.82,1.8v9.45h2.38Z"></path><path d="M239.85,28.81h-4.29c-3.15-9.59-13.15-13.36-21.92-13.36-17.74,0-25.09,14.27-25.09,31.41,0,28.76,20.8,33.64,29.27,33.64s15.71-3.56,20.2-10.71l3.16,1.33-3.16,11.32c-8.16,1.53-13.26,2.34-19.9,2.34-30.4,0-43.74-18.76-43.74-37.11,0-21.01,16.21-36.51,39.05-36.51,13.25,0,18.35,2.24,25.59,4.08l.82,13.56Z"></path><path d="M251.41,53.9v-9.47c4.18-1.19,8.17-1.79,12.84-1.79,8.87,0,16.43,2.4,16.43,12.36,0,3.59-.29,8.76-.4,14.44v3.5c0,4.57.8,5.87,3,5.87.49,0,1.38-.19,2.09-.4l1.49,1.49-7.46,5.98c-3.8-.49-6.78-2.39-7.98-4.89-3.38,2.5-6.57,4.89-10.95,4.89-6.78,0-13.45-4.19-13.45-11.56,0-10.55,10.07-14.63,19.13-14.63,1.58,0,3.28.3,4.68.3,0-5.38-.4-11.35-7.17-11.35-4.88,0-7.38,1.59-9.87,5.28h-2.39ZM270.84,63.56c-1.1-.2-2.99-.5-4.79-.5-4.58,0-9.35,2.39-9.35,8.76,0,4.6,3.59,8.07,7.76,8.07,3.09,0,5.08-.7,6.68-1.68l-.3-14.65Z"></path><path d="M303.08,42.77c0,4.18.41,12.95.41,21.12v14.54c0,3.39,1.57,3.88,3.88,4.48v2c-3.01,0-6-.31-8.98-.31-2.68,0-5.36.2-8.05.31v-2c2.38-.6,3.47-1.09,3.47-4.48v-12.35c0-7.18-.58-11.17-1.39-13.26-.8-1.98-1.79-2.68-4.17-3.09v-1.99c4.58-1.09,9.84-2.98,12.84-4.98h1.98ZM298.2,25.94c2.9,0,5.48,2.08,5.48,5.08s-2.58,5.08-5.48,5.08-5.47-2.09-5.47-5.08,2.58-5.08,5.47-5.08"></path><path d="M312.33,82.9c3.19-.5,5.28-2.99,6.57-4.68l9.67-12.35-11.45-15.54c-1.9-2.49-2.6-3.18-5.48-4.49v-1.99c2.99.1,6.08.31,9.07.31s5.97-.21,8.96-.31v1.99c-1.2.6-2.08.81-2.08,2.3,0,.7.29,1.99,1.19,3.19l5.48,7.47,4.87-6.48c1-1.39,1.5-2.58,1.5-3.29,0-1.88-1.2-2.59-2.79-3.19v-1.99c2.69.1,5.28.31,7.97.31s5.28-.21,7.87-.31v1.99c-3.88.9-5.97,3.29-8.16,6.08l-8.48,10.76,10.77,14.94c1.49,2,3.78,4.49,6.28,5.28v2c-3-.11-5.88-.31-8.86-.31s-5.89.21-8.87.31v-2c1.1-.1,2-1.19,2-2.19,0-.59-.79-2.19-1.6-3.39l-5.37-7.67-5.38,7.28c-.6.89-1.39,2.78-1.39,3.68,0,1.59.79,2.09,2.09,2.29v2c-2.58-.11-5.28-.31-7.86-.31-2.19,0-4.29.21-6.48.31v-2Z"></path><path d="M361.11,53.9v-9.47c4.19-1.19,8.16-1.79,12.86-1.79,8.86,0,16.44,2.4,16.44,12.36,0,3.59-.3,8.76-.4,14.44v3.5c0,4.57.8,5.87,2.99,5.87.49,0,1.39-.19,2.09-.4l1.49,1.49-7.47,5.98c-3.77-.49-6.77-2.39-7.97-4.89-3.39,2.5-6.57,4.89-10.95,4.89-6.79,0-13.46-4.19-13.46-11.56,0-10.55,10.06-14.63,19.13-14.63,1.6,0,3.29.3,4.69.3,0-5.38-.4-11.35-7.17-11.35-4.89,0-7.38,1.59-9.87,5.28h-2.4ZM380.55,63.56c-1.1-.2-2.99-.5-4.78-.5-4.6,0-9.38,2.39-9.38,8.76,0,4.6,3.6,8.07,7.77,8.07,3.09,0,5.09-.7,6.69-1.68l-.3-14.65Z"></path><path d="M416.56,21.05c0-1.89,1.19-1.99,3.98-1.99,10.74,0,14.81,5.77,14.81,14.52s-5.96,14.12-14.81,14.12c-1.29,0-2.69-.1-4.47-.2l.5-26.45ZM405.42,76.44c0,4.28-1.29,5.76-5.67,6.26v1.79h17.1c1.39,0,2.79.1,4.07.2,1.4.1,2.79.2,4.09.2,10.83,0,23.66-4.17,23.66-16.99,0-10.35-6.27-15.62-15.62-18.21v-.2c7.46-2.39,14.42-7.86,14.42-16.3,0-12.93-13.32-17.71-24.46-17.71-2.39,0-4.67.4-9.15.4-3.97,0-8.05-.4-13.03-.4v2.2c2.69.39,4.28,1.29,4.28,5.06,0,8.96.29,21.57.29,33.51v20.19ZM416.06,51.77c2.08,0,3.68-.1,5.37-.1,9.54,0,15.11,6.76,15.11,15.82,0,7.65-5.07,13.82-13.61,13.82-6.16,0-6.87-1-6.87-6.37v-23.17Z"></path><path d="M495.53,49.61c2.98,0,4.38,1.69,4.38,4.57,0,3.18.49,8.56.49,14.32v9.74c0,3.37-1.2,3.77-3.68,4.68v1.98c2.79,0,5.68-.29,8.45-.29s5.68.2,8.56.29v-1.98c-2.68-.31-3.69-1.11-3.69-4.68v-8.16c0-7.76.21-13.33.21-17.11s6.36-4.66,8.35-4.66c7.06,0,8.16,7.36,8.16,12.72v17.21c0,3.37-.8,4.08-3.57,4.68v1.98c3.17,0,6.26-.29,9.44-.29,2.49,0,4.88.2,7.35.29v-1.98c-2.78-.81-3.58-1.5-3.58-4.68v-21.08c0-8.45-3.87-14.31-13.71-14.31-4.19,0-8.66,2.48-12.14,4.77.1-1.69.1-3.27.2-4.98h-1.99c-3.78,2.38-7.36,3.88-13.22,4.98v1.98Z"></path><path d="M586.78,82.8c-2.99-.9-6.56-4.08-7.85-5.58l-15.02-17.59,7.66-8.05c2.38-2.49,5.67-4.77,9.25-5.77v-1.98c-2.49.2-4.98.3-7.46.3-2.69,0-5.47-.11-8.16-.3v1.98c.9.4,1.78,1.59,1.78,2.59,0,1.1-.48,2.59-2.57,4.68l-8.16,8.05V14.3h-2.19c-3.57,2.68-8.25,4.77-13.21,6.06v2.29c2.48,0,4.76,2.38,4.96,6.46.31,3.78.8,11.24.8,17.01v32.2c0,2.19-.8,3.98-3.78,4.48v1.99c2.68-.2,5.27-.3,7.95-.3,2.99,0,5.87.3,8.85.3v-1.99c-2.39-.5-3.38-1.69-3.38-4.67v-13.62h.2l10.25,11.24c1.68,1.88,2.88,4.17,2.88,5.26,0,.99-.7,1.79-1.6,1.79v1.99c3.38,0,6.76-.3,10.15-.3,2.88,0,5.77.2,8.65.3v-1.99Z"></path><polygon points="175.91 102.38 175.91 103.92 175.91 103.99 175.91 105.53 586.82 105.53 586.82 103.99 586.82 103.92 586.82 102.38 175.91 102.38"></polygon></g></g></svg> 