<?xml version="1.0" encoding="UTF-8"?>
<svg version="1.1" xmlns="http://www.w3.org/2000/svg" width="488" height="279">
<path d="M0 0 C4.91584954 1.29175608 8.22297724 3.44078353 12.0078125 6.76171875 C16.54017792 11.43631321 19.39530885 16.68606445 21 23 C23.2770589 35.99875337 23.17531615 48.85128877 23 62 C13.43 62 3.86 62 -6 62 C-6.495 44.675 -6.495 44.675 -7 27 C-8.65 26.67 -10.3 26.34 -12 26 C-12.33 26.33 -12.66 26.66 -13 27 C-13.401249 32.05355673 -13.41917611 37.12029137 -13.5 42.1875 C-13.55414063 43.59193359 -13.60828125 44.99636719 -13.6640625 46.44335938 C-13.7612339 53.94985019 -13.14951457 59.7408334 -9.86328125 66.5546875 C-6.89710833 71.81849956 -3.65332944 76.38889612 0.3125 80.9375 C10.18266197 92.61976202 19.80865642 104.94761029 22.609375 120.3515625 C24.12358158 134.49425193 24.19902074 151.05579755 19.25 164.5625 C16.76275329 169.46790324 14.72163078 172.93377378 11 177 C5.36825237 180.63396878 -0.07243097 182.71112646 -6.76171875 183.203125 C-13.65110553 183.31350236 -19.65177422 182.80951884 -26 180 C-31.37477847 176.83836561 -34.25677463 174.07284091 -37.375 168.6875 C-41.46146877 161.05105416 -42.25175685 153.14116315 -42.1953125 144.58984375 C-42.1924826 143.73693253 -42.18965271 142.8840213 -42.18673706 142.00526428 C-42.17565831 139.31585882 -42.15057793 136.62680258 -42.125 133.9375 C-42.11495425 132.09961423 -42.10583121 130.26172317 -42.09765625 128.42382812 C-42.077472 123.94898023 -42.03830136 119.47487498 -42 115 C-32.76 115 -23.52 115 -14 115 C-13.67 128.2 -13.34 141.4 -13 155 C-11.68 155.66 -10.36 156.32 -9 157 C-8.34 156.34 -7.68 155.68 -7 155 C-6.50486636 150.37362103 -6.6295519 145.71226707 -6.625 141.0625 C-6.60050781 139.78052734 -6.57601562 138.49855469 -6.55078125 137.17773438 C-6.52046467 127.26926574 -8.31642678 119.96513256 -13.0078125 111.28515625 C-16.7604187 105.57316341 -20.59072904 100.17457626 -25.0625 95 C-33.03474256 85.67631975 -39.26623959 75.03690595 -42 63 C-42.5490667 57.17594594 -42.55988299 51.40857704 -42.5 45.5625 C-42.51546875 44.05623047 -42.5309375 42.54996094 -42.546875 40.99804688 C-42.50989247 30.36094793 -41.1876733 21.0455873 -36.1875 11.5625 C-32.3995985 7.12524396 -28.70199528 3.76717346 -23.3515625 1.35546875 C-15.67226869 -1.03655544 -7.92897371 -0.70239631 0 0 Z " fill="#646462" transform="translate(52,10)"/>
<path d="M0 0 C8.58 0 17.16 0 26 0 C26 15.51 26 31.02 26 47 C27.65 46.34 29.3 45.68 31 45 C37.65038176 44.2451777 43.33788154 44.31693762 49.5625 46.875 C53.85204767 50.77458879 56.10174963 54.55540591 58 60 C59.65226832 66.39654814 60.28144303 72.30971136 60.22705078 78.92602539 C60.22734283 79.87343597 60.22763489 80.82084656 60.22793579 81.79696655 C60.22655359 84.8972929 60.21104503 87.99737241 60.1953125 91.09765625 C60.19157842 93.25955575 60.18873331 95.42145696 60.18673706 97.58335876 C60.17913171 103.25011944 60.15951 108.91677622 60.1373291 114.58349609 C60.11680372 120.37531123 60.10772107 126.16714329 60.09765625 131.95898438 C60.07626103 143.30604238 60.04110431 154.65299626 60 166 C51.75 165.34 43.5 164.68 35 164 C34.97494385 161.25905029 34.9498877 158.51810059 34.92407227 155.6940918 C34.84068778 146.64956849 34.75199038 137.60510295 34.66066074 128.56065655 C34.6054383 123.0756959 34.55201931 117.59072991 34.50268555 112.10571289 C34.45503209 106.81482553 34.40268881 101.52400365 34.34705925 96.23319435 C34.32664017 94.21215249 34.30792634 92.19109266 34.29092598 90.17001915 C34.26687219 87.34464386 34.23681881 84.51939253 34.20532227 81.6940918 C34.18200584 79.27917671 34.18200584 79.27917671 34.15821838 76.81547546 C34.17942949 73.07720439 34.17942949 73.07720439 33 70 C31.68 69.67 30.36 69.34 29 69 C28.01 69.495 28.01 69.495 27 70 C26.67 107.29 26.34 144.58 26 183 C17.42 183 8.84 183 0 183 C0 122.61 0 62.22 0 0 Z " fill="#646462" transform="translate(89,10)"/>
<path d="M0 0 C8.58 0 17.16 0 26 0 C26 0.99 26 1.98 26 3 C26.721875 2.505 27.44375 2.01 28.1875 1.5 C33.79488447 -0.70618405 39.04659683 -0.53223272 45 0 C48.4375 1 48.4375 1 51 3 C55.04543241 7.28339903 57.22211734 10.79790553 58.65087891 16.50561523 C60.64748427 25.76577227 60.43285945 35.11362739 60.3984375 44.53515625 C60.40046348 46.50565193 60.40337926 48.47614687 60.40713501 50.44664001 C60.41153266 54.55572725 60.40520969 58.66461749 60.39111328 62.77368164 C60.37401171 68.01073141 60.38388522 73.24732011 60.40183067 78.48435307 C60.41272836 82.5467011 60.40919504 86.6089418 60.4014473 90.67129326 C60.39946239 92.60118097 60.40184365 94.53107879 60.40888596 96.46095467 C60.47694501 120.34356086 60.47694501 120.34356086 54.625 130.5625 C52.16555713 133.783199 50.66288412 135.4033582 47 137 C42.30929268 138.17267683 37.80122358 138.42028515 33 138 C31.02 137.34 29.04 136.68 27 136 C26.67 142.27 26.34 148.54 26 155 C17.42 155 8.84 155 0 155 C0 103.85 0 52.7 0 0 Z M28 23 C27.34 23.66 26.68 24.32 26 25 C25.80936614 27.72174744 25.75454727 30.45322644 25.75708008 33.18164062 C25.75518173 34.02728073 25.75328339 34.87292084 25.75132751 35.7441864 C25.74761327 38.54830097 25.75833317 41.35215833 25.76953125 44.15625 C25.77072281 46.09916147 25.77117626 48.04207353 25.7709198 49.98498535 C25.77248579 54.06050208 25.78078424 58.13593111 25.79418945 62.21142578 C25.81117944 67.444037 25.81500385 72.67655175 25.81424427 77.90918732 C25.81451579 81.92223029 25.81999402 85.93525204 25.82724571 89.94828796 C25.83043519 91.87806538 25.83240044 93.80784521 25.83313942 95.73762512 C25.83530002 98.43124516 25.84403822 101.1247615 25.85473633 103.81835938 C25.85854813 105.3534314 25.86235992 106.88850342 25.86628723 108.47009277 C25.75081447 111.84582602 25.75081447 111.84582602 27 114 C28.98 114 30.96 114 33 114 C35.24808843 109.50382313 35.25862963 107.08229594 35.2746582 102.09790039 C35.28419022 100.47263931 35.29372223 98.84737823 35.30354309 97.17286682 C35.30328167 95.39779641 35.30234463 93.62272599 35.30078125 91.84765625 C35.30466857 90.02689008 35.30900331 88.20612481 35.31376648 86.38536072 C35.32122698 82.56978414 35.32093861 78.75430009 35.31567383 74.9387207 C35.30987895 70.05160838 35.3268114 65.16487502 35.3500185 60.27782536 C35.36475743 56.51771331 35.36562733 52.7576925 35.36250877 48.99755669 C35.36302189 47.19584846 35.36825784 45.39413511 35.37832069 43.59245491 C35.39066978 41.07216411 35.38195478 38.55179675 35.37231445 36.03149414 C35.37294388 34.59794083 35.3735733 33.16438751 35.3742218 31.68739319 C35.18633097 28.02798905 35.18633097 28.02798905 33.72673035 24.99803162 C32.87199883 24.00900597 32.87199883 24.00900597 32 23 C30.68 23 29.36 23 28 23 Z " fill="#646462" transform="translate(289,55)"/>
<path d="M0 0 C2.30859375 0.99609375 2.30859375 0.99609375 6.05859375 3.24609375 C7.41984375 4.05046875 7.41984375 4.05046875 8.80859375 4.87109375 C12.29549803 8.55171493 14.23621384 12.54192753 16.05859375 17.24609375 C17.88811057 24.96695281 18.3444396 32.61773559 18.28564453 40.52246094 C18.28593658 41.57759888 18.28622864 42.63273682 18.28652954 43.71984863 C18.28515111 47.1609763 18.26966074 50.60187954 18.25390625 54.04296875 C18.25017082 56.44720339 18.24732636 58.85143956 18.24533081 61.25567627 C18.23773606 67.54874966 18.21812369 73.84172907 18.19592285 80.13476562 C18.17537439 86.57029957 18.16630993 93.00584887 18.15625 99.44140625 C18.13487353 112.04301645 18.09972569 124.64453254 18.05859375 137.24609375 C9.47859375 137.24609375 0.89859375 137.24609375 -7.94140625 137.24609375 C-8.27140625 136.25609375 -8.60140625 135.26609375 -8.94140625 134.24609375 C-9.91078125 134.74109375 -10.88015625 135.23609375 -11.87890625 135.74609375 C-16.64146654 137.50457755 -19.89159246 137.73032247 -24.94140625 137.24609375 C-29.38197034 135.54823101 -32.32144683 133.83849942 -35.75390625 130.55859375 C-39.98571651 124.15042393 -41.65641124 116.93023248 -42.1184082 109.33691406 C-42.18513178 106.05655955 -42.22619578 102.77701296 -42.25390625 99.49609375 C-42.28291016 98.366875 -42.31191406 97.23765625 -42.34179688 96.07421875 C-42.39914968 88.45070761 -41.32969499 83.10063185 -37.94140625 76.24609375 C-33.35532057 69.32691209 -26.87866554 64.62094195 -19.94140625 60.24609375 C-18.56082031 59.37210938 -18.56082031 59.37210938 -17.15234375 58.48046875 C-12.26073068 55.46373908 -12.26073068 55.46373908 -9.94140625 54.24609375 C-9.28140625 54.24609375 -8.62140625 54.24609375 -7.94140625 54.24609375 C-8.27140625 44.34609375 -8.60140625 34.44609375 -8.94140625 24.24609375 C-10.59140625 23.91609375 -12.24140625 23.58609375 -13.94140625 23.24609375 C-14.27140625 33.80609375 -14.60140625 44.36609375 -14.94140625 55.24609375 C-23.19140625 55.24609375 -31.44140625 55.24609375 -39.94140625 55.24609375 C-40.05003863 49.99552883 -40.12905159 44.74724662 -40.19140625 39.49609375 C-40.22492188 38.02269531 -40.2584375 36.54929688 -40.29296875 35.03125 C-40.37251114 26.08273145 -39.73139469 18.43782373 -35.94140625 10.24609375 C-33.37156053 6.35659752 -31.28556546 4.46949534 -27.37890625 1.93359375 C-19.32680937 -2.01925381 -8.64559454 -2.21593592 0 0 Z M-9.94140625 82.24609375 C-13.49520603 84.75788413 -13.49520603 84.75788413 -15.94140625 88.24609375 C-16.02611989 90.05951217 -16.04861708 91.87603536 -16.0390625 93.69140625 C-16.03583984 94.76777344 -16.03261719 95.84414062 -16.02929688 96.953125 C-16.02091797 98.08105469 -16.01253906 99.20898438 -16.00390625 100.37109375 C-15.99939453 101.50675781 -15.99488281 102.64242187 -15.99023438 103.8125 C-15.9784224 106.62375013 -15.96195132 109.43489605 -15.94140625 112.24609375 C-13.96140625 113.23609375 -13.96140625 113.23609375 -11.94140625 114.24609375 C-10.62140625 113.25609375 -9.30140625 112.26609375 -7.94140625 111.24609375 C-7.38788431 108.15051517 -7.38788431 108.15051517 -7.55078125 104.609375 C-7.56367188 103.31064453 -7.5765625 102.01191406 -7.58984375 100.67382812 C-7.64011719 98.63678711 -7.64011719 98.63678711 -7.69140625 96.55859375 C-7.71847656 94.50415039 -7.71847656 94.50415039 -7.74609375 92.40820312 C-7.79331418 89.02013726 -7.85916556 85.63346134 -7.94140625 82.24609375 C-8.60140625 82.24609375 -9.26140625 82.24609375 -9.94140625 82.24609375 Z " fill="#646462" transform="translate(405.94140625,55.75390625)"/>
<path d="M0 0 C4.07295592 1.93632331 6.72539891 3.51491475 9.8125 6.8125 C14.0206506 13.48709442 16.46808424 20.57117861 16.98706055 28.46896362 C17.04216532 31.37852756 17.03774593 34.28148283 17.0078125 37.19140625 C17.0049826 38.24408188 17.00215271 39.29675751 16.99923706 40.3813324 C16.98812562 43.71267516 16.96303798 47.04373977 16.9375 50.375 C16.92745852 52.64648047 16.91833472 54.91796519 16.91015625 57.18945312 C16.88992548 62.7306597 16.85075934 68.27127192 16.8125 73.8125 C5.2625 73.8125 -6.2875 73.8125 -18.1875 73.8125 C-18.043125 79.34 -17.89875 84.8675 -17.75 90.5625 C-17.70689697 92.30112305 -17.66379395 94.03974609 -17.61938477 95.83105469 C-17.5622229 97.88694824 -17.5622229 97.88694824 -17.50390625 99.984375 C-17.46724854 101.3878418 -17.43059082 102.79130859 -17.39282227 104.23730469 C-17.29285699 107.91952651 -17.29285699 107.91952651 -16.1875 111.8125 C-14.8675 112.1425 -13.5475 112.4725 -12.1875 112.8125 C-11.1975 112.3175 -11.1975 112.3175 -10.1875 111.8125 C-9.8575 101.2525 -9.5275 90.6925 -9.1875 79.8125 C-0.6075 79.8125 7.9725 79.8125 16.8125 79.8125 C16.86677176 84.43765993 16.90630801 89.06217382 16.9375 93.6875 C16.95425781 94.986875 16.97101563 96.28625 16.98828125 97.625 C17.03389104 106.6557388 16.4857186 114.50074437 13.1875 123 C10.30533678 127.62663043 7.37502424 130.82870387 2.8125 133.8125 C-3.29559593 136.71230312 -9.52991836 137.29549022 -16.23046875 137.09765625 C-22.49225656 136.49381145 -27.51996902 134.7419435 -33 131.6875 C-36.89906372 128.17069743 -39.28169709 124.69478161 -41.1875 119.8125 C-42.7251983 113.76631455 -43.44606226 108.24287772 -43.47802734 102.01074219 C-43.48474457 101.18174911 -43.49146179 100.35275604 -43.49838257 99.49864197 C-43.5172227 96.78549029 -43.52127973 94.07258784 -43.5234375 91.359375 C-43.52987546 89.45281884 -43.53660455 87.54626364 -43.54360962 85.63970947 C-43.55554772 81.65219841 -43.55929406 77.66477375 -43.55810547 73.67724609 C-43.55790256 68.59929026 -43.58519175 63.5218958 -43.61964989 58.44407272 C-43.64202597 54.50778726 -43.64593973 50.57163457 -43.64488602 46.63529205 C-43.64722638 44.7648246 -43.65596032 42.89435261 -43.67155075 41.02394867 C-43.75099534 30.50828434 -43.57852828 20.57082671 -39.1875 10.8125 C-36.6701254 6.81483395 -34.0575918 4.04633877 -30.109375 1.44140625 C-21.27700757 -2.8996723 -9.32238267 -2.74931286 0 0 Z M-15.1875 21.8125 C-15.8475 22.4725 -16.5075 23.1325 -17.1875 23.8125 C-18.06820529 27.33532114 -18.30418989 29.8748004 -18.28515625 33.453125 C-18.28193359 34.52304688 -18.27871094 35.59296875 -18.27539062 36.6953125 C-18.26701172 37.80648437 -18.25863281 38.91765625 -18.25 40.0625 C-18.24548828 41.18914062 -18.24097656 42.31578125 -18.23632812 43.4765625 C-18.22455397 46.25526217 -18.2081084 49.03385409 -18.1875 51.8125 C-15.2175 51.8125 -12.2475 51.8125 -9.1875 51.8125 C-9.10076677 47.18761724 -9.04719839 42.56294191 -9 37.9375 C-8.97486328 36.61878906 -8.94972656 35.30007812 -8.92382812 33.94140625 C-8.91416016 32.68457031 -8.90449219 31.42773438 -8.89453125 30.1328125 C-8.8788208 28.97023926 -8.86311035 27.80766602 -8.84692383 26.60986328 C-8.95931396 25.6867334 -9.0717041 24.76360352 -9.1875 23.8125 C-10.1775 23.1525 -11.1675 22.4925 -12.1875 21.8125 C-13.1775 21.8125 -14.1675 21.8125 -15.1875 21.8125 Z " fill="#646462" transform="translate(207.1875,56.1875)"/>
<path d="M0 0 C8.25 0 16.5 0 25 0 C25.33 0.66 25.66 1.32 26 2 C26.825 1.67 27.65 1.34 28.5 1 C32 0 32 0 40 0 C40 10.23 40 20.46 40 31 C37.69 29.02 35.38 27.04 33 25 C30.24235649 24.05759076 30.24235649 24.05759076 28 24 C27.34 24.99 26.68 25.98 26 27 C25.78482759 30.53485237 25.68859029 33.99336607 25.68115234 37.5300293 C25.67110672 38.61311371 25.6610611 39.69619812 25.65071106 40.81210327 C25.61976922 44.39946959 25.60281323 47.98676092 25.5859375 51.57421875 C25.56723472 54.05858511 25.54766199 56.54294505 25.5272522 59.02729797 C25.47583108 65.57195259 25.43625874 72.11662783 25.39910889 78.66137695 C25.35913177 85.33745465 25.30801077 92.01344584 25.2578125 98.68945312 C25.16093499 111.79291416 25.07759763 124.89641059 25 138 C16.75 138 8.5 138 0 138 C0 92.46 0 46.92 0 0 Z " fill="#646462" transform="translate(239,55)"/>
<path d="M0 0 C4.11943039 3.5804395 6.57966645 8.06915369 9.25 12.75 C9.93835938 13.93916016 9.93835938 13.93916016 10.640625 15.15234375 C11.76601718 17.09833439 12.88377506 19.04873656 14 21 C9.84977595 25.76812341 4.9342054 27.3978096 -0.8671875 29.60546875 C-12.66257312 33.58557524 -23.60154676 34.32916248 -36 34 C-36 25.75 -36 17.5 -36 9 C-31.2046875 8.4121875 -31.2046875 8.4121875 -26.3125 7.8125 C-16.89321372 6.55625452 -8.53889221 4.26944611 0 0 Z " fill="#1B5EA9" transform="translate(242,235)"/>
<path d="M0 0 C1.08539063 0.34933594 2.17078125 0.69867188 3.2890625 1.05859375 C4.71992188 1.51363281 6.15078125 1.96867188 7.625 2.4375 C9.74808594 3.11619141 9.74808594 3.11619141 11.9140625 3.80859375 C18.10084676 5.6125796 23.94749384 6.19370866 30.375 6.5625 C31.80585938 6.64628906 33.23671875 6.73007813 34.7109375 6.81640625 C35.79632813 6.87699219 36.88171875 6.93757812 38 7 C38.90473908 15.36883649 39.11055829 23.58528588 39 32 C22.40020691 32.40856373 7.75684028 31.75484556 -7.8046875 25.28125 C-8.52914063 24.8584375 -9.25359375 24.435625 -10 24 C-10.33 23.01 -10.66 22.02 -11 21 C-10.10375977 18.73168945 -10.10375977 18.73168945 -8.69140625 16.11328125 C-8.19189453 15.17548828 -7.69238281 14.23769531 -7.17773438 13.27148438 C-6.37819336 11.80678711 -6.37819336 11.80678711 -5.5625 10.3125 C-5.03333984 9.32443359 -4.50417969 8.33636719 -3.95898438 7.31835938 C-2.64820926 4.87394092 -1.3282889 2.43493283 0 0 Z " fill="#1B5EA9" transform="translate(355,233)"/>
<path d="M0 0 C2.11535156 -0.01160156 2.11535156 -0.01160156 4.2734375 -0.0234375 C11.49763097 -0.00988367 18.03407578 0.29083381 25 2.25 C23.8356269 10.74307438 22.23691302 18.97342182 20 27.25 C18.09541016 27.00636719 18.09541016 27.00636719 16.15234375 26.7578125 C10.94459727 26.18132423 5.79763636 26.10202208 0.5625 26.125 C-0.31470703 26.12113281 -1.19191406 26.11726563 -2.09570312 26.11328125 C-8.12750983 26.12217116 -14.00649984 26.57026911 -20 27.25 C-24.40774487 10.54157175 -24.40774487 10.54157175 -25 2.25 C-16.66981667 -0.09286406 -8.6130366 -0.04723786 0 0 Z " fill="#1B5EA9" transform="translate(300,222.75)"/>
<path d="M0 0 C4.16107905 1.04026976 5.81387067 2.21089838 9.125 4.8125 C16.01834543 9.95719973 22.8423796 12.2807932 31 15 C29.68 22.92 28.36 30.84 27 39 C24 40 24 40 21.13671875 39.46875 C7.95332578 35.76605299 -3.92583182 30.44683902 -14 21 C-16.13406292 18.73737907 -18.06685142 16.4418719 -20 14 C-16.51534444 10.12513562 -12.37574891 7.44216077 -8 4.6875 C-7.2884375 4.22021484 -6.576875 3.75292969 -5.84375 3.27148438 C-3.95624849 2.07947083 -1.98078143 1.02959368 0 0 Z " fill="#1B5EA9" transform="translate(156,228)"/>
<path d="M0 0 C7.02278686 5.22207228 13.08491872 12.16983744 17 20 C5.94719163 29.50153702 -6.20960343 34.21041122 -20.3203125 37.46875 C-23.66940292 37.95227049 -25.7932967 37.9482858 -29 37 C-29.83940008 33.91820258 -30.67171922 30.83478625 -31.5 27.75 C-31.73847656 26.87730469 -31.97695313 26.00460938 -32.22265625 25.10546875 C-33.24475158 21.27991194 -34 17.97912308 -34 14 C-32.25976562 13.56300781 -32.25976562 13.56300781 -30.484375 13.1171875 C-19.36162996 10.1988435 -9.32372096 6.99279072 0 0 Z " fill="#1B5EA9" transform="translate(447,224)"/>
<path d="M0 0 C8.25 0.66 16.5 1.32 25 2 C25.66 8.6 26.32 15.2 27 22 C23.39670827 22.83727941 19.79246494 23.66998318 16.1875 24.5 C15.16333984 24.73847656 14.13917969 24.97695312 13.08398438 25.22265625 C12.10107422 25.44824219 11.11816406 25.67382812 10.10546875 25.90625 C8.74651489 26.22045898 8.74651489 26.22045898 7.36010742 26.54101562 C5 27 5 27 2 27 C0.21118166 20.91520062 -0.24970026 15.29460444 -0.125 9 C-0.08375 6.03 -0.0425 3.06 0 0 Z " fill="#1B5EA9" transform="translate(124,192)"/>
<path d="M0 0 C1.12148438 -0.02578125 2.24296875 -0.0515625 3.3984375 -0.078125 C6.625 0.25 6.625 0.25 9.4140625 1.578125 C11.625 3.25 11.625 3.25 13.625 6.25 C13.295 8.23 12.965 10.21 12.625 12.25 C17.575 12.58 22.525 12.91 27.625 13.25 C27.625 15.89 27.625 18.53 27.625 21.25 C14.095 21.25 0.565 21.25 -13.375 21.25 C-13.375 15.64 -13.375 10.03 -13.375 4.25 C-8.50850387 0.60012791 -5.91492142 0.08121174 0 0 Z M-3.375 8.25 C-4.365 8.91 -5.355 9.57 -6.375 10.25 C-6.375 10.91 -6.375 11.57 -6.375 12.25 C-2.9011956 13.9869022 0.81866449 13.35573154 4.625 13.25 C5.285 12.92 5.945 12.59 6.625 12.25 C6.625 11.26 6.625 10.27 6.625 9.25 C3.3594952 7.6172476 0.2094961 8.08456172 -3.375 8.25 Z " fill="#18233D" transform="translate(450.375,143.75)"/>
<path d="M0 0 C1.051875 0.4125 2.10375 0.825 3.1875 1.25 C4.1775 2.57 5.1675 3.89 6.1875 5.25 C5.875 8.375 5.875 8.375 5.1875 11.25 C5.1875 11.91 5.1875 12.57 5.1875 13.25 C5.1875 15.56 5.1875 17.87 5.1875 20.25 C-3.3925 20.25 -11.9725 20.25 -20.8125 20.25 C-20.8125 17.25 -20.8125 14.25 -20.8125 11.25 C-20.915625 10.13625 -21.01875 9.0225 -21.125 7.875 C-21.021875 6.67875 -20.91875 5.4825 -20.8125 4.25 C-18.5625 1.875 -18.5625 1.875 -15.8125 0.25 C-10.30596472 -1.12663382 -5.56846282 -1.09543531 0 0 Z M-11.75 8.1875 C-12.430625 8.538125 -13.11125 8.88875 -13.8125 9.25 C-13.4825 10.24 -13.1525 11.23 -12.8125 12.25 C-8.99225863 12.93621034 -8.99225863 12.93621034 -4.8125 13.25 C-3.4925 12.59 -2.1725 11.93 -0.8125 11.25 C-1.1425 10.26 -1.4725 9.27 -1.8125 8.25 C-5.52760022 7.52154898 -8.1037211 7.02379397 -11.75 8.1875 Z " fill="#18233D" transform="translate(457.8125,170.75)"/>
<path d="M0 0 C1.69576172 -0.03867188 1.69576172 -0.03867188 3.42578125 -0.078125 C6.6875 0.25 6.6875 0.25 9.48046875 1.515625 C11.6875 3.25 11.6875 3.25 13.6875 7.25 C14.03417682 11.06344505 13.99971264 13.54752155 12.4375 17.0625 C10.6875 19.25 10.6875 19.25 6.6875 21.25 C3.68853824 21.32892005 0.68620326 21.33819715 -2.3125 21.25 C-2.3125 16.96 -2.3125 12.67 -2.3125 8.25 C-4.2925 9.24 -4.2925 9.24 -6.3125 10.25 C-5.6525 11.57 -4.9925 12.89 -4.3125 14.25 C-4.2347654 16.58203812 -4.22282272 18.91839059 -4.3125 21.25 C-6.5625 21.0625 -6.5625 21.0625 -9.3125 20.25 C-11.625 18.25 -11.625 18.25 -13.3125 15.25 C-13.875 10.75 -13.875 10.75 -13.3125 6.25 C-9.17057943 1.01810033 -6.47731363 0.08802691 0 0 Z M2.6875 8.25 C2.6875 10.23 2.6875 12.21 2.6875 14.25 C4.0075 13.92 5.3275 13.59 6.6875 13.25 C6.3575 11.6 6.0275 9.95 5.6875 8.25 C4.6975 8.25 3.7075 8.25 2.6875 8.25 Z " fill="#18233D" transform="translate(450.3125,118.75)"/>
<path d="M0 0 C1.98 0 3.96 0 6 0 C6 0.99 6 1.98 6 3 C6.83144531 2.96519531 7.66289062 2.93039063 8.51953125 2.89453125 C10.14955078 2.85392578 10.14955078 2.85392578 11.8125 2.8125 C12.89144531 2.77769531 13.97039062 2.74289063 15.08203125 2.70703125 C16.04496094 2.80371094 17.00789063 2.90039062 18 3 C18.99 3.99 19.98 4.98 21 6 C21.1875 10.1875 21.1875 10.1875 21 14 C18.69 14 16.38 14 14 14 C14 13.01 14 12.02 14 11 C11.36 11 8.72 11 6 11 C6 11.99 6 12.98 6 14 C4.02 14 2.04 14 0 14 C0 13.01 0 12.02 0 11 C-6.6 11 -13.2 11 -20 11 C-20 8.36 -20 5.72 -20 3 C-13.4 3 -6.8 3 0 3 C0 2.01 0 1.02 0 0 Z " fill="#18233D" transform="translate(457,102)"/>
<path d="M0 0 C2.31 0 4.62 0 7 0 C7 5.61 7 11.22 7 17 C4.69 17 2.38 17 0 17 C0 13 0 9 0 5 C0.99 4.34 1.98 3.68 3 3 C2.01 2.01 1.02 1.02 0 0 Z " fill="#18233D" transform="translate(427,174)"/>
<path d="M0 0 C1.98 0 3.96 0 6 0 C6 4.29 6 8.58 6 13 C4.02 13 2.04 13 0 13 C-1.0161692 8.37078475 -0.83796731 4.65537393 0 0 Z M2 2 C2 2.66 2 3.32 2 4 C2.66 4 3.32 4 4 4 C4 3.34 4 2.68 4 2 C3.34 2 2.68 2 2 2 Z " fill="#18233D" transform="translate(428,145)"/>
<path d="M0 0 C2.31 0 4.62 0 7 0 C7 0.99 7 1.98 7 3 C6.34 3 5.68 3 5 3 C5.66 4.32 6.32 5.64 7 7 C7 7.99 7 8.98 7 10 C6.34 10 5.68 10 5 10 C5 9.34 5 8.68 5 8 C4.34 8 3.68 8 3 8 C3 8.66 3 9.32 3 10 C2.01 9.67 1.02 9.34 0 9 C0.33 8.01 0.66 7.02 1 6 C1.66 6 2.32 6 3 6 C3 5.01 3 4.02 3 3 C2.01 2.67 1.02 2.34 0 2 C0 1.34 0 0.68 0 0 Z " fill="#18233D" transform="translate(427,159)"/>
<path d="M0 0 C2.31 0 4.62 0 7 0 C7 0.99 7 1.98 7 3 C5.02 3 3.04 3 1 3 C0.67 2.01 0.34 1.02 0 0 Z " fill="#18233D" transform="translate(427,170)"/>
</svg>
