<?xml version="1.0" encoding="UTF-8"?>
<svg version="1.1" xmlns="http://www.w3.org/2000/svg" width="179" height="100">
<path d="M0 0 C1.72880982 -0.05449838 3.45812712 -0.09301688 5.1875 -0.125 C6.15042969 -0.14820312 7.11335938 -0.17140625 8.10546875 -0.1953125 C11.12812778 0.0086456 13.26769985 0.73125368 16 2 C16.66 1.34 17.32 0.68 18 0 C25.26 0 32.52 0 40 0 C41.32 1.65 42.64 3.3 44 5 C43.67 6.98 43.34 8.96 43 11 C42.01 11.99 41.02 12.98 40 14 C38.68 14 37.36 14 36 14 C36.495 22.415 36.495 22.415 37 31 C37.86882813 29.5046875 38.73765625 28.009375 39.6328125 26.46875 C40.79661874 24.47901676 41.96069564 22.4894418 43.125 20.5 C43.69476563 19.51773437 44.26453125 18.53546875 44.8515625 17.5234375 C52.48059476 4.51940524 52.48059476 4.51940524 57 0 C59.31 0 61.62 0 64 0 C64.99 0.66 65.98 1.32 67 2 C67.66 1.34 68.32 0.68 69 0 C71.5419589 -0.05434116 74.08273682 -0.0938339 76.625 -0.125 C77.33785156 -0.14175781 78.05070312 -0.15851562 78.78515625 -0.17578125 C83.2612164 -0.21684602 86.77949278 0.30913433 91 2 C91.66 1.34 92.32 0.68 93 0 C100.26 0 107.52 0 115 0 C116.98 1.98 116.98 1.98 119 4 C119 5.98 119 7.96 119 10 C118.01 11.32 117.02 12.64 116 14 C114.35 14 112.7 14 111 14 C111.495 25.88 111.495 25.88 112 38 C113.65 37.34 115.3 36.68 117 36 C115.68 34.35 114.36 32.7 113 31 C113.33 29.68 113.66 28.36 114 27 C115.56116819 26.66048381 117.12401338 26.32867456 118.6875 26 C119.55761719 25.814375 120.42773438 25.62875 121.32421875 25.4375 C123.93712964 25.01027953 126.35813038 24.92383799 129 25 C129.33 22.36 129.66 19.72 130 17 C128.35 14.69 126.7 12.38 125 10 C125 8.68 125 7.36 125 6 C135.89 5.34 146.78 4.68 158 4 C158.33 5.32 158.66 6.64 159 8 C157.68 8.99 156.36 9.98 155 11 C157.97 11.33 160.94 11.66 164 12 C163 16 163 16 161.4375 18.25 C160.963125 18.8275 160.48875 19.405 160 20 C160.33 21.65 160.66 23.3 161 25 C155.06 30.94 149.12 36.88 143 43 C155.375 42.01 155.375 42.01 168 41 C168 47 168 47 166.71484375 49.97607422 C166.12832031 50.9920166 165.54179687 52.00795898 164.9375 53.0546875 C164.30585938 54.16328125 163.67421875 55.271875 163.0234375 56.4140625 C162.34923612 57.5678707 161.67475341 58.72151455 161 59.875 C160.32434298 61.05140763 159.64985128 62.22848537 158.9765625 63.40625 C157.32904894 66.27763078 155.66996788 69.14163933 154 72 C151.525 72.495 151.525 72.495 149 73 C148.6146106 72.2589502 148.6146106 72.2589502 148.22143555 71.50292969 C147.04713806 69.25001235 145.8673778 66.99999953 144.6875 64.75 C144.28337891 63.97269531 143.87925781 63.19539063 143.46289062 62.39453125 C141.53135464 58.71990181 139.66631798 55.20993621 137 52 C137 51.34 137 50.68 137 50 C132.51282966 53.86364295 128.12324647 57.74790208 124 62 C122.35 61.67 120.7 61.34 119 61 C119.66 57.04 120.32 53.08 121 49 C110.60463492 52.85215894 100.27485786 56.83691104 90 61 C89.43454468 61.93513428 89.43454468 61.93513428 88.85766602 62.88916016 C76.19704583 83.80838248 76.19704583 83.80838248 70.8125 92.3125 C69.80123047 93.91544922 69.80123047 93.91544922 68.76953125 95.55078125 C67 98 67 98 64 100 C61.69 100 59.38 100 57 100 C56.01 99.01 55.02 98.02 54 97 C53.67 91.72 53.34 86.44 53 81 C51.68 81.99 50.36 82.98 49 84 C45.25 84.6875 45.25 84.6875 42 85 C42 88.96 42 92.92 42 97 C41.01 97.99 40.02 98.98 39 100 C36.69 100 34.38 100 32 100 C31.01 99.01 30.02 98.02 29 97 C28.67 95.68 28.34 94.36 28 93 C27.13375 94.175625 27.13375 94.175625 26.25 95.375 C24 98 24 98 22.25 99.15625 C19.32007331 100.25497251 16.86987952 100.19282347 13.75 100.125 C12.67234375 100.10695313 11.5946875 100.08890625 10.484375 100.0703125 C9.66453125 100.04710938 8.8446875 100.02390625 8 100 C6.86800647 99.0919838 5.74467637 98.17316174 4.625 97.25 C3.68527344 96.48429687 3.68527344 96.48429687 2.7265625 95.703125 C0.78292193 93.78586869 -0.01927623 92.55454183 -1 90 C-1.22705078 86.60839844 -1.22705078 86.60839844 -1.1953125 82.609375 C-1.1924826 81.90476135 -1.18965271 81.20014771 -1.18673706 80.47418213 C-1.17557801 78.2326124 -1.15048193 75.99144814 -1.125 73.75 C-1.11496464 72.22656829 -1.10583976 70.70313029 -1.09765625 69.1796875 C-1.07565291 65.45299414 -1.04115272 61.72653667 -1 58 C0.32 56.68 1.64 55.36 3 54 C4.98 54 6.96 54 9 54 C10.70840281 55.63412443 11.93453047 56.86906094 13 59 C13.15378852 60.95774069 13.24971463 62.92017352 13.31640625 64.8828125 C13.35830078 66.04941406 13.40019531 67.21601562 13.44335938 68.41796875 C13.48267578 69.64128906 13.52199219 70.86460938 13.5625 72.125 C13.60568359 73.35605469 13.64886719 74.58710937 13.69335938 75.85546875 C13.79968704 78.90352853 13.90171781 81.9516719 14 85 C14.33 85 14.66 85 15 85 C15.33 76.09 15.66 67.18 16 58 C16.99 56.68 17.98 55.36 19 54 C25.4 53.75384615 25.4 53.75384615 28.4375 55 C28.953125 55.33 29.46875 55.66 30 56 C30.99 55.34 31.98 54.68 33 54 C37.62 54 42.24 54 47 54 C48.65 54.99 50.3 55.98 52 57 C52.33 50.73 52.66 44.46 53 38 C51.68 38 50.36 38 49 38 C48.73445313 38.72574219 48.46890625 39.45148437 48.1953125 40.19921875 C46.99927052 43.00170928 45.59670893 45.30479352 43.875 47.8125 C43.06675781 48.99779297 43.06675781 48.99779297 42.2421875 50.20703125 C41.83226562 50.79871094 41.42234375 51.39039063 41 52 C35.18338316 52.1438185 29.36673315 52.28618322 23.55004883 52.42724609 C21.5744533 52.47535653 19.59886713 52.5238527 17.62329102 52.57275391 C14.7710203 52.64328697 11.91871797 52.71239727 9.06640625 52.78125 C8.19415909 52.80312378 7.32191193 52.82499756 6.42323303 52.84753418 C0.94707238 52.97802445 -4.52226413 53.01934741 -10 53 C-10.33 51.35 -10.66 49.7 -11 48 C-10.505 47.505 -10.505 47.505 -10 47 C-3.565 46.505 -3.565 46.505 3 46 C1.9275 45.608125 0.855 45.21625 -0.25 44.8125 C-3.18194967 43.57549081 -4.19350682 42.78664632 -6.4375 40.3125 C-6.953125 39.549375 -7.46875 38.78625 -8 38 C-8 35.36 -8 32.72 -8 30 C-6.68 28.68 -5.36 27.36 -4 26 C-5.32 24.02 -6.64 22.04 -8 20 C-8 16.37 -8 12.74 -8 9 C-6.38288822 5.93599872 -4.96140888 3.96679369 -2.3125 1.6875 C-1.1678125 0.8521875 -1.1678125 0.8521875 0 0 Z M1 3 C-2.42578949 6.17539556 -2.42578949 6.17539556 -5 10 C-5.0689472 11.37342831 -5.08467708 12.75002102 -5.0625 14.125 C-5.041875 15.40375 -5.02125 16.6825 -5 18 C-3.75795032 20.27709108 -2.70707904 22.07719119 -1 24 C1.55866139 25.61137072 4.20773075 26.84785007 7 28 C7 29.65 7 31.3 7 33 C5.35 32.67 3.7 32.34 2 32 C1.34 31.34 0.68 30.68 0 30 C-1.32 30.33 -2.64 30.66 -4 31 C-4.33 31.33 -4.66 31.66 -5 32 C-4.67 34.31 -4.34 36.62 -4 39 C-2.32219658 40.55269907 -2.32219658 40.55269907 0 42 C3.15118325 42.72045367 3.15118325 42.72045367 6 43 C8.91399224 42.02866925 10.90743823 41.07970597 13.25 39.0625 C15.19842707 37.02580237 15.19842707 37.02580237 16 34 C16.03954234 31.66700175 16.04401732 29.33291811 16 27 C14.32949794 24.05991637 12.98769745 21.72592463 10.24609375 19.7109375 C8.54366129 18.72288693 6.77351375 17.85391403 5 17 C4.34 17 3.68 17 3 17 C3 15.02 3 13.04 3 11 C4.32 11.33 5.64 11.66 7 12 C7.99 12.99 8.98 13.98 10 15 C11.32 14.67 12.64 14.34 14 14 C14.33 12.35 14.66 10.7 15 9 C13.69864875 7.30824337 12.36244796 5.64295195 11 4 C9.08185404 2.87350758 9.08185404 2.87350758 7.0546875 2.90234375 C5.97574219 2.91974609 5.97574219 2.91974609 4.875 2.9375 C3.59625 2.958125 2.3175 2.97875 1 3 Z M20 3 C19.01 3.99 18.02 4.98 17 6 C17.66 7.65 18.32 9.3 19 11 C20.98 11 22.96 11 25 11 C25 20.57 25 30.14 25 40 C25.66 40.66 26.32 41.32 27 42 C29.475 41.505 29.475 41.505 32 41 C32.495 40.505 32.495 40.505 33 40 C33 30.43 33 20.86 33 11 C34.98 11 36.96 11 39 11 C39.66 9.35 40.32 7.7 41 6 C40.01 5.01 39.02 4.02 38 3 C32.06 3 26.12 3 20 3 Z M59 3 C55.28489747 6.31073763 52.98220294 10.15285771 50.5625 14.4375 C45.97307548 22.41347569 41.17301931 30.24265074 36.29125977 38.04272461 C35.76201904 38.8910083 35.23277832 39.73929199 34.6875 40.61328125 C34.21699219 41.36391846 33.74648438 42.11455566 33.26171875 42.88793945 C32.07740041 44.87043519 31.03275353 46.93449294 30 49 C32.97 49 35.94 49 39 49 C41.64 44.71 44.28 40.42 47 36 C51.455 35.505 51.455 35.505 56 35 C55.99492432 35.88961426 55.98984863 36.77922852 55.98461914 37.69580078 C55.95043694 48.76664663 56.12564712 59.82806021 56.37231445 70.89599609 C56.43845986 73.91886593 56.49756127 76.94182852 56.55664062 79.96484375 C56.59852909 81.89063438 56.64083084 83.81641608 56.68359375 85.7421875 C56.70030624 86.64411835 56.71701874 87.54604919 56.73423767 88.47531128 C56.75418289 89.30443024 56.77412811 90.13354919 56.79467773 90.98779297 C56.81799416 92.08122513 56.81799416 92.08122513 56.84178162 93.19674683 C56.8976509 95.10140587 56.8976509 95.10140587 58 97 C59.65 97 61.3 97 63 97 C69.01632055 89.39842674 73.83708975 81.14757592 78.76464844 72.82519531 C79.87201758 70.95859633 80.98646235 69.09636259 82.1015625 67.234375 C82.75463379 66.13319336 83.40770508 65.03201172 84.08056641 63.89746094 C85.8687675 61.19810065 87.56322107 59.11904386 90 57 C93.234375 55.515625 93.234375 55.515625 96.75 54.25 C97.92046875 53.82203125 99.0909375 53.3940625 100.296875 52.953125 C101.18890625 52.63859375 102.0809375 52.3240625 103 52 C99.90226756 51.15937603 97.21667249 50.91064799 94 51 C94.66 50.67 95.32 50.34 96 50 C96 49.34 96 48.68 96 48 C94.43662827 48.45535099 92.87434151 48.91442776 91.3125 49.375 C90.44238281 49.63023438 89.57226562 49.88546875 88.67578125 50.1484375 C86.05731296 50.98176025 83.54503772 51.96706894 81 53 C80.61666504 53.62044189 80.23333008 54.24088379 79.83837891 54.88012695 C78.10112765 57.69125316 76.36307307 60.50188184 74.625 63.3125 C74.02171875 64.28896484 73.4184375 65.26542969 72.796875 66.27148438 C72.21679688 67.20927734 71.63671875 68.14707031 71.0390625 69.11328125 C70.50490723 69.97735596 69.97075195 70.84143066 69.42041016 71.73168945 C68.3091945 73.50623477 67.16140648 75.25789028 66 77 C64.94378501 52.67648961 64.48708474 28.34014137 64 4 C62.35 3.67 60.7 3.34 59 3 Z M71 3 C70.34 3.66 69.68 4.32 69 5 C69 16.55 69 28.1 69 40 C69.66 40.66 70.32 41.32 71 42 C73.475 41.505 73.475 41.505 76 41 C77.21693876 38.56612247 77.31959896 36.58161154 77.5625 33.875 C77.706875 32.26625 77.85125 30.6575 78 29 C79.98 32.96 81.96 36.92 84 41 C85.65 41.33 87.3 41.66 89 42 C89.33 41.67 89.66 41.34 90 41 C90.20620439 38.18187335 90.25215002 35.73875531 89.33203125 33.04296875 C88.59497341 31.34392931 87.8014279 29.66964146 87 28 C87.64544429 24.51460083 89.10134397 21.97180943 91 19 C91 16.36 91 13.72 91 11 C88.63995263 6.9457032 88.63995263 6.9457032 85.25 3.8125 C82.32310792 2.75556675 79.85353275 2.8075319 76.75 2.875 C75.13351563 2.90207031 75.13351563 2.90207031 73.484375 2.9296875 C72.66453125 2.95289063 71.8446875 2.97609375 71 3 Z M95 3 C94.34 3.66 93.68 4.32 93 5 C93.33 6.65 93.66 8.3 94 10 C94.33 10.33 94.66 10.66 95 11 C96.65 11 98.3 11 100 11 C100 20.24 100 29.48 100 39 C100.66 39.99 101.32 40.98 102 42 C103.65 42 105.3 42 107 42 C108.20087891 39.9413677 108.20087891 39.9413677 108.11352539 37.11083984 C108.10567017 35.30413818 108.10567017 35.30413818 108.09765625 33.4609375 C108.09282227 31.50800781 108.09282227 31.50800781 108.08789062 29.515625 C108.07953466 28.13541601 108.07106971 26.75520768 108.0625 25.375 C108.05748501 23.98698074 108.0529221 22.59895978 108.04882812 21.2109375 C108.03700976 17.80724868 108.02053434 14.40364561 108 11 C109.98 11 111.96 11 114 11 C114.66 10.34 115.32 9.68 116 9 C115.67 7.35 115.34 5.7 115 4 C114.67 3.67 114.34 3.34 114 3 C107.73 3 101.46 3 95 3 Z M127 8 C129.475 11.465 129.475 11.465 132 15 C136.40038994 14.42289968 140.01220823 13.29780693 144.0625 11.5 C147.72068115 9.88041916 151.04384697 8.63879168 155 8 C155 7.67 155 7.34 155 7 C145.63250185 6.8179104 136.3412692 7.38673965 127 8 Z M147 11 C140.07 14.465 140.07 14.465 133 18 C132.67 19.98 132.34 21.96 132 24 C134.24759542 23.90692897 134.24759542 23.90692897 137 23 C139.4389585 21.33485054 141.61195232 19.40253756 143.8125 17.4375 C144.40998047 16.91736328 145.00746094 16.39722656 145.62304688 15.86132812 C147.08942387 14.58264738 148.54573706 13.29244159 150 12 C149.01 11.67 148.02 11.34 147 11 Z M17 14 C15.515 15.485 15.515 15.485 14 17 C14.92171052 19.37011277 15.8180108 21.67120167 17.05078125 23.8984375 C18.10100286 26.2236195 18.29913095 27.83488116 18.3125 30.375 C18.23497008 33.51754627 17.86837767 35.3553803 16.75 38.375 C15.01187114 40.98219329 13.63323707 42.35422683 11 44 C10.01 44.66 9.02 45.32 8 46 C13.94 46 19.88 46 26 46 C25.01 44.35 24.02 42.7 23 41 C22.56762695 37.95385742 22.56762695 37.95385742 22.48828125 34.60546875 C22.43510742 32.80239258 22.43510742 32.80239258 22.38085938 30.96289062 C22.35830078 29.71701172 22.33574219 28.47113281 22.3125 27.1875 C22.27833984 25.92228516 22.24417969 24.65707031 22.20898438 23.35351562 C22.12662871 20.23576555 22.05743471 17.11829241 22 14 C20.35 14 18.7 14 17 14 Z M94 14 C93.87882812 14.61488281 93.75765625 15.22976563 93.6328125 15.86328125 C93.46523437 16.67152344 93.29765625 17.47976562 93.125 18.3125 C92.96257812 19.11300781 92.80015625 19.91351563 92.6328125 20.73828125 C92 23 92 23 90 26 C90.56739868 30.12973628 90.56739868 30.12973628 92 34 C92.06996014 35.70702735 92.08440154 37.41668003 92.0625 39.125 C92.05347656 40.03507812 92.04445313 40.94515625 92.03515625 41.8828125 C92.02355469 42.58148438 92.01195313 43.28015625 92 44 C89.03 44 86.06 44 83 44 C81.68 42.68 80.36 41.36 79 40 C78.67 40.99 78.34 41.98 78 43 C76.02 43.66 74.04 44.32 72 45 C69.525 44.01 69.525 44.01 67 43 C67.33 50.92 67.66 58.84 68 67 C71.45804031 63.54195969 73.39159141 60.92256904 75.75 56.75 C76.8225 54.8525 77.895 52.955 79 51 C85.27 48.69 91.54 46.38 98 44 C97.67 34.1 97.34 24.2 97 14 C96.01 14 95.02 14 94 14 Z M153 14 C153.33 15.98 153.66 17.96 154 20 C156.31 18.35 158.62 16.7 161 15 C161 14.67 161 14.34 161 14 C158.36 14 155.72 14 153 14 Z M149 15 C145.04 18.465 145.04 18.465 141 22 C141.99 22.495 141.99 22.495 143 23 C147.455 22.01 147.455 22.01 152 21 C152 19.35 152 17.7 152 16 C151.01 15.67 150.02 15.34 149 15 Z M147.72192383 24.34545898 C146.38245522 24.55498298 145.04419846 24.77235214 143.70703125 24.99609375 C142.64798836 25.16468651 142.64798836 25.16468651 141.56755066 25.33668518 C139.31472624 25.69690462 137.06366528 26.06706724 134.8125 26.4375 C133.28461088 26.68359969 131.75661707 26.92905028 130.22851562 27.17382812 C126.4844209 27.7750293 122.74187692 28.38515244 119 29 C118.34 29.66 117.68 30.32 117 31 C119.64 33.64 122.28 36.28 125 39 C129.10693899 37.72287446 132.81593585 36.18709006 136.6171875 34.1796875 C137.63554687 33.64472656 138.65390625 33.10976563 139.703125 32.55859375 C140.74984375 32.00300781 141.7965625 31.44742187 142.875 30.875 C143.94492188 30.31167969 145.01484375 29.74835937 146.1171875 29.16796875 C148.74694017 27.78265261 151.37443083 26.39322404 154 25 C151.0029642 23.77103676 151.0029642 23.77103676 147.72192383 24.34545898 Z M150 28 C142.08 32.29 134.16 36.58 126 41 C125.01 46.28 124.02 51.56 123 57 C129.55377097 51.61359076 135.47246635 45.64114873 141.4375 39.625 C142.46525983 38.59221405 143.49325285 37.55966009 144.52148438 36.52734375 C147.01701598 34.02089713 149.50938082 31.5113292 152 29 C151.34 28.67 150.68 28.34 150 28 Z M164 44 C151.625 45.485 151.625 45.485 139 47 C139.66 48.65 140.32 50.3 141 52 C141.80824219 51.69964844 142.61648437 51.39929687 143.44921875 51.08984375 C144.51785156 50.70957031 145.58648437 50.32929687 146.6875 49.9375 C147.74324219 49.55464844 148.79898438 49.17179687 149.88671875 48.77734375 C153 48 153 48 155.89453125 48.37890625 C156.93673828 48.68634766 156.93673828 48.68634766 158 49 C158.99 48.34 159.98 47.68 161 47 C161 47.66 161 48.32 161 49 C160.28457031 49.25523438 159.56914062 49.51046875 158.83203125 49.7734375 C155.79753382 51.0876888 153.36811089 52.69496016 150.6875 54.625 C149.80449219 55.25664063 148.92148438 55.88828125 148.01171875 56.5390625 C147.34785156 57.02117188 146.68398437 57.50328125 146 58 C146.56050338 61.46332089 147.15342308 63.24640677 149.0625 66.3125 C149.701875 67.199375 150.34125 68.08625 151 69 C154.82956378 64.60673875 157.48491627 59.7795946 160.25 54.6875 C160.70890625 53.85154297 161.1678125 53.01558594 161.640625 52.15429688 C162.76471849 50.10516812 163.88435756 48.05373835 165 46 C164.67 45.34 164.34 44.68 164 44 Z M153 49 C153 49.66 153 50.32 153 51 C153.99 50.67 154.98 50.34 156 50 C155.01 49.67 154.02 49.34 153 49 Z M142 53 C143.98 53.99 143.98 53.99 146 55 C147.65 53.68 149.3 52.36 151 51 C147.61976483 51 145.16531063 51.87455622 142 53 Z M4 57 C3.34 57.66 2.68 58.32 2 59 C2 68.9 2 78.8 2 89 C2.99 90.65 3.98 92.3 5 94 C7.56610666 95.80796103 7.56610666 95.80796103 10 97 C12.97 97 15.94 97 19 97 C19.94875 96.278125 20.8975 95.55625 21.875 94.8125 C22.40867187 94.40644531 22.94234375 94.00039062 23.4921875 93.58203125 C25.12102959 92.0311253 25.12102959 92.0311253 26.08203125 89.80078125 C27.13790638 86.57923885 27.22741472 83.99225304 27.1953125 80.60546875 C27.18886719 79.40341797 27.18242188 78.20136719 27.17578125 76.96289062 C27.15902344 75.71701172 27.14226563 74.47113281 27.125 73.1875 C27.11597656 71.92228516 27.10695313 70.65707031 27.09765625 69.35351562 C27.07412394 66.23548436 27.04124545 63.11783903 27 60 C26.01 59.01 25.02 58.02 24 57 C22.68 57.33 21.36 57.66 20 58 C19.67 58.33 19.34 58.66 19 59 C18.67 68.57 18.34 78.14 18 88 C16.02 88 14.04 88 12 88 C11.67 87.67 11.34 87.34 11 87 C10.67 78.09 10.34 69.18 10 60 C9.34 59.01 8.68 58.02 8 57 C6.68 57 5.36 57 4 57 Z M34 57 C33.34 57.66 32.68 58.32 32 59 C32 70.88 32 82.76 32 95 C32.66 95.66 33.32 96.32 34 97 C35.98 96.505 35.98 96.505 38 96 C38.495 95.505 38.495 95.505 39 95 C39 90.71 39 86.42 39 82 C41.97 81.67 44.94 81.34 48 81 C48.804375 80.05125 49.60875 79.1025 50.4375 78.125 C51.11619141 77.32449219 51.11619141 77.32449219 51.80859375 76.5078125 C53.0878152 74.99405921 53.0878152 74.99405921 54 73 C54.04022391 70.6670134 54.04320247 68.33293334 54 66 C52.38288822 62.93599872 50.96140888 60.96679369 48.3125 58.6875 C47.549375 58.130625 46.78625 57.57375 46 57 C42.04 57 38.08 57 34 57 Z " fill="#3C63AC" transform="translate(11,0)"/>
<path d="M0 0 C2.475 0.99 2.475 0.99 5 2 C5 3.65 5 5.3 5 7 C4.67 7.33 4.34 7.66 4 8 C2.02 8 0.04 8 -2 8 C-2 5.69 -2 3.38 -2 1 C-1.34 0.67 -0.68 0.34 0 0 Z " fill="#3B64AB" transform="translate(52,65)"/>
<path d="M0 0 C1.65 0 3.3 0 5 0 C5.33 0.33 5.66 0.66 6 1 C6 2.98 6 4.96 6 7 C5.67 7.33 5.34 7.66 5 8 C3.35 8 1.7 8 0 8 C0 5.36 0 2.72 0 0 Z " fill="#3D64AB" transform="translate(88,11)"/>
<path d="M0 0 C0.33 0 0.66 0 1 0 C1 2.64 1 5.28 1 8 C-0.98 8 -2.96 8 -5 8 C-4.06204028 5.33042235 -3.27642919 3.30832487 -1.375 1.1875 C-0.92125 0.795625 -0.4675 0.40375 0 0 Z " fill="#3A60AE" transform="translate(67,19)"/>
<path d="M0 0 C0.66 0 1.32 0 2 0 C1.67 0.99 1.34 1.98 1 3 C0.01 2.34 -0.98 1.68 -2 1 C-1.34 0.67 -0.68 0.34 0 0 Z " fill="#3257BA" transform="translate(153,30)"/>
</svg>
