<?xml version="1.0" encoding="UTF-8"?> <svg xmlns="http://www.w3.org/2000/svg" id="Capa_1" viewBox="0 0 51.843376863186 29.99996663841"><g id="header__logo"><path fill="#f0d43a" d="M44.389885157347,6.077899932861c-2.199600219727-3.360889911652-6.038402557373-6.077899932861-12.331001281738-6.077899932861-3.704200744629,0-7.89349937439.736679971218-12.387800216675,2.211199998856,5.59760093689.312069892883,11.500299453735.820209980011,14.632699966431,1.363150119781,2.519802093506.437370061874,6.532600402832,1.119519948959,10.086101531982,2.503549814224Z"></path><path fill="#9373a9" d="M2.961803883314,11.154600143433c-1.858519911766,1.841099739075-2.961803883314,3.830699920654-2.961803883314,5.974699020386,0,5.635900497437,4.913133829832,7.973501205444,12.789183825254,8.914400100708-.619500160217-.429298400879-1.294699668884-.88519859314-2.052199363708-1.363199234009-2.932820320129-1.852699279785-6.805320262909-8.058200836182-7.775180578232-13.525899887085Z"></path><path fill="#2fb4e4" d="M11.168483942747,5.718259811401c2.921199798584-1.442039966583,5.769399642944-2.611439704895,8.502599716187-3.508219718933-3.52680015564-.196060180664-6.931699752808-.314390063286-9.444600105286-.314390063286C3.570873945951,1.895650029182,2.087063997984,6.22524023056,2.961803883314,11.154600143433c2.00005030632-1.98148059845,4.87601017952-3.791280269623,8.206680059433-5.435180187225v-.001160144806Z"></path><path fill="#dc5b26" d="M27.175983637571,26.64349937439c-5.413200378418,0-10.298500061035-.111398696899-14.386799812317-.599800109863,3.580199241638,2.483800888062,5.219500541687,4.077800750732,9.241600990295,3.949001312256,6.479299545288-.207599639893,13.531700134277-1.317899703979,19.151397705078-3.61840057373-3.038398742676.576599121094-7.524597167969.269199371338-14.006198883057.269199371338Z"></path><path fill="#4db47a" d="M44.389885157347,6.077899932861c1.86429977417,2.849269866943,2.549999237061,6.161399841309,2.549999237061,8.674300193787,0,5.181099891663-.559200286865,8.144000053406-2.105701446533,9.827399253845,4.109199523926-2.43159866333,6.85290145874-5.768199920654,7.004901885986-10.184799194336.143798828125-4.181099891663-3.345802307129-6.718250274658-7.449199676514-8.316900253296Z"></path><path fill="#231f20" d="M46.938682764769,14.753299713135c0,5.180000305176-.559200286865,8.144100189209-2.104499816895,9.82740020752-.875900268555.951400756836-2.068500518799,1.494300842285-3.653198242188,1.794799804688-3.039501190186.576499938965-7.524600982666.269100189209-14.006200790405.269100189209-5.41309928894,0-10.298398971558-.111400604248-14.387900352478-.599800109863-.618299484253-.42919921875-1.294699668884-.88399887085-2.051099777222-1.36429977417-2.933939933777-1.851499557495-6.80527973175-8.058200836182-7.775139808655-13.525899887085,2.000050067902-1.982640266418,4.876009941101-3.792439937592,8.205539703369-5.436340332031,2.921200752258-1.442039966583,5.769300460815-2.610279798508,8.502599716187-3.507059812546,5.5964012146.312069892883,11.500301361084.820209980011,14.632699966431,1.364310026169,2.519802093506.437369823456,6.532600402832,1.119520187378,10.084899902344,2.502389907837,1.864398956299,2.849269866943,2.549999237061,6.161399841309,2.549999237061,8.675399780273h.002300262451Z"></path><path fill="#fff" d="M13.20458433032,8.318099975586h-1.956000328064v5.715900421143h-.586999893188v-5.715900421143h-1.971079826355v-.548739910126h4.514080047607v.548739910126Z"></path><path fill="#fff" d="M15.928484171629,7.76936006546l2.342300415039,6.264640331268h-.61600112915l-.615999221802-1.679800033569h-2.958300590515l-.6392993927,1.679800033569h-.573100090027l2.333000183105-6.264640331268h.72739982605ZM16.863584727049,11.86340045929l-.711200714111-1.942000389099-.567299842834-1.594019889832-.596300125122,1.603300094604-.734299659729,1.932720184326h2.610300064087-.00119972229Z"></path><path fill="#fff" d="M22.364883631468,13.494600296021v.539400100708h-3.206600189209v-6.264640331268h.587100982666v5.72524023056h2.619499206543Z"></path><path fill="#fff" d="M23.934583872557,10.640700340271h2.881700515747v.51039981842h-2.881700515747v2.323800086975h3.172899246216v.557999610901h-3.750699996948v-6.264699935913h3.750699996948v.567299842834h-3.172899246216v2.305200576782Z"></path><path fill="#fff" d="M33.057785242796,7.76936006546v6.264640331268h-.577701568604l-3.497798919678-5.266930580139v5.266930580139h-.586999893188v-6.264640331268h.577699661255l3.497798919678,5.277439594269v-5.277439594269h.587001800537Z"></path><path fill="#fff" d="M38.467483729124,8.318099975586h-1.956001281738v5.715900421143h-.58699798584v-5.715900421143h-1.971099853516v-.548739910126h4.514099121094v.548739910126Z"></path><path fill="#fff" d="M44.718185633421,12.575799942017c-.279602050781.494199752808-.662403106689.880499839783-1.147300720215,1.158900260925-.485000610352.278499603271-1.019802093506.417699813843-1.605602264404.417699813843-.585899353027,0-1.119598388672-.139200210571-1.603298187256-.417699813843-.483798980713-.278400421143-.865501403809-.663599967957-1.145099639893-1.154299736023-.279602050781-.491900444031-.420001983643-1.048700332642-.420001983643-1.6717004776s.140399932861-1.1775598526.420001983643-1.672940254211c.279598236084-.494209289551.66130065918-.88169002533,1.142700195312-1.161279678345.481498718262-.279590129852,1.017498016357-.419970035553,1.605697631836-.419970035553.58810043335,0,1.120601654053.138060092926,1.605602264404.415330410004.484897613525.277269363403.867698669434.66242980957,1.147300720215,1.156639099121.279598236084.494210243225.419998168945,1.055720329285.419998168945,1.682220458984,0,.626399993896-.140399932861,1.17290019989-.419998168945,1.667099952698ZM44.181083887815,9.515350341797c-.227401733398-.407200813293-.537101745605-.725080490112-.928100585938-.954780578613-.390998840332-.228549957275-.820198059082-.343400001526-1.287700653076-.343400001526-.467597961426,0-.899097442627.11485004425-1.2958984375.343400001526-.395599365234.228540420532-.707698822021.54757976532-.93510055542.954780578613-.227397918701.407209396362-.340999603271.871249198914-.340999603271,1.393349647522,0,.522000312805.11360168457.984900474548.340999603271,1.390999794006.227401733398.406000137329.537200927734.722700119019.928100585938.95240020752.390998840332.22859954834.824901580811.343400001526,1.302898406982.343400001526.47790145874,0,.896701812744-.114800453186,1.287700653076-.343400001526.390998840332-.228500366211.700698852539-.54759979248.928100585938-.9547996521.227401733398-.407200813293.3410987854-.870100021362.3410987854-1.388600349426,0-.518600463867-.113697052002-.98614025116-.3410987854-1.393349647522Z"></path><path fill="#fff" d="M13.89478418231,20.290599822998c0,.473300933838-.106699943542.887500762939-.320199966431,1.242500305176-.213399887085.356199264526-.515000343323.631099700928-.904800415039.826000213623-.38990020752.194900512695-.837699890137.292400360107-1.344599723816.292400360107-.506999969482,0-.94789981842-.099800109863-1.333000183105-.2982006073-.386340141296-.198400497437-.683329582214-.47559928894-.893320083618-.831800460815-.209980010986-.354999542236-.314390182495-.765699386597-.314390182495-1.230899810791v-.431600570679h1.639210700989v.374801635742c0,.279499053955.080100059509.496500015259.237899780273.649599075317.158900260925.153200149536.372400283813.229700088501.641499519348.229700088501.287700653076,0,.508200645447-.078899383545.663599967957-.237800598145.155500411987-.158899307251.233200073242-.372400283813.233200073242-.641498565674v-3.648601531982h-2.12769985199v-1.537199020386h3.824999809265v5.242599487305h-.00239944458Z"></path><path fill="#fff" d="M22.721084803343,20.790599822998c-.345701217651.59049987793-.822500228882,1.04759979248-1.430500030518,1.373600006104-.606700897217.324800491333-1.298101425171.488399505615-2.074300765991.488399505615-.776100158691,0-1.455900192261-.162399291992-2.062700271606-.488399505615-.606698989868-.324800491333-1.081199645996-.780799865723-1.421099662781-1.367799758911-.339900016785-.585800170898-.510499954224-1.257600784302-.510499954224-2.013999938965,0-.756401062012.170599937439-1.434999465942.510499954224-2.02320098877.341099739075-.588199615479.814400672913-1.046499252319,1.421099662781-1.37589931488.606800079346-.329500198364,1.2982006073-.494199752808,2.074300765991-.494199752808.77619934082,0,1.45599937439.162400245667,2.062700271606.488399505615.606800079346.326000213623,1.083599090576.781901359558,1.430500030518,1.370100975037.345699310303.588199615479.51969909668,1.262199401855.51969909668,2.023199081421,0,.761100769043-.172800064087,1.430500030518-.51969909668,2.019800186157ZM21.157184809446,17.570100784302c-.185600280762-.350400924683-.444301605225-.621801376343-.777299880981-.814401626587-.332901000977-.192598342896-.713401794434-.288898468018-1.14040184021-.288898468018-.426898956299,0-.821298599243.096300125122-1.15779876709.288898468018-.336400985718.192600250244-.599700927734.464000701904-.788801193237.814401626587-.189098358154.350399017334-.284299850464.754098892212-.284299850464,1.211198806763s.092800140381.849201202393.27850151062,1.197200775146c.185598373413.348098754883.446599960327.617198944092.782999038696.806299209595.336500167847.189100265503.722799301147.284200668335,1.157800674438.284200668335.435098648071,0,.809799194336-.096200942993,1.146200180054-.288801193237.336500167847-.192598342896.597499847412-.464099884033.783100128174-.814399719238.185699462891-.350399017334.278499603271-.74829864502.278499603271-1.194999694824,0-.446599960327-.092800140381-.850299835205-.278499603271-1.199499130249v-.00119972229Z"></path><path fill="#fff" d="M25.51468488574,15.048000335693l.93039894104,2.371299743652c.15539932251.434999465942.341100692749.978000640869.559200286865,1.628799438477.218099594116.650800704956.371200561523,1.110200881958.462900161743,1.379400253296.095100402832-.27260017395.253999710083-.733200073242.479099273682-1.381700515747.225099563599-.648498535156.418800354004-1.193799972534.581199645996-1.636999130249l.91420173645-2.360799789429h1.815599441528l-2.905000686646,7.450300216675h-1.742500305176l-2.95599937439-7.450300216675h1.860900878906Z"></path><path fill="#fff" d="M34.064785212278,16.58629989624v1.41309928894h2.871299743652v1.481401443481h-2.871299743652v1.486198425293h3.222797393799v1.532501220703h-4.920097351074v-7.450300216675h4.920097351074v1.537099838257h-3.222797393799Z"></path><path fill="#fff" d="M45.197384089231,15.048000335693v7.450300216675h-1.577800750732l-3.058097839355-4.510499954224v4.510499954224h-1.674102783203v-7.450300216675h1.583602905273l3.041896820068,4.522199630737v-4.522199630737h1.685600280762-.001098632812Z"></path></g></svg> 