<svg width="731" height="660" viewBox="0 0 731 660" fill="none" xmlns="http://www.w3.org/2000/svg">
<path d="M339 0C426.36 0 506.002 32.1686 566.108 85H415.425L452.295 148.853C419.285 129.247 380.498 117.95 339 117.95C218.694 117.95 121.167 212.888 121.167 330C121.167 447.112 218.694 542.05 339 542.05C378.611 542.05 415.751 531.756 447.755 513.77L412.229 574H567.241C507.004 627.425 426.91 660 339 660C151.775 660 0 512.254 0 330C0 147.746 151.775 0 339 0Z" fill="#0E3963"/>
<path d="M604.381 110H458.729L585.475 329.5L456 549H604.381L731 329.5L604.381 110Z" fill="#15A3C7"/>
</svg>
