<svg width="846" height="214" viewBox="0 0 846 214" fill="none" xmlns="http://www.w3.org/2000/svg">
<path d="M182.104 195V96H204.104V109.7C207.838 103.5 212.371 99.1667 217.704 96.7C223.038 94.1667 228.771 92.9 234.904 92.9C236.904 92.9 238.804 93 240.604 93.2C242.404 93.4 244.138 93.7 245.804 94.1L242.904 116.8C240.904 116.2 238.871 115.733 236.804 115.4C234.738 115.067 232.671 114.9 230.604 114.9C222.938 114.9 216.604 117.267 211.604 122C206.604 126.667 204.104 133.033 204.104 141.1V195H182.104ZM303.282 198C293.616 198 285.049 195.733 277.582 191.2C270.116 186.6 264.249 180.367 259.982 172.5C255.782 164.567 253.682 155.567 253.682 145.5C253.682 138.233 254.882 131.433 257.282 125.1C259.682 118.7 263.082 113.1 267.482 108.3C271.949 103.5 277.216 99.7667 283.282 97.1C289.416 94.3667 296.182 93 303.582 93C312.582 93 320.382 94.8 326.982 98.4C333.582 102 339.082 107 343.482 113.4L338.882 118.3V51H360.882V195H341.082V171.2L344.282 176.2C340.682 182.467 335.516 187.667 328.782 191.8C322.116 195.933 313.616 198 303.282 198ZM307.282 178.5C313.416 178.5 318.849 177.167 323.582 174.5C328.382 171.767 332.149 167.933 334.882 163C337.616 158.067 338.982 152.233 338.982 145.5C338.982 138.767 337.616 132.933 334.882 128C332.149 123 328.382 119.167 323.582 116.5C318.849 113.833 313.416 112.5 307.282 112.5C301.149 112.5 295.716 113.833 290.982 116.5C286.249 119.167 282.516 123 279.782 128C277.049 132.933 275.682 138.767 275.682 145.5C275.682 152.233 277.049 158.067 279.782 163C282.516 167.933 286.249 171.767 290.982 174.5C295.782 177.167 301.216 178.5 307.282 178.5ZM418.979 198C412.113 198 406.079 196.733 400.879 194.2C395.679 191.6 391.613 187.967 388.679 183.3C385.813 178.567 384.379 173 384.379 166.6C384.379 161.2 385.746 156.333 388.479 152C391.213 147.6 395.446 143.967 401.179 141.1C406.979 138.233 414.413 136.333 423.479 135.4C432.546 134.4 443.446 134.533 456.179 135.8L456.579 151C447.513 149.733 439.713 149.2 433.179 149.4C426.646 149.6 421.279 150.433 417.079 151.9C412.946 153.3 409.879 155.2 407.879 157.6C405.946 159.933 404.979 162.633 404.979 165.7C404.979 170.5 406.679 174.2 410.079 176.8C413.546 179.4 418.279 180.7 424.279 180.7C429.413 180.7 434.013 179.767 438.079 177.9C442.146 176.033 445.346 173.4 447.679 170C450.079 166.6 451.279 162.6 451.279 158V131.7C451.279 127.3 450.346 123.5 448.479 120.3C446.613 117.033 443.779 114.5 439.979 112.7C436.179 110.9 431.446 110 425.779 110C420.579 110 415.446 110.8 410.379 112.4C405.313 113.933 400.479 116.367 395.879 119.7L389.679 103.5C395.879 99.3 402.346 96.3333 409.079 94.6C415.813 92.8667 422.279 92 428.479 92C437.679 92 445.546 93.4667 452.079 96.4C458.679 99.2667 463.746 103.633 467.279 109.5C470.813 115.3 472.579 122.633 472.579 131.5V195H452.779V183.3C449.446 188.033 444.813 191.667 438.879 194.2C432.946 196.733 426.313 198 418.979 198ZM501.831 195V96H523.831V108.6C527.964 103.067 532.764 99.1 538.231 96.7C543.698 94.2333 549.364 93 555.231 93C564.298 93 571.798 94.8 577.731 98.4C583.664 102 588.064 106.633 590.931 112.3C593.864 117.967 595.331 123.8 595.331 129.8V195H573.331V136.6C573.331 129.533 571.198 123.867 566.931 119.6C562.731 115.333 556.864 113.2 549.331 113.2C544.398 113.2 539.998 114.3 536.131 116.5C532.331 118.7 529.331 121.767 527.131 125.7C524.931 129.567 523.831 134.1 523.831 139.3V195H501.831ZM664.525 198C654.858 198 647.125 195.2 641.325 189.6C635.525 184 632.625 175.433 632.625 163.9V67.1H654.625V96H682.125V114.2H654.625V159.1C654.625 166.033 655.925 170.933 658.525 173.8C661.191 176.6 664.925 178 669.725 178C672.058 178 674.258 177.733 676.325 177.2C678.391 176.667 680.258 175.967 681.925 175.1L685.825 192.9C682.958 194.367 679.658 195.567 675.925 196.5C672.258 197.5 668.458 198 664.525 198ZM610.925 114.2V96H635.525V114.2H610.925ZM708.862 195V96H730.862V195H708.862ZM719.862 78.3C715.929 78.3 712.529 77.0333 709.662 74.5C706.795 71.9667 705.362 68.6333 705.362 64.5C705.362 60.4333 706.795 57.1333 709.662 54.6C712.529 52 715.929 50.7 719.862 50.7C723.795 50.7 727.195 52 730.062 54.6C732.929 57.1333 734.362 60.4333 734.362 64.5C734.362 68.6333 732.929 71.9667 730.062 74.5C727.195 77.0333 723.795 78.3 719.862 78.3ZM794.801 197.9C786.601 197.9 778.935 196.733 771.801 194.4C764.668 192.067 758.668 188.933 753.801 185L762.101 168.9C766.701 172.5 771.868 175.333 777.601 177.4C783.401 179.467 789.101 180.5 794.701 180.5C801.168 180.5 806.201 179.367 809.801 177.1C813.401 174.833 815.201 171.667 815.201 167.6C815.201 163.733 813.635 160.9 810.501 159.1C807.435 157.233 801.568 155.3 792.901 153.3C780.435 150.7 771.368 147.033 765.701 142.3C760.101 137.5 757.301 130.867 757.301 122.4C757.301 116.467 758.935 111.233 762.201 106.7C765.535 102.1 770.101 98.5 775.901 95.9C781.701 93.3 788.401 92 796.001 92C803.401 92 810.368 93.0667 816.901 95.2C823.435 97.2667 829.101 100.2 833.901 104L826.101 120.2C823.635 118 820.768 116.1 817.501 114.5C814.235 112.9 810.768 111.667 807.101 110.8C803.501 109.867 799.901 109.4 796.301 109.4C790.701 109.4 786.135 110.5 782.601 112.7C779.135 114.833 777.401 117.8 777.401 121.6C777.401 125.533 779.068 128.433 782.401 130.3C785.735 132.167 791.468 134.033 799.601 135.9C812.401 138.7 821.568 142.433 827.101 147.1C832.635 151.767 835.401 158.233 835.401 166.5C835.401 172.833 833.701 178.367 830.301 183.1C826.901 187.767 822.135 191.4 816.001 194C809.935 196.6 802.868 197.9 794.801 197.9Z" fill="#0E3963"/>
<path d="M77.5596 63C97.5464 63.0001 115.767 70.3602 129.519 82.4473H95.0439L103.479 97.0557C95.9266 92.5705 87.0533 89.9854 77.5596 89.9854C50.0351 89.9854 27.7217 111.706 27.7217 138.5C27.7217 165.294 50.0351 187.015 77.5596 187.015C86.6219 187.015 95.1184 184.658 102.44 180.543L94.3125 194.324H129.777C115.996 206.547 97.672 214 77.5596 214C34.7249 214 0 180.197 0 138.5C0 96.8025 34.7249 63 77.5596 63Z" fill="#0E3963"/>
<path d="M138.275 88.1667H104.952L133.949 138.386L104.327 188.605H138.275L167.244 138.386L138.275 88.1667Z" fill="#15A3C7"/>
</svg>
